<svg xmlns="http://www.w3.org/2000/svg" xmlns:xlink="http://www.w3.org/1999/xlink" viewBox="0 0 3229.25 2000"><defs><style>.cls-1{isolation:isolate;}.cls-2{fill:#f3f3f3;}.cls-3{fill:#fff;}.cls-4{fill:url(#linear-gradient);}.cls-5{fill:url(#linear-gradient-2);}.cls-6{fill:url(#linear-gradient-3);}.cls-7{fill:#e0e0e0;}.cls-8{fill:url(#linear-gradient-4);}.cls-9{fill:url(#linear-gradient-5);}.cls-10{fill:url(#linear-gradient-6);}.cls-11{fill:url(#linear-gradient-7);}.cls-12{fill:url(#linear-gradient-8);}.cls-13,.cls-19{fill:#f5f5f5;}.cls-14{fill:url(#linear-gradient-9);}.cls-15{fill:url(#linear-gradient-10);}.cls-16{fill:url(#linear-gradient-11);}.cls-17{fill:url(#linear-gradient-12);}.cls-18{fill:#4e7ed6;}.cls-19{mix-blend-mode:hard-light;}.cls-20{fill:#537ffd;}.cls-21{fill:#4ba6f3;}.cls-22{fill:#46bbed;}.cls-23{fill:#b3b7c4;}.cls-24{fill:#eea987;}.cls-25{fill:#fccca2;}.cls-26{fill:#dbdff0;}.cls-27{fill:#1d3b54;}.cls-28{fill:#eea886;}.cls-29{fill:#3b3b40;}.cls-30{fill:#e8734d;}.cls-31{fill:#d6c5be;}.cls-32{fill:#fae6de;}.cls-33{fill:#a77860;}.cls-34{fill:#616161;}.cls-35{fill:#e0cec7;}.cls-36{fill:#db9c7c;}.cls-37{fill:url(#linear-gradient-13);}.cls-38{fill:url(#linear-gradient-14);}.cls-39{fill:#2d2d30;}.cls-40{fill:#2d3133;}.cls-41{fill:#e55353;}.cls-42{fill:#353a3d;}.cls-43{fill:#248c9e;}.cls-44{fill:#2aa3b8;}.cls-45{fill:#196370;}.cls-46{fill:#1d6f7d;}.cls-47{fill:url(#linear-gradient-15);}.cls-48{fill:url(#linear-gradient-16);}.cls-49{fill:#2d5bad;}.cls-50{fill:#5d96ff;}</style><linearGradient id="linear-gradient" x1="2652.2" y1="-9542.76" x2="3178.88" y2="-9542.76" gradientTransform="translate(-7996.18 488.69) rotate(73.11)" gradientUnits="userSpaceOnUse"><stop offset="0" stop-color="#40d5e6"/><stop offset="1" stop-color="#57f"/></linearGradient><linearGradient id="linear-gradient-2" x1="2591.97" y1="-9865.37" x2="3483.56" y2="-9865.37" xlink:href="#linear-gradient"/><linearGradient id="linear-gradient-3" x1="2974.31" y1="-9903.92" x2="3377.83" y2="-9903.92" xlink:href="#linear-gradient"/><linearGradient id="linear-gradient-4" x1="387.07" y1="1314.85" x2="387.07" y2="1001.36" gradientUnits="userSpaceOnUse"><stop offset="0" stop-color="#ff9f55"/><stop offset="1" stop-color="#ffd255"/></linearGradient><linearGradient id="linear-gradient-5" x1="464.34" y1="1314.85" x2="464.34" y2="1001.36" xlink:href="#linear-gradient-4"/><linearGradient id="linear-gradient-6" x1="541.61" y1="1314.85" x2="541.61" y2="1001.36" xlink:href="#linear-gradient-4"/><linearGradient id="linear-gradient-7" x1="618.88" y1="1314.84" x2="618.88" y2="1001.37" xlink:href="#linear-gradient-4"/><linearGradient id="linear-gradient-8" x1="1643.59" y1="2354.31" x2="1683.34" y2="96.27" gradientTransform="translate(3333.09 2100.88) rotate(-180)" xlink:href="#linear-gradient"/><linearGradient id="linear-gradient-9" x1="1778.85" y1="451.77" x2="2074.63" y2="451.77" gradientTransform="matrix(1, 0, 0, 1, 0, 0)" xlink:href="#linear-gradient"/><linearGradient id="linear-gradient-10" x1="1778.85" y1="608.59" x2="2050.36" y2="608.59" gradientTransform="matrix(1, 0, 0, 1, 0, 0)" xlink:href="#linear-gradient"/><linearGradient id="linear-gradient-11" x1="1778.85" y1="530.18" x2="2013.77" y2="530.18" gradientTransform="matrix(1, 0, 0, 1, 0, 0)" xlink:href="#linear-gradient"/><linearGradient id="linear-gradient-12" x1="1461.51" y1="757.41" x2="1461.51" y2="432.61" gradientUnits="userSpaceOnUse"><stop offset="0" stop-color="#7db3e0"/><stop offset="1" stop-color="#fff"/></linearGradient><linearGradient id="linear-gradient-13" x1="541.07" y1="1608.27" x2="529.15" y2="1129.47" xlink:href="#linear-gradient-4"/><linearGradient id="linear-gradient-14" x1="482.89" y1="1609.72" x2="470.97" y2="1130.92" xlink:href="#linear-gradient-4"/><linearGradient id="linear-gradient-15" x1="1450.73" y1="274.99" x2="1476.56" y2="670.35" gradientTransform="matrix(1, 0, 0, 1, 0, 0)" xlink:href="#linear-gradient"/><linearGradient id="linear-gradient-16" x1="1450.73" y1="274.99" x2="1476.56" y2="670.34" gradientTransform="translate(1021.51 1901.51) rotate(-90)" xlink:href="#linear-gradient"/></defs><g class="cls-1"><g id="Слой_1" data-name="Слой 1"><rect class="cls-2" x="1624.03" y="708.8" width="9.11" height="955.53"/><rect class="cls-3" x="1628.58" y="591.06" width="98.18" height="24.91"/><rect class="cls-3" x="1628.58" y="637.1" width="78.56" height="24.91"/><rect class="cls-3" x="1633.14" y="1720.94" width="103.03" height="33.21"/><path class="cls-4" d="M2005.32,224.18s242.31,287.31,88.59,473.36-196,3.62-196,3.62-92,17.08,67.35-215.62C2040.37,375.86,2005.32,224.18,2005.32,224.18Z"/><path class="cls-5" d="M2536.43,0s180,265.69-133.4,571.76-290.11,488.6-290.11,488.6S1792.48,433.09,2536.43,0Z"/><path class="cls-6" d="M2054.41,944.91c-131.48,11.86,21.08-343.67,226.5-436.48s379.22-84.95,499.34-182.88C2780.25,325.55,2701.91,886.48,2054.41,944.91Z"/><rect class="cls-7" x="742.06" y="708.8" width="9.11" height="955.53"/><rect class="cls-2" x="1366.63" y="708.8" width="9.11" height="955.53"/><rect class="cls-2" x="2014.21" y="708.8" width="9.11" height="955.53"/><rect class="cls-7" x="746.61" y="591.06" width="155.11" height="24.91"/><rect class="cls-7" x="746.61" y="637.1" width="220.02" height="24.91"/><rect class="cls-3" x="1364.21" y="591.06" width="182.1" height="24.91"/><rect class="cls-3" x="1364.21" y="637.1" width="116.44" height="24.91"/><rect class="cls-3" x="2023.31" y="591.06" width="112.84" height="24.91"/><rect class="cls-3" x="2023.31" y="637.1" width="131.52" height="24.91"/><rect class="cls-3" x="2670.89" y="591.06" width="164.37" height="24.91"/><rect class="cls-3" x="2670.89" y="637.1" width="131.52" height="24.91"/><rect class="cls-3" x="1371.19" y="1720.94" width="103.03" height="33.21"/><rect class="cls-3" x="2023.31" y="1720.94" width="103.03" height="33.21"/><rect class="cls-7" x="371.51" y="1064.26" width="31.12" height="134.37"/><rect class="cls-7" x="448.78" y="1009.67" width="31.12" height="188.95"/><rect class="cls-7" x="526.05" y="981.19" width="31.12" height="217.44"/><rect class="cls-7" x="603.32" y="969.33" width="31.12" height="229.3"/><rect class="cls-8" x="371.51" y="1114.33" width="31.12" height="84.3"/><rect class="cls-9" x="448.78" y="1080.08" width="31.12" height="118.55"/><rect class="cls-10" x="526.05" y="1062.21" width="31.12" height="136.41"/><rect class="cls-11" x="603.32" y="1054.77" width="31.12" height="143.86"/><rect class="cls-12" x="1097.67" y="297.79" width="1137.76" height="1505.31" rx="59.95" transform="translate(3333.09 2100.88) rotate(180)"/><path class="cls-13" d="M1205.24,119.83H2168.1a0,0,0,0,1,0,0V1727.18a0,0,0,0,1,0,0H1165a0,0,0,0,1,0,0V160.09A40.25,40.25,0,0,1,1205.24,119.83Z"/><rect class="cls-14" x="1778.85" y="433.07" width="295.77" height="37.41"/><rect class="cls-15" x="1778.85" y="589.88" width="271.5" height="37.41"/><rect class="cls-16" x="1778.85" y="511.47" width="234.91" height="37.41"/><path class="cls-17" d="M1461.51,673a231,231,0,0,1-96.29-20.76A233.6,233.6,0,0,1,1228.54,440c0-128.46,104.51-233,233-233s233,104.51,233,233a233.6,233.6,0,0,1-136.69,212.21A230.89,230.89,0,0,1,1461.51,673Zm0-453.64c-121.68,0-220.67,99-220.67,220.67a221.26,221.26,0,0,0,129.47,201,221.34,221.34,0,0,0,182.39,0,221.26,221.26,0,0,0,129.48-201C1682.18,318.32,1583.19,219.33,1461.51,219.33Z"/><rect class="cls-18" x="1228.54" y="766.75" width="339.85" height="33.36"/><rect class="cls-7" x="1228.54" y="856.5" width="339.85" height="33.36"/><rect class="cls-7" x="1228.54" y="946.24" width="339.85" height="33.36"/><rect class="cls-18" x="1637.75" y="766.75" width="56.73" height="33.36"/><rect class="cls-7" x="1637.75" y="856.5" width="56.73" height="33.36"/><rect class="cls-7" x="1637.75" y="946.24" width="56.73" height="33.36"/><rect class="cls-19" x="1775.44" y="733.16" width="679" height="1031.06" rx="74.73"/><path class="cls-7" d="M2375.06,886.51a111.15,111.15,0,1,0-209.31,74.86c.84,2.35,1.76,4.66,2.74,6.92a111.15,111.15,0,0,0,206.57-81.78Zm-76.59,115.89A83.22,83.22,0,0,1,2194,957.19c-.74-1.69-1.43-3.43-2.06-5.19a83.33,83.33,0,1,1,106.53,50.4Z"/><path class="cls-20" d="M2190.86,899.1l-26.56-8.29a111.31,111.31,0,0,1,102.78-78l.83,27.81a83.43,83.43,0,0,0-77,58.48Z"/><path class="cls-21" d="M2194,957.19l-25.51,11.1c-1-2.26-1.9-4.57-2.74-6.92a110.68,110.68,0,0,1-1.45-70.56l26.56,8.29a83,83,0,0,0,1.08,52.9C2192.57,953.76,2193.26,955.5,2194,957.19Z"/><path class="cls-22" d="M2185.72,996a110.45,110.45,0,0,1-17.23-27.67l25.51-11.1a82.62,82.62,0,0,0,12.91,20.75Z"/><rect class="cls-22" x="2209.51" y="1531.45" width="59.91" height="196.44"/><rect class="cls-22" x="2120.44" y="1586.55" width="59.91" height="141.35"/><rect class="cls-22" x="2295.92" y="1440.41" width="59.91" height="287.49"/><polygon class="cls-22" points="1866.15 1511.21 1860.95 1507.21 1958.57 1380.18 2079.07 1386.72 2169.93 1242.02 2267.81 1231.92 2326.63 1115.58 2332.49 1118.55 2272.05 1238.08 2173.79 1248.22 2082.57 1393.48 1961.67 1386.92 1866.15 1511.21"/><path class="cls-18" d="M2050.8,879.53H1880.42A19.47,19.47,0,0,1,1861,860.06h0a19.48,19.48,0,0,1,19.47-19.48H2050.8a19.47,19.47,0,0,1,19.47,19.48h0A19.47,19.47,0,0,1,2050.8,879.53Z"/><path class="cls-7" d="M2050.8,947.49H1880.42A19.48,19.48,0,0,1,1861,928h0a19.48,19.48,0,0,1,19.47-19.48H2050.8A19.47,19.47,0,0,1,2070.27,928h0A19.47,19.47,0,0,1,2050.8,947.49Z"/><path class="cls-7" d="M2050.8,1015.44H1880.42A19.48,19.48,0,0,1,1861,996h0a19.47,19.47,0,0,1,19.47-19.47H2050.8A19.47,19.47,0,0,1,2070.27,996h0A19.47,19.47,0,0,1,2050.8,1015.44Z"/><path class="cls-23" d="M1497.44,1531.76s-67.49-19.08-149.91,0l39.55-202.6S1485.82,1433.85,1497.44,1531.76Z"/><path class="cls-24" d="M1711.29,1182.48s15.15,10.85,19.63,9.49,12,.83,16.26.38,15.38-5.76,19.85-4.63c1.83.47,12,7.69,15.77,8.23s11.65.73,11.13,4-7.57,5-7.57,5,3.44.71,3.87,3.71c.83,5.85-2.23,7.89-2.23,7.89s3.07,3,2.8,5.49c-.59,5.53-3.61,7.43-3.61,7.43a9.39,9.39,0,0,1,.08,6.48,8.4,8.4,0,0,1-6.4,5.26s-.65,6.2-4.06,7-6.37-.37-9.19-.45-27.08-8.46-41.51-21.06a139,139,0,0,0-31.11-20Z"/><path class="cls-25" d="M1400.6,768s-22.62-14.51-43,11.28-13.06,50.61-8.8,73.77c4.23,23,24.8,75.53,16.06,98.68s2.43,35.21,2.43,35.21,70.14,18,62-87.55S1400.6,768,1400.6,768Z"/><path class="cls-26" d="M1430.65,967.2s26.71-3.66,44.64,9.77,30.19,38.61,35.67,46.51,69.49,78.55,72.67,79.83,43,23.27,69.87,41,69.12,39.15,69.12,39.15l-22.93,28.13s-113-40.45-136.5-62.32C1538.08,1125.94,1422,1010,1422,1010S1392.81,986.44,1430.65,967.2Z"/><path class="cls-27" d="M1625,1949.91s28.89,38.89,24.92,45.06-34.34,7-52.84,0-18.93-52.63-27.3-72.22c-3.5-8.2,4-32.4,14.53-34.16s22,3.4,22,3.4S1595.37,1919.58,1625,1949.91Z"/><path class="cls-28" d="M1606.5,1891.68s6.08,16.56,8.3,32.38c1.84,13.11,20.58,41,19.7,44.49s-24.66,6.71-34.34-2.37-15.93-35.49-18.06-51.29c-2-14.72-4.49-22-4.49-22S1597.25,1882,1606.5,1891.68Z"/><polygon class="cls-27" points="1569 1919.33 1569 1960.05 1574.28 1960.05 1574.28 1928.58 1569 1919.33"/><path class="cls-27" d="M1373.51,1950.55s27.85,38.25,23.89,44.42-34.35,7-52.84,0-18.94-52.63-27.3-72.22c-3.51-8.2,4-32.4,14.53-34.16s22.89,3.78,22.89,3.78S1343.9,1920.23,1373.51,1950.55Z"/><path class="cls-28" d="M1354.68,1892.37s2.21,18.05,5.73,30.82,22.46,41.83,21.57,45.36-24.65,6.71-34.34-2.37-17.17-35.38-18.05-51.29,2.2-26.3,2.2-26.3S1345.44,1882.68,1354.68,1892.37Z"/><polygon class="cls-27" points="1316.48 1919.33 1316.48 1960.05 1321.77 1960.05 1321.77 1928.58 1316.48 1919.33"/><path class="cls-29" d="M1493.85,1259.15s24.8,115.33,30.49,144.37,21.63,169.68,23.34,193.59,25.87,114,24.74,122.56,37.17,178,37.17,178-39.44,10.73-46.08,3.5c-5.63-6.14-62.3-161.11-62.3-203.82,0-59-44.52-134.18-50.15-147.38-52.33-122.69-41.15-162.1-48-170.07s-7.43,4.93-11.41,22.58-12.52,170.24-17.65,189.6-1.14,84.84-4,117.86-6.12,181-6.12,181-28.57,6.57-42.14.24c-3.92-1.83-13.8-164.83-14.37-204.12s-1.17-93.47-2.27-110.46c-10.55-162.8-26.11-185.91,4.36-301.27C1367.93,1054,1493.85,1259.15,1493.85,1259.15Z"/><path class="cls-30" d="M1429.68,951.85s25.88,12.22,34.86,14,43.85,47.08,50,63.62,0,41.33-12.58,70.44-.72,38.81-6.47,67.93-.3,97.34.78,113.52-132.25,36.71-183.49-14.92c0,0,27.81-52.24,32.12-59.43s.72-46.36-3.24-56.43-30.26-95.64-30.26-95.64-21.53-65.72-2.08-80.82c16.89-13.12,62.93-17.8,71.19-20.67S1412.79,949.34,1429.68,951.85Z"/><path class="cls-31" d="M1438,1009.54l15.72-18.41L1440,942.65S1435.43,969.65,1438,1009.54Z"/><path class="cls-28" d="M1442,922s-5.16,47.48-4.08,62.93c0,0-26.89,26.94-57.48-31.45,0,0,12.87-24.07,3.19-56.87S1442,922,1442,922Z"/><polygon class="cls-28" points="1437.94 984.92 1437.94 1009.54 1407 986.42 1437.94 984.92"/><polygon class="cls-31" points="1437.94 1009.54 1425.1 993.63 1381.82 950.5 1367.82 963.99 1437.94 1009.54"/><polygon class="cls-32" points="1453.67 991.13 1473.48 996.6 1440.02 942.65 1453.67 991.13"/><polygon class="cls-32" points="1425.1 993.63 1407 1017.36 1370.03 954.23 1382.9 947.64 1425.1 993.63"/><path class="cls-33" d="M1441,932.44l-.89,9.51s-21.38,4-49.34-30.1C1390.74,911.85,1410.56,936,1441,932.44Z"/><path class="cls-24" d="M1435.54,933.13c8.42-.31,31.92-3,43.52-57.2,14.16-66.14-17.14-100.45-43.94-106.81s-51.52,3-65.24,37.54c0,0-10,27,6.25,75S1426.53,933.46,1435.54,933.13Z"/><path class="cls-25" d="M1414,812s36,2.24,69.44,52.5c0,0,15.66-60.47-25.27-88.07s-69.59-3.87-79.58,8.16c0,0-14.32,3.3-14.77,30.47s-18.72,68.18,21.37,87.63c0,0-3.82-31-.29-38.11S1400.73,862.29,1414,812Z"/><path class="cls-24" d="M1386.91,852.55c-1.81-4.71-6.76-6.6-9.48-1.56s.52,24.6,7.78,26.74S1390.59,862.08,1386.91,852.55Z"/><path class="cls-26" d="M1370,954.23s40.65,48.63,44.91,150.86-32,428.73-29.76,468.56l-105.42-51s.61-164.74,35.91-268.39c41.41-121.61-5.69-158.71-10-233.51,0,0,2-54.77,32.48-59.75C1366.82,956.32,1370,954.23,1370,954.23Z"/><path class="cls-26" d="M1451.72,961.52s16.54,1.93,21.76,8.11,37.9,43.84,40.28,54.93,10,19.36-5.67,71c-14,46.26-10.51,98.07-7.61,118.81s53.39,301.08,50.62,308.27-23.78,24.34-23.78,24.34-45.21-276.6-44.74-322.79S1501.15,1040.45,1451.72,961.52Z"/><polygon class="cls-34" points="1797.53 1107.49 1762.28 1288.98 1645.79 1266.36 1676.49 1083.98 1797.53 1107.49"/><polygon class="cls-35" points="1788.79 1116.32 1757.48 1277.51 1654.03 1257.42 1681.29 1095.44 1788.79 1116.32"/><polygon class="cls-34" points="1755.99 1114.11 1758.19 1102.8 1716.36 1094.67 1712.53 1105.67 1755.99 1114.11"/><path class="cls-36" d="M1784.43,1203.43s-20.87-6.8-27-2.89,1.22,6.78,1.22,6.78-7.27-3-10.14,2.48,6,8.35,6,8.35-6.09-.79-6.86,5.6,7.08,7.15,7.08,7.15-9.1,3.6-3.36,9.42c9.7,9.81,25.82,8.37,25.82,8.37s4-1,4.29-7.17c0,0,9.6-1.65,6.53-12,0,0,7.77-8.49.08-13C1788,1216.51,1796.2,1206.8,1784.43,1203.43Z"/><path class="cls-28" d="M1279.44,1307.63s-4.2,19.63,4.38,32.91c3.28,5.07.13,43.46-.17,48.25-.25,4-3.86,7.45-5.36,6.62s-1.81-22.08-4.07-28.93c-1.9-5.75-3.58-7.92-4.62-6.08s2.49,32.68,4.5,42.89-.51,31.73-5.81,28.25-23-51.25-21.7-67.2,7.34-35.88,7.34-35.88Z"/><path class="cls-26" d="M1363.81,957.12s-42.1-2.6-63.22,22-20,53.75-25.33,66.42-17.66,67.18-20.35,76-5.31,58.46-9.15,98.39-3.06,114.48-3.06,114.48l40.28-7.3s1.62-71.07,2.64-112.28,34.55-114,47.22-145.88S1396,977.11,1363.81,957.12Z"/><polygon class="cls-37" points="512.14 1423.97 580.73 1423.97 559.74 1380.42 491.15 1380.42 512.14 1423.97"/><polygon class="cls-38" points="480.05 1423.97 496.39 1423.97 475.4 1380.42 459.05 1380.42 480.05 1423.97"/><path class="cls-23" d="M2635,1567.41s-67.48-19.09-149.91,0l39.55-202.6S2623.35,1469.49,2635,1567.41Z"/><path class="cls-39" d="M2453.06,1914.37s-30.75,52.11-43.73,60.62c-17.62,11.56-6.58,23.24,1.79,23.25s51.1,3.07,60.52-7.61,14.09-42.72,22.85-51.1,16.77-39.28-4.27-49.76C2467.15,1878.27,2453.06,1914.37,2453.06,1914.37Z"/><path class="cls-28" d="M2464.59,1887s-33.43,65.44-39.5,74.45,11.43,9,22.27,4.72,39-47.69,42-56,.83-20.41.83-20.41Z"/><polygon class="cls-39" points="2502.04 1924.28 2493.92 1986.85 2489.61 1987.04 2490.95 1942.03 2502.04 1924.28"/><path class="cls-39" d="M2716.67,1863.55s-7.37,60.06-15.87,73c-11.54,17.63,3.25,23.94,10.93,20.6s48.07-17.6,52.44-31.16-4.15-44.79.53-56-.31-42.72-23.79-43.92C2715.17,1824.84,2716.67,1863.55,2716.67,1863.55Z"/><path class="cls-28" d="M2716.32,1833.9s-4.51,73.34-6.47,84,14.08,3.69,22.31-4.57,16.67-59.29,16.14-68.16-7.39-19-7.39-19Z"/><polygon class="cls-39" points="2765.53 1853.08 2783.08 1913.68 2779.21 1915.58 2762.45 1873.78 2765.53 1853.08"/><path class="cls-28" d="M2425.74,1313.83a182.4,182.4,0,0,0-.21,23.49c.37,5.91-9.42,40.91-11,45.33-1.34,3.71-3.15.71-3.65-2.16-.29-1.66,1.16-14.35.93-21.42-.2-5.93-1.19-8.44-2.67-7s-10.13,23.2-11,33.36-9.87,31.45-13.9,26.71-3.41-48.07,2.22-62.71,16.81-31.72,16.81-31.72Z"/><path class="cls-26" d="M2430.38,1322.26c1.66-4.67,41.88-69.19,51.51-89.74s18.08-39.41,22.6-47.45c.29-.52.79-1.45,1.44-2.69,3.14-6,10-19.39,16.9-31.83l1.45-2.6,1.22-5c4.83-8.61,2-14.35,3-21.62a22.26,22.26,0,0,1,2.18-7.07c0-.1.09-.19.13-.28,5.9-11.64,10.53-21.88,12-27.79,4.84-19.64,28-106.79,28-106.79s-37.37,13.18-43.2,26.57c-8.83,20.32-19.21,50.92-22.05,60.38s-29.24,87.85-34.68,103.79-11,29.29-17.07,39.48-49.83,102.49-52.91,110.87C2400.83,1320.54,2428.73,1326.93,2430.38,1322.26Z"/><path class="cls-29" d="M2588.33,1407.55c-1.53,7.39-11.33,38.35-22.3,72.74h0c-10,31.35-21,65.56-27.57,87.39-2.46,8.15-4.31,14.57-5.26,18.48-6.32,25.84.79,66.39,3.08,100.27s-10.65,205.65-10.65,205.65c-8.61,4-63.89-3.12-63.89-3.12,6.32-12.06,8.28-228.14,4.83-241.35s-5.74-50-2.29-64.33a56.32,56.32,0,0,0,1.13-11.52c.29-18.12-3.45-48.09-5.73-80.94-2.87-41.36,13.21-144.16,15.51-153.35.21-.85.54-2,1-3.5,4.23-14.42,17.85-55.35,17.85-55.35,27.63-8.22,48.43-9.71,64-6.54,20.56,4.18,31.87,16.52,37.52,32.19C2609,1341.65,2590.32,1398,2588.33,1407.55Z"/><path class="cls-29" d="M2748.33,1826.12,2704,1862c-4.75-23-106.52-204.62-113.45-222.42s-14.32-52.26-14.32-64.9c0-2.26-.16-6.06-.48-11-1.22-19.15-4.73-55.27-9.76-83.39-.94-5.24-1.93-10.21-3-14.73-5.57-24.25-6.54-107.09-6.6-155.81,0-21.67.12-36.6.12-36.6s.48-.38,1.38-1.06c10.48-7.93,77.66-56.25,101.08-11.08a135.53,135.53,0,0,1,12.68,38.1c7.51,40.94.14,87-5.92,129.05-5.19,35.94-15.13,86.72-18,124.41-1.58,20.73-1,37.51,3.68,45.66,13.21,23,26.13,42.42,52.84,123.48C2713,1748.08,2748.33,1826.12,2748.33,1826.12Z"/><path class="cls-40" d="M2540.08,855s-14.61-94.52,63.67-92.77,77.23,48.47,75.84,94.86S2648.2,900,2682,964.5s-29.3,64.52-29.3,64.52l-49-67.31Z"/><path class="cls-28" d="M2595.19,771.28s-53,8.37-55.11,83.71,14.3,91.37,60.69,75.68,61-94.52,62.08-106.72S2666.68,762.22,2595.19,771.28Z"/><path class="cls-41" d="M2688.28,1033.31c.2,25.94-29.61,87.94-34.21,107.08s-11.87,25.28-5.74,49.78,25.12,107.41,24.35,114.69-116,43.84-196.52,29.12c0,0,31.36-117,33.66-130.42s-2.79-63.65-3.94-77.82-15.49-44.66-15-58.86c.49-14.46,7.6-27,17.54-42.41,3.08-4.79,6.31-9.67,9.55-14.41,10.53-15.46,21.05-29.49,26.21-34.32a84.07,84.07,0,0,1,10.56-8.42l0,0a48.88,48.88,0,0,1,10.86-5.73l45.57-7.27s28.39,10.27,44.73,14.1C2655.92,968.4,2687.81,973.05,2688.28,1033.31Z"/><path class="cls-41" d="M2554.76,967.3l-26.41,41.62L2504,1047.34c.06-.21,1.68-6,4.44-22.87.52-3.2,1.08-6.79,1.69-10.82a27.23,27.23,0,0,1,.76-3.54h0c10.43-24.06,42.69-42.19,43.87-42.79Z"/><path class="cls-28" d="M2630.59,896.74c-4.6,8.67-9.45,62.54-9.45,62.54s-64.84,24.5-58.2,10.64c3-6.29,3.89-14.45,3.95-21.49a102.18,102.18,0,0,0-.72-13.09c-.16-1.41-.3-2.23-.3-2.23S2635.18,888.05,2630.59,896.74Z"/><path class="cls-40" d="M2573.56,825.34s27.21,44.29,52,61.73,12.2,31.39,12.2,31.39,64.61-136,3.19-145.43-99.09-10.12-100.84,82C2540.08,855,2568,824.64,2573.56,825.34Z"/><path class="cls-33" d="M2603.14,929.8c-9.95,14.68-36.24,18.63-36.24,18.63h0a102.18,102.18,0,0,0-.72-13.09C2583.07,938.6,2603.14,929.8,2603.14,929.8Z"/><path class="cls-26" d="M2511,1009.82h0s-1.41,2.92-2.56,14.65l9.55-14.41s17.05-24.46,22.9-30.81a96.72,96.72,0,0,1,13.87-11.93S2521.17,983.44,2511,1009.82Z"/><path class="cls-28" d="M2654.71,1166a348.49,348.49,0,0,1-37,10.5c-17.8,3.77.6,25.09.6,25.09s30.83-2.85,45.66-4.29C2671.17,1196.58,2654.71,1166,2654.71,1166Z"/><path class="cls-41" d="M2640,1046.29s41.61-16.32,53.92-17.27c0,0-8.37-66.83-49.24-59.75S2640,1046.29,2640,1046.29Z"/><path class="cls-28" d="M2565.62,961.57s-30.55,47-20.21,51.09,66.32-5.48,90.13-50.1C2635.54,962.56,2600,944.31,2565.62,961.57Z"/><path class="cls-26" d="M2621.32,957.38s-32.4,53.76-36.66,156,32,428.73,29.76,468.56l97.91-42.3s-36.9-267-49.15-317.92,26.44-117.89,30.74-192.69c0,0-2.72-51.32-32.48-59.75S2621.32,957.38,2621.32,957.38Z"/><path class="cls-28" d="M2686.74,1011.41s-7.32-49.37-43.5-41.23c-34.76,7.82-2.18,72.55.37,80.21s28.3,70.27,30.53,78.47c7.06,25.94.45,26.55-10.18,32.67-31.35,18.06-95.82,16.87-103.25,21.83s-7,20.42,5.49,21c16.25.69,109.12-8,122.08-9.32,12.56-1.23,37.57-2.28,31-46.93C2714.86,1118,2686.74,1011.41,2686.74,1011.41Z"/><path class="cls-26" d="M2565.62,961.57s-34.46,57.17-36.25,124.9-64.87,356.3-58.23,504.1l-14.67-14.21a22.62,22.62,0,0,1-6.87-17.62c2.53-42.46,13.74-204.6,41.46-293.43,32.08-102.82,5.12-171-.28-189.33s11.84-42.78,17.63-51.51S2528,975.57,2565.62,961.57Z"/><polygon class="cls-34" points="2640.66 1083.77 2669.67 1266.36 2552.48 1284.99 2518.88 1103.12 2640.66 1083.77"/><polygon class="cls-35" points="2635.47 1095.07 2661.24 1257.23 2557.15 1273.77 2527.32 1112.25 2635.47 1095.07"/><polygon class="cls-34" points="2603.89 1104.21 2602.09 1092.83 2560.01 1099.52 2560.17 1111.16 2603.89 1104.21"/><path class="cls-28" d="M2617.74,1176.48s-19.36,3.24-21.17,2.94-9.45-12.83-18.32-15.07-19.95-4-22.68-5.69-3.48,7,5,10.54,10.65,8.31-5.29,11.51c-8.83,1.77-41.8-1.91-39.06,3.66,1.6,3.27,33.38,5.61,33.38,5.61s-34.29-.16-35.45,1.92c-2.3,4.08,32.09,5.52,33.53,5.39,0,0-29.47,1.69-29.73,4.33-.32,3.29,29.53,1.89,29.26,2.43,0,0-23.43,1.62-23.2,3.61.31,2.62,20.93,2.94,24.92,2.47s44.39-5.06,51.16-6.41,18.22-2.15,18.22-2.15Z"/><path class="cls-26" d="M2692.37,1016.76s33.24,125.82,30.48,156.79-122.49,36.76-122.49,36.76v-32.59s62.67-13.91,74.43-28.3c6.12-7.49-34.79-103.13-34.79-103.13s-36.6-59.84-1.91-75.07S2687.71,998.58,2692.37,1016.76Z"/><path class="cls-28" d="M715.18,1357.72s-19.71,9.79-38.39,11.63c0,0-17.65-25.88-28-45.25-24.63-46.2-31.91-67.83-29.8-85.57,3.77-31.89,66.49-159.46,66.49-159.46l69.61,26.86-53.29,94.72c-5,9.7-11.4,25.48-18,38.31-8.69,16.82,1.77,55.3,8,71.37C691.77,1310.33,703.13,1341.46,715.18,1357.72Z"/><path class="cls-42" d="M497.63,1883.23s-2.05,11.54,5.94,27,43.78,54.7,41.31,70.84-43.82,14.23-69.8-14.18S410.54,1909,412,1902.13s40.37-42.26,53.91-47S497.63,1883.23,497.63,1883.23Z"/><polygon class="cls-28" points="511.91 1868.03 497.28 1883.79 464.39 1855.75 479.51 1838.21 511.91 1868.03"/><path class="cls-43" d="M466.74,1838.21C482.79,1820,612.29,1687.5,612.29,1687.5c66.05-76.13,91.9-78.14,91.9-78.14a384.21,384.21,0,0,1,39.34,3.45c3.26.45,13.86.33,17.27.89,42.05,6.82,43.22,2,27.85,36.47-25.28,56.65-278.83,220.11-278.83,220.11Z"/><path class="cls-42" d="M1058.37,1907.27s20.77,9.06,39.07,11.56,62.39-4.77,74.91,7.25-14.47,46.83-55.08,52-92.62,13.78-97.68,8.37-9.28-54.11-5.08-68.77S1058.37,1907.27,1058.37,1907.27Z"/><polygon class="cls-28" points="1049.65 1885.75 1058.37 1907.27 1014.51 1917.69 1007.89 1894.65 1049.65 1885.75"/><path class="cls-43" d="M983.82,1613.66s-17.85-68.08,24.07,92.3c0,0,44.18,171.12,49,180.86,1.15,2.31-55.39,12.65-56.43,12.24-9.84-3.94-97.86-223.19-119.74-263.67C861.5,1599.74,983.82,1613.66,983.82,1613.66Z"/><path class="cls-43" d="M983.83,1613.66l-88,50.62s-34.62-42.52-57.55-59.88c-2.36-1.76-4.72-3.55-7.11-5.41q-5.07-3.84-10.15-7.84c-2.46-1.92-4.95-3.88-7.37-5.84-16.76-13.37-32.43-26.88-41.06-36.87-24.93-28.78,29.64-210.74,98.55-129.58C871.15,1418.86,963.52,1505.59,983.83,1613.66Z"/><path class="cls-43" d="M865.65,1397.28s-43.36,199.24-86.1,267c0,0-72.58-24.47-105.92-37.54,0,0-3.24-144,0-181.61C676.61,1410.05,865.65,1397.28,865.65,1397.28Z"/><path class="cls-44" d="M664.9,1467.15s18.28-179,3.14-262.33c-10.07-55.38,4.5-145.25,37.7-193.73a118.07,118.07,0,0,1,12.51-15.58s67,17.75,73.73,22.43c1,.66,8.21,7.08,17.38,18.32h0c19.07,23.39,47.23,65.73,50,106.83,2,29.91,3.63,57.37,5.5,85.7.56,8.62,1.15,17.32,1.77,26.2,1.5,21.32,3.22,43.64,5.36,68.25,1.19,13.69,10.42,57.12,16.49,97.17Z"/><path class="cls-45" d="M831.18,1599q-5.07-3.84-10.15-7.84c-2.46-1.92-4.95-3.88-7.37-5.84,3.52-11.22,22.64-62.4,30.14-98.94C843.8,1486.37,849.34,1543.29,831.18,1599Z"/><path class="cls-46" d="M866.62,1255s-39,59.29-45.92-87.12l44.15,60.92C865.41,1237.41,866,1246.11,866.62,1255Z"/><path class="cls-28" d="M718.25,995.5s7-38.72-1.16-61.24,66.7,37.94,66.7,37.94,0,3.14.12,7.82c.1,3.66.3,8.26.63,13.1.67,9.21,1.9,19.26,4.18,25C793.73,1030.81,718.25,995.5,718.25,995.5Z"/><path class="cls-28" d="M826.46,859.81s15.77,29.71,7.83,34.26c-6.57,3.76,7.44,32.91,9.27,37.67s-11.9,8.12-14.83,11.15-11.81,40.57-23.1,41.63-62-17-75.78-31.45-24.68-79.6-15.26-107S798.62,807.91,826.46,859.81Z"/><path class="cls-29" d="M829.61,866.25s16.51-31.87-12.94-55.78-84.32,17.35-90.49,18.89-42.71,13.21-24.37,67.58c16.64,49.32,18.78,54.88,18.78,54.88S730.7,919,737.13,914.44c10-7.2,32-5.31,32-5.31s-10.26-27.8,6.09-31.61S813.13,860,829.61,866.25Z"/><path class="cls-28" d="M751.8,893.14c-1.41-3.81-6-20.19-20-10.69s8.48,40.47,10.92,40.89S763.71,925.23,751.8,893.14Z"/><path class="cls-33" d="M784.54,993.12c-23.19-6.24-43.08-31.41-43.08-31.41C747.8,967.9,783.91,980,783.91,980,784,983.68,784.21,988.28,784.54,993.12Z"/><polygon class="cls-34" points="1043.47 1203.75 1005.71 1398.18 880.92 1373.94 913.81 1178.57 1043.47 1203.75"/><polygon class="cls-35" points="1034.11 1213.22 1000.57 1385.9 889.74 1364.37 918.95 1190.85 1034.11 1213.22"/><polygon class="cls-34" points="998.97 1210.85 1001.33 1198.73 956.52 1190.03 952.41 1201.81 998.97 1210.85"/><path class="cls-28" d="M1028.88,1340.24s-5.49,2.3-8.38,2.14c0,0-5.24-.71-9-1a26.32,26.32,0,0,0-2.91-.08c-2.82.16-9,1.37-15.84-.13s-34.88-15.59-34.88-15.59l3.32-17.3.8-16.64s40.82-13.88,47.39-13.22a17.64,17.64,0,0,1,1.86.29c5.51,1.09,9.15,4.22,12,5.12,1,.34,11.1,4.39,12.09,7.48,1.37,4.29.58,7.82-1.35,10.22,0,0,2.31,8.52-.11,13.94,0,0,2.39,7.79-2.55,13.67C1031.31,1329.15,1032.85,1337.33,1028.88,1340.24Z"/><path class="cls-28" d="M971.4,1287.82s-3.88,21.67-13.52,37.77c0,0-31.3-1.24-53-4.48-51.78-7.74-73.49-14.78-86.49-27-23.36-22-88.48-148.39-88.48-148.39l63-39.91L837.28,1205c4.83,9.78,13.68,24.33,20,37.3,8.33,17,45.48,31.52,62.07,36.12C919.39,1278.41,951.16,1287.82,971.4,1287.82Z"/><path class="cls-44" d="M824.38,1159.71,752.72,1197s-14.21-27.5-18.37-36.44c-11.94-25.63-30.4-64.37-7.18-80.74,50.09-35.32,71.63,23.29,83.93,55.43C814.9,1145.15,824.38,1159.71,824.38,1159.71Z"/><rect class="cls-47" x="1431.15" y="312.35" width="60.71" height="255.3"/><rect class="cls-48" x="1431.15" y="312.35" width="60.71" height="255.31" transform="translate(1901.51 -1021.51) rotate(90)"/><path class="cls-7" d="M595.79,530.35A144.86,144.86,0,1,0,471.88,792.24c2.94,1.39,5.92,2.68,8.91,3.86a144.86,144.86,0,0,0,115-265.75ZM632,707.74a108.49,108.49,0,0,1-137.95,54.62q-3.36-1.33-6.68-2.89A108.61,108.61,0,1,1,632,707.74Z"/><path class="cls-49" d="M437.63,711.72l-32.11,16.83a145.05,145.05,0,0,1,22.84-166.61l26.39,24.86a108.8,108.8,0,0,0-17.12,124.92Z"/><path class="cls-50" d="M494.06,762.36,480.79,796.1c-3-1.18-6-2.47-8.91-3.86a144.19,144.19,0,0,1-66.36-63.69l32.11-16.83a108.24,108.24,0,0,0,49.75,47.75Q490.69,761,494.06,762.36Z"/><path class="cls-50" d="M522.17,805.72a144.29,144.29,0,0,1-41.38-9.62l13.27-33.74a108.1,108.1,0,0,0,31,7.22Z"/><polygon class="cls-50" points="489.33 901.2 218.82 901.2 218.82 895.82 483.95 895.82 483.95 781.23 489.33 781.23 489.33 901.2"/><rect class="cls-7" x="218.82" y="839.87" width="142.39" height="32.26"/></g></g></svg>