<!-- <?xml version="1.0" standalone="no"?>
<!DOCTYPE svg PUBLIC "-//W3C//DTD SVG 20010904//EN"
 "http://www.w3.org/TR/2001/REC-SVG-20010904/DTD/svg10.dtd"> -->
<svg version="1.0" xmlns="http://www.w3.org/2000/svg"
 width="8000.000000pt" height="4955.000000pt" viewBox="0 0 8000.000000 4955.000000"
 preserveAspectRatio="xMidYMid meet">
<metadata>
Created by potrace 1.16, written by Peter Selinger 2001-2019
</metadata>
<g transform="translate(0.000000,4955.000000) scale(0.100000,-0.100000)"
fill="#000000" stroke="none">
<path d="M29246 37482 c-4 -6 -13 -9 -21 -5 -13 4 -15 -62 -16 -518 0 -288 -2
-615 -4 -726 -2 -120 0 -203 6 -203 5 0 9 289 10 723 1 397 5 709 9 692 l7
-30 4 30 c8 53 20 -1681 14 -1946 -3 -140 -2 -510 3 -824 7 -483 9 -314 10
1110 1 924 -2 1686 -7 1694 -6 9 -11 10 -15 3z"/>
<path d="M47502 34318 l3 -3173 5 2237 c4 1771 8 2240 18 2250 14 14 16 75 3
80 -6 2 -11 253 -13 641 -3 534 -1 637 11 637 11 0 13 19 9 95 l-4 95 33 0
c23 0 33 5 33 15 0 13 29 15 200 15 153 0 200 -3 200 -12 1 -23 49 -50 76 -44
23 6 35 36 14 36 -5 0 -10 7 -10 15 0 8 5 15 10 15 6 0 10 -7 10 -15 0 -8 6
-15 13 -15 7 0 21 -9 30 -21 10 -11 20 -19 23 -16 7 7 -7 37 -17 37 -8 0 -22
10 -63 45 -38 32 -84 44 -53 13 12 -11 8 -13 -27 -14 -23 0 -33 1 -23 4 10 2
17 13 17 26 0 29 -35 46 -98 47 -38 0 -43 2 -24 9 12 5 22 12 22 15 0 13 -45
22 -52 11 -4 -6 -8 1 -8 17 0 19 -5 27 -18 27 -10 0 -29 8 -42 17 -14 10 -26
16 -28 15 -1 -2 -47 10 -101 27 -55 17 -104 31 -110 31 -7 0 -16 -10 -22 -22
-9 -21 -9 -21 -4 5 3 15 1 27 -5 27 -7 0 -9 -1023 -8 -3172z"/>
<path d="M29155 37460 c-3 -5 -15 -10 -26 -10 -12 0 -17 -4 -13 -11 3 -6 18
-8 33 -5 l26 6 -25 -14 c-22 -13 -27 -13 -41 0 -14 12 -24 12 -80 -6 -104 -34
-323 -153 -377 -207 -7 -7 -21 -17 -30 -22 -9 -5 -13 -13 -9 -17 5 -5 11 -4
15 2 4 6 17 14 30 18 12 4 22 14 22 22 0 13 17 18 50 15 12 -2 13 0 1 8 -22
14 15 28 77 30 29 0 58 3 63 6 16 11 10 32 -13 43 -15 7 -18 11 -7 11 8 1 20
-4 27 -11 9 -9 15 -9 24 0 9 9 8 12 -5 12 -9 0 -17 5 -17 10 0 6 4 10 9 10 5
0 17 3 25 6 12 5 15 2 10 -9 -5 -14 -2 -14 20 -4 14 7 26 15 26 20 0 4 16 7
35 7 23 0 35 5 35 13 0 23 40 34 82 23 33 -9 40 -8 58 12 11 11 20 28 20 37 0
17 -35 21 -45 5z"/>
<path d="M44880 35051 c0 -5 106 -9 237 -9 182 -1 238 -4 244 -14 7 -10 9 -10
9 2 0 13 1 13 10 0 9 -13 10 -13 10 0 0 13 1 13 10 0 9 -13 10 -13 10 0 0 11
2 12 8 3 5 -8 43 -13 102 -16 52 -1 -53 -4 -234 -5 -345 -2 -431 -9 -163 -13
l157 -3 0 -288 0 -288 -82 -1 c-46 0 -101 -4 -123 -8 -50 -9 393 -24 580 -19
l130 3 3 333 2 332 -455 0 c-252 0 -455 -4 -455 -9z"/>
<path d="M43798 33633 c283 -2 442 -7 442 -13 0 -6 18 -10 40 -10 l40 0 0
-310 0 -310 -42 -2 c-73 -2 140 -16 275 -17 l127 -1 0 335 0 335 -662 -2
c-536 -2 -578 -3 -220 -5z"/>
<path d="M15450 32683 c-367 -414 -605 -954 -660 -1502 -45 -456 40 -954 235
-1369 47 -99 64 -117 90 -93 6 5 78 44 160 86 177 92 334 175 360 191 18 12
18 15 -12 80 -229 500 -252 1043 -66 1534 43 114 127 285 182 369 50 77 173
241 200 266 29 25 27 33 -21 78 -24 22 -106 98 -182 171 -209 197 -240 226
-247 226 -3 0 -20 -17 -39 -37z"/>
<path d="M44438 32203 l442 -3 0 -285 0 -285 -40 0 c-22 0 -40 -4 -40 -10 0
-6 31 -10 73 -11 39 0 95 -4 122 -9 l50 -7 -67 -2 c-37 0 -100 -5 -140 -10
-40 -6 -152 -12 -248 -15 -96 -3 -179 -7 -185 -8 -16 -4 876 -13 913 -9 l32 3
0 313 c0 172 -3 320 -6 329 -6 14 -73 16 -678 14 -531 -2 -579 -3 -228 -5z"/>
<path d="M55145 29076 c-230 -34 -412 -122 -566 -276 -200 -200 -316 -497
-348 -895 -10 -116 -7 -356 5 -444 l7 -53 186 185 c242 241 367 347 407 347 7
0 35 -35 62 -77 116 -178 336 -483 396 -547 6 -6 43 -49 83 -96 101 -120 302
-315 403 -390 106 -80 220 -192 220 -217 0 -10 -37 -67 -82 -127 -46 -59 -88
-116 -95 -125 -15 -21 -73 -452 -98 -732 l-7 -76 108 -36 c60 -19 141 -45 179
-56 39 -11 115 -33 170 -50 55 -16 136 -39 180 -51 183 -49 254 -88 355 -196
97 -104 178 -253 231 -424 13 -41 26 -79 30 -83 14 -17 32 138 25 223 -12 168
-64 316 -214 616 -192 382 -261 618 -249 844 8 127 20 174 103 395 73 195 107
320 125 455 18 131 18 752 1 880 -53 390 -181 623 -433 790 -153 101 -360 172
-599 205 -157 22 -470 28 -585 11z"/>
<path d="M30440 28705 l0 -295 1064 0 1063 0 23 63 c48 134 161 312 255 400
22 21 39 45 37 54 -2 9 1 12 8 8 6 -4 30 6 53 22 23 17 49 33 57 36 8 3 -564
6 -1272 6 l-1288 1 0 -295z"/>
<path d="M34340 28986 c54 -20 225 -110 240 -126 3 -3 34 -27 70 -52 110 -79
282 -274 305 -348 17 -52 -24 -50 840 -50 l806 0 -2 295 -1 295 -1147 -1
c-948 0 -1140 -3 -1111 -13z"/>
<path d="M37870 28705 l0 -295 511 0 511 0 -4 293 -3 292 -507 3 -508 2 0
-295z"/>
<path d="M21965 28336 c-145 -24 -286 -68 -450 -139 -76 -33 -266 -128 -330
-165 -17 -9 -82 -47 -145 -84 -63 -36 -144 -76 -180 -88 -347 -116 -535 -435
-490 -829 18 -163 43 -256 165 -620 131 -389 256 -755 260 -759 1 -1 12 28 25
65 77 232 192 503 242 575 10 14 10 22 1 37 -128 205 -177 405 -124 508 48 95
188 151 270 109 37 -20 86 -76 115 -134 39 -77 95 -266 109 -367 2 -19 10 -20
125 -20 104 -1 122 2 117 14 -31 81 -49 186 -50 286 0 98 3 115 25 159 33 64
72 92 161 117 41 11 158 52 260 90 359 134 467 154 665 123 l42 -6 21 58 c42
110 54 184 55 314 0 99 -5 141 -22 203 -71 249 -265 463 -486 533 -100 32
-261 40 -381 20z"/>
<path d="M52790 28300 c0 -6 -32 -10 -75 -10 -56 0 -77 -4 -81 -14 -4 -11 22
-131 31 -144 7 -9 64 35 60 46 -3 7 0 10 5 7 6 -4 44 15 86 41 65 41 74 49 60
59 -8 7 -13 15 -9 18 3 4 1 7 -4 7 -6 0 -14 -6 -16 -12 -4 -10 -6 -10 -6 0 -1
14 -51 17 -51 2z"/>
<path d="M49165 28159 c-94 -8 -188 -24 -270 -45 -137 -36 -172 -45 -190 -54
-11 -5 -31 -12 -45 -16 -14 -3 -49 -17 -78 -30 -29 -13 -56 -24 -60 -24 -4 0
-23 -8 -42 -19 -132 -71 -165 -92 -162 -101 1 -6 -3 -10 -10 -8 -14 2 -73 -27
-82 -40 -2 -4 7 -9 20 -10 17 -1 23 2 18 10 -5 7 0 9 14 6 12 -3 23 -1 25 6 3
6 8 7 13 2 5 -5 4 -11 -4 -13 -7 -3 -19 -12 -27 -20 -12 -12 -22 -13 -46 -4
-39 13 -42 12 -168 -94 -30 -25 -59 -45 -64 -45 -5 0 -6 -7 -3 -16 3 -8 2 -12
-4 -9 -5 3 -48 -33 -95 -81 -67 -69 -84 -92 -80 -108 5 -16 4 -18 -4 -6 -5 8
-12 12 -14 10 -37 -44 -107 -142 -107 -150 0 -5 -4 -10 -9 -10 -5 0 -22 -21
-37 -47 -16 -27 -34 -57 -41 -68 -35 -56 -151 -303 -157 -333 -1 -9 -8 -30
-14 -45 -7 -16 -12 -33 -12 -38 0 -13 26 13 33 32 2 8 3 2 1 -13 -3 -25 -2
-27 16 -16 11 7 20 20 20 30 0 24 16 31 17 8 1 -11 -2 -22 -8 -25 -5 -4 -9
-13 -9 -21 0 -10 12 -14 43 -14 24 0 48 -5 54 -11 7 -7 22 -8 47 -1 26 8 36 7
36 -1 0 -7 7 -4 14 6 15 19 36 23 36 5 0 -6 -7 -19 -16 -29 -9 -10 -13 -23 -9
-28 9 -15 42 -14 48 2 4 7 6 6 6 -4 1 -10 12 -19 29 -21 15 -3 36 -9 46 -13
17 -7 18 -5 13 18 -5 16 -3 27 5 29 7 3 13 15 13 29 0 19 6 25 28 27 20 3 27
9 27 26 0 12 6 23 13 23 9 0 12 -9 9 -24 -2 -12 -8 -23 -13 -23 -5 0 -9 -7 -9
-15 0 -13 -12 -19 -32 -16 -10 1 -30 -77 -25 -92 3 -7 10 0 16 16 6 15 16 27
23 26 10 0 10 -2 1 -6 -7 -2 -13 -14 -13 -24 0 -35 16 -12 35 51 10 33 21 60
25 60 4 0 13 21 20 48 8 26 16 49 20 52 3 3 24 37 45 75 21 39 42 71 47 73 4
2 6 16 3 30 -4 19 -3 22 3 9 7 -16 13 -11 42 30 19 26 42 57 52 67 10 11 18
25 18 30 -1 6 -14 -5 -30 -24 -19 -21 -30 -28 -30 -19 0 25 44 61 65 53 14 -6
16 -3 10 14 -4 13 -2 22 4 22 6 0 11 -5 11 -12 0 -9 3 -9 12 0 10 10 10 15 -2
23 -13 10 -13 10 0 6 9 -3 49 25 99 68 46 40 95 79 109 86 14 8 39 26 55 40
16 15 67 45 113 68 52 26 82 46 78 53 -4 7 -2 8 5 4 6 -4 53 9 104 28 138 54
320 93 435 95 l54 1 -7 217 c-3 120 -9 220 -12 223 -2 3 -53 5 -111 4 -101 -1
-103 -1 -32 6 l75 6 -65 4 c-58 3 -60 4 -20 7 25 2 72 0 103 -5 31 -5 57 -5
57 -1 0 4 -12 10 -27 12 l-28 4 28 2 c15 0 27 6 27 11 0 6 -6 9 -12 9 -7 -1
-53 -5 -103 -10z"/>
<path d="M42157 27642 c-138 -49 -237 -183 -237 -319 0 -138 79 -264 200 -322
l55 -26 1610 -3 c1573 -3 1715 -1 1715 27 0 4 16 13 34 19 37 14 126 104 126
128 0 8 4 14 9 14 13 0 41 111 41 165 0 81 -47 181 -117 247 -15 15 -55 39
-88 55 l-60 28 -1620 2 c-1508 2 -1623 1 -1668 -15z"/>
<path d="M55371 24817 c-6 -8 -37 -27 -68 -42 -32 -16 -59 -33 -61 -37 -2 -4
-8 -8 -14 -8 -6 0 -45 -16 -87 -36 -42 -20 -85 -39 -96 -44 -11 -4 -33 -13
-49 -19 -27 -11 -110 -36 -222 -66 -80 -22 -274 -45 -334 -40 -30 2 -65 4 -77
5 -12 0 -28 7 -37 15 -13 13 -19 3 -51 -97 -136 -422 -195 -765 -226 -1313 -6
-110 -12 -201 -13 -203 -2 -1 -40 -9 -86 -17 -46 -8 -84 -16 -86 -18 -1 -1 20
-128 48 -282 l51 -280 -37 -255 c-35 -247 -66 -451 -84 -556 l-9 -51 36 8 c20
5 110 9 200 9 l164 0 -7 43 c-3 23 -16 92 -27 152 -34 184 -79 425 -94 510
-35 194 -68 367 -84 450 -10 50 -17 92 -15 94 2 2 43 10 91 17 48 7 175 27
281 44 245 38 232 39 232 -6 l0 -37 38 7 c123 21 553 89 636 102 55 7 102 17
105 20 3 3 6 22 6 42 0 32 3 37 25 40 14 1 143 21 288 44 144 22 264 39 266
37 5 -5 10 -33 31 -174 8 -55 19 -122 24 -150 6 -27 17 -99 26 -160 9 -60 32
-202 50 -315 19 -113 41 -257 51 -320 9 -63 20 -118 23 -123 7 -7 98 20 105
32 4 6 -15 135 -89 600 -9 53 -25 157 -35 231 -11 74 -22 141 -25 150 -2 8
-16 92 -30 185 -14 94 -31 187 -36 208 -9 35 -12 37 -42 32 -18 -3 -115 -18
-217 -34 -102 -17 -285 -46 -407 -66 -123 -19 -250 -38 -284 -42 -60 -6 -60
-6 -55 18 3 13 13 89 21 169 53 497 153 1000 280 1415 15 50 30 98 32 108 6
20 -10 23 -26 4z"/>
<path d="M38565 23228 c-2 -7 -33 -188 -69 -403 -36 -214 -88 -523 -115 -685
-93 -550 -101 -595 -116 -690 -8 -52 -21 -131 -29 -175 -8 -44 -17 -98 -21
-120 -3 -22 -15 -94 -26 -160 -11 -66 -27 -158 -34 -205 -8 -47 -17 -101 -20
-120 -17 -93 -38 -217 -56 -330 -10 -69 -21 -132 -24 -140 -6 -20 -35 -219
-35 -240 0 -21 27 -28 250 -70 91 -17 255 -49 365 -70 110 -22 308 -60 440
-85 132 -25 294 -57 360 -70 66 -13 206 -40 310 -60 105 -20 231 -45 280 -55
50 -9 91 -16 93 -15 4 4 11 36 87 429 31 159 53 292 48 297 -4 4 -30 9 -57 11
l-50 3 -16 -85 c-9 -47 -32 -164 -50 -260 -18 -96 -38 -180 -44 -187 -8 -8
-38 -5 -121 12 -60 12 -186 36 -280 54 -93 17 -190 36 -215 42 -25 6 -79 17
-120 24 -41 7 -147 27 -235 44 -429 85 -824 161 -862 167 -50 8 -51 10 -28
144 49 287 87 513 95 565 5 33 14 87 20 120 14 79 48 284 60 360 5 33 23 141
40 240 17 99 58 340 91 535 33 195 76 447 95 560 55 327 66 394 66 413 -1 25
18 23 301 -32 139 -28 261 -51 272 -53 16 -3 20 -11 20 -43 l0 -40 65 -13 c36
-6 189 -36 340 -66 151 -30 296 -57 321 -61 l46 -7 7 36 c6 31 10 35 29 32 12
-3 60 -12 107 -20 216 -40 446 -88 451 -94 6 -6 -47 -304 -79 -448 -6 -27 -23
-112 -37 -189 -25 -138 -38 -201 -55 -280 -4 -22 -13 -65 -19 -95 -5 -30 -29
-151 -51 -268 -23 -117 -40 -220 -38 -229 2 -10 21 -20 51 -28 55 -14 60 -10
72 65 4 25 22 122 40 215 18 94 50 256 70 360 20 105 58 303 85 440 27 138 54
277 60 310 5 33 21 114 34 180 13 66 22 122 20 124 -2 2 -221 46 -486 98 -266
51 -584 113 -708 137 -124 25 -299 59 -390 76 -222 41 -367 69 -415 80 -145
33 -184 36 -190 18z"/>
<path d="M22630 21712 c0 -8 6 -28 14 -45 8 -18 23 -52 34 -77 17 -38 77 -173
171 -385 49 -112 143 -295 249 -485 85 -153 106 -193 155 -289 53 -105 162
-241 194 -241 8 0 11 5 8 11 -4 6 -9 41 -11 77 -2 37 -9 94 -14 127 -5 33 -12
100 -15 149 -6 86 -8 91 -49 145 -23 31 -61 83 -83 116 -23 33 -50 70 -62 82
-12 12 -21 25 -21 28 0 3 -20 33 -45 67 -25 35 -53 74 -63 87 -9 14 -26 36
-38 50 -11 14 -37 51 -58 81 -20 30 -49 71 -64 91 -15 20 -43 58 -62 85 -19
27 -40 55 -47 62 -8 8 -20 26 -27 40 -8 15 -23 36 -35 46 -12 11 -21 25 -21
31 0 7 -7 19 -16 26 -9 7 -34 40 -55 74 -21 33 -39 54 -39 47z"/>
<path d="M24304 21516 c-4 -11 -108 -620 -124 -726 -9 -59 -40 -240 -74 -440
-20 -115 -24 -125 -47 -131 l-24 -7 25 -2 c15 -1 19 -4 9 -7 -11 -2 -15 -12
-12 -27 3 -13 -5 -84 -17 -160 -12 -75 -20 -142 -17 -149 5 -14 105 -52 114
-43 3 3 10 27 14 53 184 1101 240 1427 244 1432 3 3 68 -7 143 -22 75 -15 209
-41 297 -58 203 -38 197 -36 190 -60 -3 -10 -7 -28 -10 -38 -5 -17 2 -21 47
-30 308 -61 774 -151 779 -151 4 0 10 16 13 35 4 19 10 36 14 39 4 2 50 -4
102 -15 52 -11 189 -38 305 -60 115 -22 211 -42 213 -43 1 -2 -11 -73 -27
-157 -39 -200 -113 -586 -157 -814 -18 -99 -38 -199 -44 -223 -16 -66 -14 -68
55 -96 68 -27 102 -34 75 -15 -10 7 -11 12 -4 15 6 3 9 15 7 28 -4 20 42 269
53 287 2 4 6 35 8 70 4 54 61 380 96 544 65 307 101 518 90 525 -7 4 -76 20
-154 35 -77 15 -195 38 -261 51 -66 13 -147 29 -180 34 -33 6 -89 17 -125 25
-36 8 -128 26 -205 40 -77 15 -171 33 -210 40 -104 21 -883 173 -1005 196 -58
11 -124 24 -148 28 -30 6 -45 5 -48 -3z"/>
<path d="M53816 21359 c-4 -23 -5 -43 -4 -44 2 -2 41 1 88 5 47 4 146 8 220 9
74 1 136 4 138 6 2 2 -32 6 -75 9 -112 9 -230 26 -287 42 -70 20 -73 19 -80
-27z"/>
<path d="M53796 21218 c-3 -18 -13 -73 -21 -122 -8 -49 -12 -92 -10 -97 3 -4
1 -9 -4 -11 -5 -1 -14 -43 -20 -93 -11 -92 -34 -246 -46 -300 -6 -29 -45 -279
-65 -415 -5 -36 -14 -90 -20 -120 -5 -30 -19 -111 -29 -180 -11 -69 -36 -226
-55 -350 -40 -255 -80 -515 -102 -670 -9 -58 -22 -134 -30 -170 -27 -125 -171
-1186 -234 -1725 -121 -1049 -170 -1760 -170 -2481 0 -233 -3 -424 -6 -424 -3
0 -31 25 -62 55 l-57 55 -7 -27 c-5 -16 -12 -100 -16 -187 -15 -271 11 -669
59 -911 31 -157 42 -678 35 -1615 -11 -1457 -49 -2481 -100 -2731 -7 -33 -9
-62 -5 -65 5 -2 120 -16 256 -31 144 -15 251 -30 255 -37 11 -16 10 -185 -2
-247 -18 -97 -145 -319 -342 -597 -204 -287 -358 -456 -450 -490 -153 -57
-342 -62 -397 -11 -31 29 -26 44 86 242 98 173 120 230 42 110 -60 -92 -219
-304 -287 -381 -30 -35 -90 -90 -132 -122 -79 -60 -126 -112 -148 -163 -29
-68 -2 -164 58 -207 64 -45 103 -50 434 -50 494 0 690 35 795 142 51 52 123
211 210 468 76 225 128 357 136 349 2 -2 -1 -119 -5 -259 -5 -140 -9 -308 -10
-372 l0 -118 38 0 38 0 27 218 c45 362 116 882 131 967 36 193 6 349 -93 472
-22 29 -41 54 -41 55 0 2 35 0 78 -4 118 -10 392 -9 434 2 43 12 37 -35 73
500 14 201 29 426 35 500 29 386 92 1479 109 1900 27 634 25 781 -14 1165 -67
645 -85 968 -67 1213 16 225 40 327 182 772 33 102 82 259 110 350 28 91 64
203 80 250 16 47 47 146 70 220 23 74 73 232 111 350 38 119 69 221 69 228 0
6 5 12 10 12 6 0 10 -6 10 -12 0 -7 7 -56 15 -108 73 -468 147 -1149 160
-1477 8 -192 19 -292 56 -488 62 -329 164 -688 243 -857 20 -43 86 -173 147
-290 116 -222 136 -261 304 -573 56 -104 160 -298 230 -430 70 -132 144 -271
165 -310 132 -245 440 -826 510 -960 46 -88 95 -182 110 -210 36 -65 381 -755
410 -820 65 -143 83 -184 105 -240 13 -33 27 -72 31 -88 3 -15 9 -29 13 -31 6
-4 297 225 578 455 99 81 134 105 142 96 29 -36 73 -175 78 -246 15 -223 -129
-939 -234 -1158 -51 -107 -171 -206 -309 -253 -73 -26 -109 -25 -135 1 -18 18
-20 29 -15 67 13 97 37 363 34 374 -2 6 -12 -34 -22 -88 -27 -148 -82 -375
-112 -462 -15 -42 -48 -118 -75 -168 -57 -107 -76 -181 -60 -239 22 -82 91
-129 186 -129 51 0 86 11 235 73 473 195 722 346 787 479 26 53 28 68 31 197
3 80 -3 219 -12 320 -21 242 -29 395 -19 395 4 0 69 -154 143 -341 74 -187
139 -343 143 -346 10 -6 67 16 67 27 0 7 -137 487 -233 815 -31 105 -68 241
-83 304 -48 207 -150 363 -275 421 -32 16 -48 28 -45 37 3 8 -55 152 -130 321
-75 169 -152 343 -171 387 -19 44 -50 114 -68 155 -18 41 -44 102 -58 135 -14
33 -46 110 -72 170 -152 358 -244 593 -315 810 -23 72 -69 207 -102 300 -292
832 -454 1207 -734 1696 -148 259 -159 293 -176 544 -6 94 -12 171 -13 173 -1
1 -49 -19 -106 -44 -124 -55 -469 -204 -473 -204 -2 0 -6 98 -9 218 -11 342
-65 1063 -182 2427 -16 190 -64 758 -95 1122 -27 331 -69 819 -80 933 -24 265
-62 781 -57 793 3 9 38 19 94 27 48 7 108 16 133 20 25 4 122 19 215 34 94 15
177 28 185 31 8 2 62 11 120 20 104 15 204 31 390 61 52 8 135 21 183 28 49 8
91 16 94 19 2 3 -12 106 -31 229 -20 122 -48 297 -62 388 -40 255 -83 502 -87
506 -5 5 -96 -12 -103 -19 -5 -5 12 -126 62 -437 7 -47 20 -128 28 -180 9 -52
24 -147 34 -211 l18 -116 -60 -12 c-34 -6 -95 -16 -136 -21 -41 -6 -113 -17
-160 -25 -176 -30 -462 -76 -655 -105 -110 -16 -225 -35 -255 -40 -30 -6 -143
-24 -250 -40 -107 -17 -235 -37 -284 -46 -49 -8 -92 -12 -96 -7 -4 4 -19 76
-34 158 -14 83 -42 236 -62 340 -57 308 -60 323 -89 488 l-28 157 -81 2 c-45
0 -88 0 -96 0 -36 -4 -188 21 -204 34 -44 31 31 56 219 74 l90 8 -140 0 c-218
1 -285 11 -285 42 0 11 8 23 18 29 22 11 251 41 322 41 30 0 62 5 70 10 10 7
-15 10 -79 10 -51 0 -123 5 -160 10 -36 6 -91 15 -121 20 -30 4 -63 11 -72 15
-13 5 -18 0 -22 -27z"/>
<path d="M35129 19530 c-65 -37 -341 -107 -529 -134 -258 -38 -611 -60 -816
-51 -68 3 -124 2 -125 -2 0 -5 -2 -15 -3 -23 -2 -8 -6 -55 -10 -105 -8 -112
-51 -648 -71 -895 -9 -102 -20 -231 -26 -287 l-10 -103 40 -37 c50 -48 55 -69
86 -339 51 -440 125 -810 245 -1219 22 -77 49 -169 60 -205 65 -222 235 -691
368 -1015 120 -294 152 -364 278 -610 116 -227 274 -557 314 -655 10 -25 35
-83 55 -130 163 -383 288 -782 350 -1117 24 -128 34 -230 55 -553 13 -209 77
-549 156 -840 89 -327 205 -719 264 -895 228 -676 281 -831 358 -1040 228
-620 306 -809 355 -862 13 -14 43 -27 79 -35 46 -10 57 -15 53 -28 -33 -85
-37 -148 -36 -570 l1 -425 45 -3 45 -3 0 178 c0 99 4 171 9 163 4 -8 16 -55
25 -105 86 -450 160 -671 264 -786 52 -58 111 -91 214 -119 249 -67 589 -76
774 -19 118 36 120 85 13 288 -57 110 -276 452 -297 464 -5 4 12 -36 39 -89
72 -140 68 -155 -47 -179 -154 -33 -367 -10 -470 50 -153 90 -294 431 -368
895 -14 85 -30 181 -36 213 -6 31 -9 61 -6 66 3 4 36 11 73 14 116 11 428 78
445 95 6 6 6 24 -1 48 -27 103 -358 1605 -376 1709 -8 44 -21 112 -30 150 -9
39 -29 133 -45 210 -16 77 -41 194 -55 260 -14 66 -30 145 -36 175 -6 30 -25
132 -44 225 -63 318 -75 390 -80 465 -2 41 -12 116 -21 165 -19 104 -172 790
-249 1120 -101 436 -167 793 -185 1010 -13 157 -98 967 -106 1012 l-6 33 -118
-105 c-64 -58 -122 -105 -127 -105 -6 0 -13 19 -17 43 -7 53 -23 151 -80 502
-51 316 -88 553 -146 930 -22 143 -44 285 -50 315 -5 30 -26 165 -45 300 -20
135 -38 252 -40 260 -2 8 -18 110 -35 225 -121 831 -167 1151 -214 1500 -20
143 -40 292 -45 330 -6 39 -15 113 -22 165 -14 110 -18 122 -40 110z"/>
<path d="M23876 18964 c-6 -21 -154 -903 -158 -948 l-3 -29 170 -33 c331 -64
1003 -195 1250 -244 138 -27 369 -72 515 -100 146 -28 277 -53 291 -56 30 -7
30 -6 79 251 12 61 48 248 81 417 32 169 59 316 59 328 0 18 -6 20 -60 20 -33
0 -60 -1 -60 -3 0 -2 -9 -44 -20 -94 -11 -51 -24 -120 -29 -155 -6 -35 -25
-137 -44 -228 -19 -91 -40 -200 -48 -242 -13 -77 -14 -78 -42 -78 -16 0 -46 4
-66 10 -20 5 -110 24 -201 41 -91 17 -277 53 -415 79 -137 27 -369 72 -515
100 -885 171 -796 150 -792 186 2 16 28 175 58 354 74 432 72 420 64 425 -3 2
-29 7 -57 11 -44 5 -52 4 -57 -12z"/>
<path d="M23550 17080 c-19 -4 -69 -15 -110 -25 -41 -9 -88 -19 -105 -21 -52
-8 -229 -45 -260 -54 -16 -5 -61 -14 -100 -21 -38 -6 -79 -15 -90 -19 -11 -5
-38 -11 -60 -15 -69 -10 -193 -37 -302 -65 -21 -5 -69 -14 -108 -21 -38 -6
-106 -19 -150 -29 -44 -10 -93 -21 -110 -25 -16 -3 -61 -12 -100 -20 -38 -7
-135 -28 -215 -45 -80 -17 -199 -42 -265 -56 -66 -14 -138 -30 -160 -35 -45
-10 -130 -26 -190 -35 -22 -3 -49 -9 -60 -14 -11 -5 -38 -11 -60 -15 -140 -24
-318 -60 -530 -109 -60 -14 -124 -26 -142 -26 -17 0 -35 -4 -38 -10 -3 -5 -21
-10 -40 -10 -19 0 -36 -4 -39 -9 -3 -5 -29 -11 -58 -14 -29 -3 -73 -11 -98
-17 -25 -5 -72 -15 -105 -20 -33 -6 -68 -12 -78 -13 -10 -2 -22 -9 -27 -17 -6
-10 -9 -8 -12 6 -21 94 -20 -1493 2 -2531 l8 -400 -21 -18 c-12 -9 -88 -74
-169 -144 -125 -108 -145 -129 -135 -143 10 -13 10 -13 -3 -3 -13 10 -25 3
-68 -39 -28 -27 -49 -54 -46 -59 3 -5 -1 -7 -8 -4 -19 7 -143 -119 -133 -136
6 -8 4 -10 -5 -4 -8 5 -31 -13 -69 -53 -31 -33 -90 -96 -131 -139 -136 -145
-205 -226 -204 -240 1 -7 -2 -10 -7 -8 -5 3 -25 -13 -46 -37 -21 -24 -68 -74
-105 -113 -38 -38 -68 -76 -68 -83 0 -7 -4 -11 -8 -8 -10 6 -72 -60 -72 -76 0
-5 -4 -7 -9 -4 -5 4 -11 2 -13 -3 -1 -5 -122 -131 -268 -279 -146 -148 -382
-389 -525 -537 -494 -511 -530 -548 -588 -603 -33 -32 -55 -62 -52 -70 2 -7 0
-10 -5 -7 -5 3 -63 -49 -127 -116 -65 -67 -170 -176 -233 -242 -63 -66 -114
-125 -114 -132 1 -8 -4 -11 -11 -9 -6 3 -29 -14 -49 -38 -21 -24 -88 -95 -149
-159 -167 -172 -302 -320 -302 -329 0 -4 47 -43 105 -86 58 -43 107 -80 110
-83 3 -4 24 -19 48 -35 23 -16 42 -32 42 -36 0 -4 10 -12 23 -18 12 -5 33 -19
47 -30 14 -12 54 -42 90 -69 36 -26 72 -53 80 -60 8 -7 60 -45 115 -86 93 -69
102 -73 125 -62 25 13 783 518 973 648 54 37 102 67 106 67 5 0 11 4 13 8 3 8
149 110 288 202 102 68 165 113 168 122 2 4 8 8 13 8 5 0 44 25 87 55 170 122
304 215 308 215 2 0 12 7 21 14 10 8 106 77 213 154 267 190 335 242 332 254
-1 5 2 7 7 4 8 -5 156 100 367 259 27 20 60 45 74 55 14 10 66 49 116 87 50
37 104 77 119 88 88 64 375 291 555 440 54 44 115 94 136 110 21 17 60 50 87
75 27 25 63 55 80 67 17 13 33 26 36 31 3 4 20 18 36 31 17 12 66 56 110 96
44 41 89 82 101 92 112 97 164 149 159 161 -3 7 0 10 6 6 14 -9 81 57 74 74
-3 7 0 10 6 6 11 -6 71 51 171 166 31 36 69 79 83 95 84 96 182 256 221 360
10 28 21 52 24 55 6 5 31 64 100 240 52 132 119 301 130 325 13 28 79 207 131
353 24 67 48 122 54 122 5 0 26 -15 46 -33 36 -32 176 -139 349 -268 194 -143
470 -408 718 -688 31 -35 82 -91 112 -123 30 -33 64 -73 75 -89 11 -16 26 -27
33 -24 7 3 10 0 7 -5 -4 -6 16 -37 44 -69 38 -44 68 -96 117 -207 36 -82 76
-171 89 -199 13 -27 30 -66 38 -85 8 -19 33 -75 55 -125 22 -49 45 -107 53
-127 7 -21 17 -38 21 -38 4 0 8 -6 8 -13 0 -10 91 -229 155 -372 7 -16 43
-102 80 -190 36 -88 75 -176 85 -195 10 -19 28 -60 40 -90 12 -30 30 -73 40
-95 10 -22 42 -96 70 -165 29 -69 60 -141 70 -160 10 -19 46 -102 80 -185 34
-82 73 -173 85 -201 13 -27 33 -75 45 -105 12 -30 27 -63 34 -74 7 -11 21 -42
31 -70 10 -27 31 -79 48 -115 16 -36 38 -85 49 -110 11 -25 31 -68 44 -97 13
-28 24 -54 24 -56 0 -3 16 -40 36 -84 56 -122 64 -141 64 -147 0 -3 15 -38 34
-78 18 -40 61 -136 96 -213 123 -277 293 -620 355 -716 l46 -71 52 7 c126 17
467 80 642 120 105 24 108 24 140 30 17 4 66 17 111 31 l80 24 -36 113 c-20
61 -47 148 -60 192 -12 44 -28 100 -36 125 -7 25 -29 106 -49 180 -20 74 -45
164 -55 200 -18 58 -90 324 -141 518 -10 39 -28 107 -40 150 -39 148 -81 308
-109 417 -15 61 -35 135 -43 165 -39 140 -58 210 -72 270 -9 36 -22 88 -30
115 -15 54 -132 507 -145 565 -15 64 -81 315 -87 330 -3 8 -7 22 -9 30 -6 28
-132 514 -222 855 -81 303 -102 383 -133 505 -53 207 -58 224 -75 305 -22 106
-72 308 -91 370 -72 237 -224 645 -273 733 -5 9 -41 85 -80 167 -39 83 -76
152 -81 153 -5 2 -9 11 -9 20 0 10 -18 48 -40 86 -22 37 -40 70 -40 72 0 2
-13 25 -29 52 -15 26 -39 68 -53 93 -113 199 -341 540 -546 814 -38 51 -191
244 -205 260 -11 11 -40 47 -65 80 -26 33 -51 65 -57 70 -7 6 -59 64 -117 130
-142 161 -261 285 -273 284 -6 -1 -26 -5 -45 -9z"/>
<path d="M31774 15009 c54 -610 66 -942 86 -2254 15 -961 44 -1599 120 -2665
26 -365 33 -457 56 -745 26 -331 58 -619 76 -699 9 -41 16 -50 44 -62 l34 -14
-35 -48 c-19 -26 -48 -83 -65 -126 -57 -141 -60 -171 -60 -629 l0 -418 48 3
47 3 2 155 c1 85 3 166 3 180 1 14 21 -67 45 -180 94 -448 150 -605 261 -729
36 -40 115 -77 225 -105 150 -38 250 -50 439 -49 234 0 349 24 391 83 16 21
17 32 8 69 -13 58 -67 174 -131 280 -74 124 -258 404 -263 399 -2 -2 23 -55
55 -118 33 -63 59 -125 60 -136 0 -43 -118 -74 -279 -74 -143 1 -275 40 -341
102 -153 141 -307 574 -329 923 -7 99 2 344 13 380 1 5 65 10 147 11 79 1 180
7 224 13 136 20 223 36 229 42 6 6 18 395 31 989 3 140 8 300 10 355 3 55 12
309 20 565 8 256 19 573 25 705 5 132 12 308 16 390 3 83 10 193 15 245 5 52
14 480 19 950 9 863 16 1027 49 1200 31 156 61 366 61 425 0 3 -15 12 -32 20
-18 7 -186 88 -372 179 -186 91 -340 166 -342 166 -2 0 -132 63 -289 139 -156
77 -294 143 -306 146 -22 7 -22 6 -15 -66z"/>
<path d="M16060 9192 c-196 -122 -456 -337 -678 -562 -104 -105 -192 -214
-192 -239 0 -22 57 -106 120 -175 29 -31 143 -141 254 -244 283 -263 309 -287
415 -388 114 -107 233 -226 359 -357 117 -123 186 -180 304 -253 115 -71 243
-125 379 -160 145 -38 320 -40 427 -5 59 19 80 32 112 68 89 101 60 226 -122
530 -50 82 -208 314 -245 358 -28 34 -248 342 -285 400 -97 150 -142 278 -160
452 -12 112 -14 119 -42 143 -67 56 -395 336 -454 388 -69 60 -108 92 -114 92
-1 0 -37 -22 -78 -48z"/>
<path d="M26885 8293 c-90 -21 -507 -120 -613 -146 -85 -20 -137 -37 -142 -47
-21 -39 -33 -231 -27 -435 13 -400 62 -723 121 -792 20 -23 33 -27 104 -32
161 -12 414 10 972 85 184 25 436 58 560 75 124 16 275 43 337 59 292 78 569
255 728 466 133 177 162 332 77 426 -44 49 -88 72 -188 97 -141 36 -241 42
-708 41 -478 -2 -499 0 -696 50 -108 27 -275 81 -387 126 -87 34 -99 36 -138
27z"/>
</g>
</svg>
