<svg xmlns="http://www.w3.org/2000/svg" xmlns:xlink="http://www.w3.org/1999/xlink" viewBox="0 0 432 288"><defs><style>.cls-1{isolation:isolate;}.cls-2{mix-blend-mode:color-burn;fill:url(#radial-gradient);}.cls-3{fill:#fff;}</style><radialGradient id="radial-gradient" cx="314.65" cy="252.57" r="391.61" gradientUnits="userSpaceOnUse"><stop offset="0.35" stop-color="#e7f6ff"/><stop offset="0.42" stop-color="#def2ff"/><stop offset="0.52" stop-color="#c7e7ff"/><stop offset="0.65" stop-color="#a1d5ff"/><stop offset="0.8" stop-color="#6cbcff"/><stop offset="0.96" stop-color="#299cff"/><stop offset="1" stop-color="#1794ff"/></radialGradient></defs><g class="cls-1"><g id="Layer_1" data-name="Layer 1"><path class="cls-2" d="M12.87,288h.28V276.57H26.88V288h.27V276.57H40.88V288h.28V276.57H54.89V288h.27V276.57H68.89V288h.28V276.57H82.89V288h.28V276.57H96.9V288h.27V276.57H110.9V288h.28V276.57h13.73V288h.27V276.57h13.73V288h.28V276.57h13.73V288h.27V276.57h13.73V288h.28V276.57h13.72V288h.28V276.57h13.73V288h.27V276.57h13.73V288h.28V276.57h13.73V288h.27V276.57h13.73V288h.28V276.57H251V288h.27V276.57H265V288h.28V276.57H279V288h.28V276.57H293V288h.27V276.57H307V288h.28V276.57H321V288h.27V276.57H335V288h.28V276.57H349V288h.27V276.57H363V288h.28V276.57H377V288h.28V276.57H391V288h.27V276.57H405V288h.28V276.57H419V288h.27V276.57H432v-.25H419.27V264H432v-.25H419.27V251.37H432v-.25H419.27V238.77H432v-.26H419.27V226.16H432v-.25H419.27V213.56H432v-.25H419.27V201H432v-.25H419.27V188.36H432v-.25H419.27V175.76H432v-.25H419.27V163.16H432v-.26H419.27V150.56H432v-.26H419.27V138H432v-.25H419.27V125.35H432v-.25H419.27V112.75H432v-.25H419.27V100.15H432V99.9H419.27V87.55H432v-.26H419.27V75H432v-.26H419.27V62.34H432v-.25H419.27V49.74H432v-.25H419.27V37.14H432v-.25H419.27V24.54H432v-.25H419.27V11.94H432v-.25H419.27V0H419V11.69H405.27V0H405V11.69H391.26V0H391V11.69H377.26V0H377V11.69H363.26V0H363V11.69H349.25V0H349V11.69H335.25V0H335V11.69H321.24V0H321V11.69H307.24V0H307V11.69H293.23V0H293V11.69H279.23V0H279V11.69H265.23V0H265V11.69H251.22V0H251V11.69H237.22V0h-.28V11.69H223.21V0h-.27V11.69H209.21V0h-.28V11.69H195.2V0h-.27V11.69H181.2V0h-.28V11.69H167.2V0h-.28V11.69H153.19V0h-.27V11.69H139.19V0h-.28V11.69H125.18V0h-.27V11.69H111.18V0h-.28V11.69H97.17V0H96.9V11.69H83.17V0h-.28V11.69H69.17V0h-.28V11.69H55.16V0h-.27V11.69H41.16V0h-.28V11.69H27.15V0h-.27V11.69H13.15V0h-.28V11.69H0v.25H12.87V24.29H0v.25H12.87V36.89H0v.25H12.87V49.49H0v.25H12.87V62.09H0v.25H12.87V74.69H0V75H12.87V87.29H0v.26H12.87V99.9H0v.25H12.87V112.5H0v.25H12.87V125.1H0v.25H12.87V137.7H0V138H12.87V150.3H0v.26H12.87V162.9H0v.26H12.87v12.35H0v.25H12.87v12.35H0v.25H12.87v12.35H0V201H12.87v12.35H0v.25H12.87v12.35H0v.25H12.87v12.35H0v.26H12.87v12.35H0v.25H12.87v12.35H0V264H12.87v12.35H0v.25H12.87ZM405.27,11.94H419V24.29H405.27Zm0,12.6H419V36.89H405.27Zm0,12.6H419V49.49H405.27Zm0,12.6H419V62.09H405.27Zm0,12.6H419V74.69H405.27Zm0,12.61H419V87.29H405.27Zm0,12.6H419V99.9H405.27Zm0,12.6H419V112.5H405.27Zm0,12.6H419V125.1H405.27Zm0,12.6H419V137.7H405.27Zm0,12.6H419V150.3H405.27Zm0,12.61H419V162.9H405.27Zm0,12.6H419v12.35H405.27Zm0,12.6H419v12.35H405.27Zm0,12.6H419v12.35H405.27Zm0,12.6H419v12.35H405.27Zm0,12.6H419v12.35H405.27Zm0,12.6H419v12.35H405.27Zm0,12.61H419v12.35H405.27Zm0,12.6H419v12.35H405.27Zm0,12.6H419v12.35H405.27Zm-14-252H405V24.29H391.26Zm0,12.6H405V36.89H391.26Zm0,12.6H405V49.49H391.26Zm0,12.6H405V62.09H391.26Zm0,12.6H405V74.69H391.26Zm0,12.61H405V87.29H391.26Zm0,12.6H405V99.9H391.26Zm0,12.6H405V112.5H391.26Zm0,12.6H405V125.1H391.26Zm0,12.6H405V137.7H391.26Zm0,12.6H405V150.3H391.26Zm0,12.61H405V162.9H391.26Zm0,12.6H405v12.35H391.26Zm0,12.6H405v12.35H391.26Zm0,12.6H405v12.35H391.26Zm0,12.6H405v12.35H391.26Zm0,12.6H405v12.35H391.26Zm0,12.6H405v12.35H391.26Zm0,12.61H405v12.35H391.26Zm0,12.6H405v12.35H391.26Zm0,12.6H405v12.35H391.26Zm-14-252H391V24.29H377.26Zm0,12.6H391V36.89H377.26Zm0,12.6H391V49.49H377.26Zm0,12.6H391V62.09H377.26Zm0,12.6H391V74.69H377.26Zm0,12.61H391V87.29H377.26Zm0,12.6H391V99.9H377.26Zm0,12.6H391V112.5H377.26Zm0,12.6H391V125.1H377.26Zm0,12.6H391V137.7H377.26Zm0,12.6H391V150.3H377.26Zm0,12.61H391V162.9H377.26Zm0,12.6H391v12.35H377.26Zm0,12.6H391v12.35H377.26Zm0,12.6H391v12.35H377.26Zm0,12.6H391v12.35H377.26Zm0,12.6H391v12.35H377.26Zm0,12.6H391v12.35H377.26Zm0,12.61H391v12.35H377.26Zm0,12.6H391v12.35H377.26Zm0,12.6H391v12.35H377.26Zm-14-252H377V24.29H363.26Zm0,12.6H377V36.89H363.26Zm0,12.6H377V49.49H363.26Zm0,12.6H377V62.09H363.26Zm0,12.6H377V74.69H363.26Zm0,12.61H377V87.29H363.26Zm0,12.6H377V99.9H363.26Zm0,12.6H377V112.5H363.26Zm0,12.6H377V125.1H363.26Zm0,12.6H377V137.7H363.26Zm0,12.6H377V150.3H363.26Zm0,12.61H377V162.9H363.26Zm0,12.6H377v12.35H363.26Zm0,12.6H377v12.35H363.26Zm0,12.6H377v12.35H363.26Zm0,12.6H377v12.35H363.26Zm0,12.6H377v12.35H363.26Zm0,12.6H377v12.35H363.26Zm0,12.61H377v12.35H363.26Zm0,12.6H377v12.35H363.26Zm0,12.6H377v12.35H363.26Zm-14-252H363V24.29H349.25Zm0,12.6H363V36.89H349.25Zm0,12.6H363V49.49H349.25Zm0,12.6H363V62.09H349.25Zm0,12.6H363V74.69H349.25Zm0,12.61H363V87.29H349.25Zm0,12.6H363V99.9H349.25Zm0,12.6H363V112.5H349.25Zm0,12.6H363V125.1H349.25Zm0,12.6H363V137.7H349.25Zm0,12.6H363V150.3H349.25Zm0,12.61H363V162.9H349.25Zm0,12.6H363v12.35H349.25Zm0,12.6H363v12.35H349.25Zm0,12.6H363v12.35H349.25Zm0,12.6H363v12.35H349.25Zm0,12.6H363v12.35H349.25Zm0,12.6H363v12.35H349.25Zm0,12.61H363v12.35H349.25Zm0,12.6H363v12.35H349.25Zm0,12.6H363v12.35H349.25Zm-14-252H349V24.29H335.25Zm0,12.6H349V36.89H335.25Zm0,12.6H349V49.49H335.25Zm0,12.6H349V62.09H335.25Zm0,12.6H349V74.69H335.25Zm0,12.61H349V87.29H335.25Zm0,12.6H349V99.9H335.25Zm0,12.6H349V112.5H335.25Zm0,12.6H349V125.1H335.25Zm0,12.6H349V137.7H335.25Zm0,12.6H349V150.3H335.25Zm0,12.61H349V162.9H335.25Zm0,12.6H349v12.35H335.25Zm0,12.6H349v12.35H335.25Zm0,12.6H349v12.35H335.25Zm0,12.6H349v12.35H335.25Zm0,12.6H349v12.35H335.25Zm0,12.6H349v12.35H335.25Zm0,12.61H349v12.35H335.25Zm0,12.6H349v12.35H335.25Zm0,12.6H349v12.35H335.25Zm-14-252H335V24.29H321.24Zm0,12.6H335V36.89H321.24Zm0,12.6H335V49.49H321.24Zm0,12.6H335V62.09H321.24Zm0,12.6H335V74.69H321.24Zm0,12.61H335V87.29H321.24Zm0,12.6H335V99.9H321.24Zm0,12.6H335V112.5H321.24Zm0,12.6H335V125.1H321.24Zm0,12.6H335V137.7H321.24Zm0,12.6H335V150.3H321.24Zm0,12.61H335V162.9H321.24Zm0,12.6H335v12.35H321.24Zm0,12.6H335v12.35H321.24Zm0,12.6H335v12.35H321.24Zm0,12.6H335v12.35H321.24Zm0,12.6H335v12.35H321.24Zm0,12.6H335v12.35H321.24Zm0,12.61H335v12.35H321.24Zm0,12.6H335v12.35H321.24Zm0,12.6H335v12.35H321.24Zm-14-252H321V24.29H307.24Zm0,12.6H321V36.89H307.24Zm0,12.6H321V49.49H307.24Zm0,12.6H321V62.09H307.24Zm0,12.6H321V74.69H307.24Zm0,12.61H321V87.29H307.24Zm0,12.6H321V99.9H307.24Zm0,12.6H321V112.5H307.24Zm0,12.6H321V125.1H307.24Zm0,12.6H321V137.7H307.24Zm0,12.6H321V150.3H307.24Zm0,12.61H321V162.9H307.24Zm0,12.6H321v12.35H307.24Zm0,12.6H321v12.35H307.24Zm0,12.6H321v12.35H307.24Zm0,12.6H321v12.35H307.24Zm0,12.6H321v12.35H307.24Zm0,12.6H321v12.35H307.24Zm0,12.61H321v12.35H307.24Zm0,12.6H321v12.35H307.24Zm0,12.6H321v12.35H307.24Zm-14-252H307V24.29H293.23Zm0,12.6H307V36.89H293.23Zm0,12.6H307V49.49H293.23Zm0,12.6H307V62.09H293.23Zm0,12.6H307V74.69H293.23Zm0,12.61H307V87.29H293.23Zm0,12.6H307V99.9H293.23Zm0,12.6H307V112.5H293.23Zm0,12.6H307V125.1H293.23Zm0,12.6H307V137.7H293.23Zm0,12.6H307V150.3H293.23Zm0,12.61H307V162.9H293.23Zm0,12.6H307v12.35H293.23Zm0,12.6H307v12.35H293.23Zm0,12.6H307v12.35H293.23Zm0,12.6H307v12.35H293.23Zm0,12.6H307v12.35H293.23Zm0,12.6H307v12.35H293.23Zm0,12.61H307v12.35H293.23Zm0,12.6H307v12.35H293.23Zm0,12.6H307v12.35H293.23Zm-14-252H293V24.29H279.23Zm0,12.6H293V36.89H279.23Zm0,12.6H293V49.49H279.23Zm0,12.6H293V62.09H279.23Zm0,12.6H293V74.69H279.23Zm0,12.61H293V87.29H279.23Zm0,12.6H293V99.9H279.23Zm0,12.6H293V112.5H279.23Zm0,12.6H293V125.1H279.23Zm0,12.6H293V137.7H279.23Zm0,12.6H293V150.3H279.23Zm0,12.61H293V162.9H279.23Zm0,12.6H293v12.35H279.23Zm0,12.6H293v12.35H279.23Zm0,12.6H293v12.35H279.23Zm0,12.6H293v12.35H279.23Zm0,12.6H293v12.35H279.23Zm0,12.6H293v12.35H279.23Zm0,12.61H293v12.35H279.23Zm0,12.6H293v12.35H279.23Zm0,12.6H293v12.35H279.23Zm-14-252H279V24.29H265.23Zm0,12.6H279V36.89H265.23Zm0,12.6H279V49.49H265.23Zm0,12.6H279V62.09H265.23Zm0,12.6H279V74.69H265.23Zm0,12.61H279V87.29H265.23Zm0,12.6H279V99.9H265.23Zm0,12.6H279V112.5H265.23Zm0,12.6H279V125.1H265.23Zm0,12.6H279V137.7H265.23Zm0,12.6H279V150.3H265.23Zm0,12.61H279V162.9H265.23Zm0,12.6H279v12.35H265.23Zm0,12.6H279v12.35H265.23Zm0,12.6H279v12.35H265.23Zm0,12.6H279v12.35H265.23Zm0,12.6H279v12.35H265.23Zm0,12.6H279v12.35H265.23Zm0,12.61H279v12.35H265.23Zm0,12.6H279v12.35H265.23Zm0,12.6H279v12.35H265.23Zm-14-252H265V24.29H251.22Zm0,12.6H265V36.89H251.22Zm0,12.6H265V49.49H251.22Zm0,12.6H265V62.09H251.22Zm0,12.6H265V74.69H251.22Zm0,12.61H265V87.29H251.22Zm0,12.6H265V99.9H251.22Zm0,12.6H265V112.5H251.22Zm0,12.6H265V125.1H251.22Zm0,12.6H265V137.7H251.22Zm0,12.6H265V150.3H251.22Zm0,12.61H265V162.9H251.22Zm0,12.6H265v12.35H251.22Zm0,12.6H265v12.35H251.22Zm0,12.6H265v12.35H251.22Zm0,12.6H265v12.35H251.22Zm0,12.6H265v12.35H251.22Zm0,12.6H265v12.35H251.22Zm0,12.61H265v12.35H251.22Zm0,12.6H265v12.35H251.22Zm0,12.6H265v12.35H251.22Zm-14-252H251V24.29H237.22Zm0,12.6H251V36.89H237.22Zm0,12.6H251V49.49H237.22Zm0,12.6H251V62.09H237.22Zm0,12.6H251V74.69H237.22Zm0,12.61H251V87.29H237.22Zm0,12.6H251V99.9H237.22Zm0,12.6H251V112.5H237.22Zm0,12.6H251V125.1H237.22Zm0,12.6H251V137.7H237.22Zm0,12.6H251V150.3H237.22Zm0,12.61H251V162.9H237.22Zm0,12.6H251v12.35H237.22Zm0,12.6H251v12.35H237.22Zm0,12.6H251v12.35H237.22Zm0,12.6H251v12.35H237.22Zm0,12.6H251v12.35H237.22Zm0,12.6H251v12.35H237.22Zm0,12.61H251v12.35H237.22Zm0,12.6H251v12.35H237.22Zm0,12.6H251v12.35H237.22Zm-14-252h13.73V24.29H223.21Zm0,12.6h13.73V36.89H223.21Zm0,12.6h13.73V49.49H223.21Zm0,12.6h13.73V62.09H223.21Zm0,12.6h13.73V74.69H223.21Zm0,12.61h13.73V87.29H223.21Zm0,12.6h13.73V99.9H223.21Zm0,12.6h13.73V112.5H223.21Zm0,12.6h13.73V125.1H223.21Zm0,12.6h13.73V137.7H223.21Zm0,12.6h13.73V150.3H223.21Zm0,12.61h13.73V162.9H223.21Zm0,12.6h13.73v12.35H223.21Zm0,12.6h13.73v12.35H223.21Zm0,12.6h13.73v12.35H223.21Zm0,12.6h13.73v12.35H223.21Zm0,12.6h13.73v12.35H223.21Zm0,12.6h13.73v12.35H223.21Zm0,12.61h13.73v12.35H223.21Zm0,12.6h13.73v12.35H223.21Zm0,12.6h13.73v12.35H223.21Zm-14-252h13.73V24.29H209.21Zm0,12.6h13.73V36.89H209.21Zm0,12.6h13.73V49.49H209.21Zm0,12.6h13.73V62.09H209.21Zm0,12.6h13.73V74.69H209.21Zm0,12.61h13.73V87.29H209.21Zm0,12.6h13.73V99.9H209.21Zm0,12.6h13.73V112.5H209.21Zm0,12.6h13.73V125.1H209.21Zm0,12.6h13.73V137.7H209.21Zm0,12.6h13.73V150.3H209.21Zm0,12.61h13.73V162.9H209.21Zm0,12.6h13.73v12.35H209.21Zm0,12.6h13.73v12.35H209.21Zm0,12.6h13.73v12.35H209.21Zm0,12.6h13.73v12.35H209.21Zm0,12.6h13.73v12.35H209.21Zm0,12.6h13.73v12.35H209.21Zm0,12.61h13.73v12.35H209.21Zm0,12.6h13.73v12.35H209.21Zm0,12.6h13.73v12.35H209.21Zm-14-252h13.73V24.29H195.2Zm0,12.6h13.73V36.89H195.2Zm0,12.6h13.73V49.49H195.2Zm0,12.6h13.73V62.09H195.2Zm0,12.6h13.73V74.69H195.2Zm0,12.61h13.73V87.29H195.2Zm0,12.6h13.73V99.9H195.2Zm0,12.6h13.73V112.5H195.2Zm0,12.6h13.73V125.1H195.2Zm0,12.6h13.73V137.7H195.2Zm0,12.6h13.73V150.3H195.2Zm0,12.61h13.73V162.9H195.2Zm0,12.6h13.73v12.35H195.2Zm0,12.6h13.73v12.35H195.2Zm0,12.6h13.73v12.35H195.2Zm0,12.6h13.73v12.35H195.2Zm0,12.6h13.73v12.35H195.2Zm0,12.6h13.73v12.35H195.2Zm0,12.61h13.73v12.35H195.2Zm0,12.6h13.73v12.35H195.2Zm0,12.6h13.73v12.35H195.2Zm-14-252h13.73V24.29H181.2Zm0,12.6h13.73V36.89H181.2Zm0,12.6h13.73V49.49H181.2Zm0,12.6h13.73V62.09H181.2Zm0,12.6h13.73V74.69H181.2Zm0,12.61h13.73V87.29H181.2Zm0,12.6h13.73V99.9H181.2Zm0,12.6h13.73V112.5H181.2Zm0,12.6h13.73V125.1H181.2Zm0,12.6h13.73V137.7H181.2Zm0,12.6h13.73V150.3H181.2Zm0,12.61h13.73V162.9H181.2Zm0,12.6h13.73v12.35H181.2Zm0,12.6h13.73v12.35H181.2Zm0,12.6h13.73v12.35H181.2Zm0,12.6h13.73v12.35H181.2Zm0,12.6h13.73v12.35H181.2Zm0,12.6h13.73v12.35H181.2Zm0,12.61h13.73v12.35H181.2Zm0,12.6h13.73v12.35H181.2Zm0,12.6h13.73v12.35H181.2Zm-14-252h13.72V24.29H167.2Zm0,12.6h13.72V36.89H167.2Zm0,12.6h13.72V49.49H167.2Zm0,12.6h13.72V62.09H167.2Zm0,12.6h13.72V74.69H167.2Zm0,12.61h13.72V87.29H167.2Zm0,12.6h13.72V99.9H167.2Zm0,12.6h13.72V112.5H167.2Zm0,12.6h13.72V125.1H167.2Zm0,12.6h13.72V137.7H167.2Zm0,12.6h13.72V150.3H167.2Zm0,12.61h13.72V162.9H167.2Zm0,12.6h13.72v12.35H167.2Zm0,12.6h13.72v12.35H167.2Zm0,12.6h13.72v12.35H167.2Zm0,12.6h13.72v12.35H167.2Zm0,12.6h13.72v12.35H167.2Zm0,12.6h13.72v12.35H167.2Zm0,12.61h13.72v12.35H167.2Zm0,12.6h13.72v12.35H167.2Zm0,12.6h13.72v12.35H167.2Zm-14-252h13.73V24.29H153.19Zm0,12.6h13.73V36.89H153.19Zm0,12.6h13.73V49.49H153.19Zm0,12.6h13.73V62.09H153.19Zm0,12.6h13.73V74.69H153.19Zm0,12.61h13.73V87.29H153.19Zm0,12.6h13.73V99.9H153.19Zm0,12.6h13.73V112.5H153.19Zm0,12.6h13.73V125.1H153.19Zm0,12.6h13.73V137.7H153.19Zm0,12.6h13.73V150.3H153.19Zm0,12.61h13.73V162.9H153.19Zm0,12.6h13.73v12.35H153.19Zm0,12.6h13.73v12.35H153.19Zm0,12.6h13.73v12.35H153.19Zm0,12.6h13.73v12.35H153.19Zm0,12.6h13.73v12.35H153.19Zm0,12.6h13.73v12.35H153.19Zm0,12.61h13.73v12.35H153.19Zm0,12.6h13.73v12.35H153.19Zm0,12.6h13.73v12.35H153.19Zm-14-252h13.73V24.29H139.19Zm0,12.6h13.73V36.89H139.19Zm0,12.6h13.73V49.49H139.19Zm0,12.6h13.73V62.09H139.19Zm0,12.6h13.73V74.69H139.19Zm0,12.61h13.73V87.29H139.19Zm0,12.6h13.73V99.9H139.19Zm0,12.6h13.73V112.5H139.19Zm0,12.6h13.73V125.1H139.19Zm0,12.6h13.73V137.7H139.19Zm0,12.6h13.73V150.3H139.19Zm0,12.61h13.73V162.9H139.19Zm0,12.6h13.73v12.35H139.19Zm0,12.6h13.73v12.35H139.19Zm0,12.6h13.73v12.35H139.19Zm0,12.6h13.73v12.35H139.19Zm0,12.6h13.73v12.35H139.19Zm0,12.6h13.73v12.35H139.19Zm0,12.61h13.73v12.35H139.19Zm0,12.6h13.73v12.35H139.19Zm0,12.6h13.73v12.35H139.19Zm-14-252h13.73V24.29H125.18Zm0,12.6h13.73V36.89H125.18Zm0,12.6h13.73V49.49H125.18Zm0,12.6h13.73V62.09H125.18Zm0,12.6h13.73V74.69H125.18Zm0,12.61h13.73V87.29H125.18Zm0,12.6h13.73V99.9H125.18Zm0,12.6h13.73V112.5H125.18Zm0,12.6h13.73V125.1H125.18Zm0,12.6h13.73V137.7H125.18Zm0,12.6h13.73V150.3H125.18Zm0,12.61h13.73V162.9H125.18Zm0,12.6h13.73v12.35H125.18Zm0,12.6h13.73v12.35H125.18Zm0,12.6h13.73v12.35H125.18Zm0,12.6h13.73v12.35H125.18Zm0,12.6h13.73v12.35H125.18Zm0,12.6h13.73v12.35H125.18Zm0,12.61h13.73v12.35H125.18Zm0,12.6h13.73v12.35H125.18Zm0,12.6h13.73v12.35H125.18Zm-14-252h13.73V24.29H111.18Zm0,12.6h13.73V36.89H111.18Zm0,12.6h13.73V49.49H111.18Zm0,12.6h13.73V62.09H111.18Zm0,12.6h13.73V74.69H111.18Zm0,12.61h13.73V87.29H111.18Zm0,12.6h13.73V99.9H111.18Zm0,12.6h13.73V112.5H111.18Zm0,12.6h13.73V125.1H111.18Zm0,12.6h13.73V137.7H111.18Zm0,12.6h13.73V150.3H111.18Zm0,12.61h13.73V162.9H111.18Zm0,12.6h13.73v12.35H111.18Zm0,12.6h13.73v12.35H111.18Zm0,12.6h13.73v12.35H111.18Zm0,12.6h13.73v12.35H111.18Zm0,12.6h13.73v12.35H111.18Zm0,12.6h13.73v12.35H111.18Zm0,12.61h13.73v12.35H111.18Zm0,12.6h13.73v12.35H111.18Zm0,12.6h13.73v12.35H111.18Zm-14-252H110.9V24.29H97.17Zm0,12.6H110.9V36.89H97.17Zm0,12.6H110.9V49.49H97.17Zm0,12.6H110.9V62.09H97.17Zm0,12.6H110.9V74.69H97.17Zm0,12.61H110.9V87.29H97.17Zm0,12.6H110.9V99.9H97.17Zm0,12.6H110.9V112.5H97.17Zm0,12.6H110.9V125.1H97.17Zm0,12.6H110.9V137.7H97.17Zm0,12.6H110.9V150.3H97.17Zm0,12.61H110.9V162.9H97.17Zm0,12.6H110.9v12.35H97.17Zm0,12.6H110.9v12.35H97.17Zm0,12.6H110.9v12.35H97.17Zm0,12.6H110.9v12.35H97.17Zm0,12.6H110.9v12.35H97.17Zm0,12.6H110.9v12.35H97.17Zm0,12.61H110.9v12.35H97.17Zm0,12.6H110.9v12.35H97.17Zm0,12.6H110.9v12.35H97.17Zm-14-252H96.9V24.29H83.17Zm0,12.6H96.9V36.89H83.17Zm0,12.6H96.9V49.49H83.17Zm0,12.6H96.9V62.09H83.17Zm0,12.6H96.9V74.69H83.17Zm0,12.61H96.9V87.29H83.17Zm0,12.6H96.9V99.9H83.17Zm0,12.6H96.9V112.5H83.17Zm0,12.6H96.9V125.1H83.17Zm0,12.6H96.9V137.7H83.17Zm0,12.6H96.9V150.3H83.17Zm0,12.61H96.9V162.9H83.17Zm0,12.6H96.9v12.35H83.17Zm0,12.6H96.9v12.35H83.17Zm0,12.6H96.9v12.35H83.17Zm0,12.6H96.9v12.35H83.17Zm0,12.6H96.9v12.35H83.17Zm0,12.6H96.9v12.35H83.17Zm0,12.61H96.9v12.35H83.17Zm0,12.6H96.9v12.35H83.17Zm0,12.6H96.9v12.35H83.17Zm-14-252H82.89V24.29H69.17Zm0,12.6H82.89V36.89H69.17Zm0,12.6H82.89V49.49H69.17Zm0,12.6H82.89V62.09H69.17Zm0,12.6H82.89V74.69H69.17Zm0,12.61H82.89V87.29H69.17Zm0,12.6H82.89V99.9H69.17Zm0,12.6H82.89V112.5H69.17Zm0,12.6H82.89V125.1H69.17Zm0,12.6H82.89V137.7H69.17Zm0,12.6H82.89V150.3H69.17Zm0,12.61H82.89V162.9H69.17Zm0,12.6H82.89v12.35H69.17Zm0,12.6H82.89v12.35H69.17Zm0,12.6H82.89v12.35H69.17Zm0,12.6H82.89v12.35H69.17Zm0,12.6H82.89v12.35H69.17Zm0,12.6H82.89v12.35H69.17Zm0,12.61H82.89v12.35H69.17Zm0,12.6H82.89v12.35H69.17Zm0,12.6H82.89v12.35H69.17Zm-14-252H68.89V24.29H55.16Zm0,12.6H68.89V36.89H55.16Zm0,12.6H68.89V49.49H55.16Zm0,12.6H68.89V62.09H55.16Zm0,12.6H68.89V74.69H55.16Zm0,12.61H68.89V87.29H55.16Zm0,12.6H68.89V99.9H55.16Zm0,12.6H68.89V112.5H55.16Zm0,12.6H68.89V125.1H55.16Zm0,12.6H68.89V137.7H55.16Zm0,12.6H68.89V150.3H55.16Zm0,12.61H68.89V162.9H55.16Zm0,12.6H68.89v12.35H55.16Zm0,12.6H68.89v12.35H55.16Zm0,12.6H68.89v12.35H55.16Zm0,12.6H68.89v12.35H55.16Zm0,12.6H68.89v12.35H55.16Zm0,12.6H68.89v12.35H55.16Zm0,12.61H68.89v12.35H55.16Zm0,12.6H68.89v12.35H55.16Zm0,12.6H68.89v12.35H55.16Zm-14-252H54.89V24.29H41.16Zm0,12.6H54.89V36.89H41.16Zm0,12.6H54.89V49.49H41.16Zm0,12.6H54.89V62.09H41.16Zm0,12.6H54.89V74.69H41.16Zm0,12.61H54.89V87.29H41.16Zm0,12.6H54.89V99.9H41.16Zm0,12.6H54.89V112.5H41.16Zm0,12.6H54.89V125.1H41.16Zm0,12.6H54.89V137.7H41.16Zm0,12.6H54.89V150.3H41.16Zm0,12.61H54.89V162.9H41.16Zm0,12.6H54.89v12.35H41.16Zm0,12.6H54.89v12.35H41.16Zm0,12.6H54.89v12.35H41.16Zm0,12.6H54.89v12.35H41.16Zm0,12.6H54.89v12.35H41.16Zm0,12.6H54.89v12.35H41.16Zm0,12.61H54.89v12.35H41.16Zm0,12.6H54.89v12.35H41.16Zm0,12.6H54.89v12.35H41.16Zm-14-252H40.88V24.29H27.15Zm0,12.6H40.88V36.89H27.15Zm0,12.6H40.88V49.49H27.15Zm0,12.6H40.88V62.09H27.15Zm0,12.6H40.88V74.69H27.15Zm0,12.61H40.88V87.29H27.15Zm0,12.6H40.88V99.9H27.15Zm0,12.6H40.88V112.5H27.15Zm0,12.6H40.88V125.1H27.15Zm0,12.6H40.88V137.7H27.15Zm0,12.6H40.88V150.3H27.15Zm0,12.61H40.88V162.9H27.15Zm0,12.6H40.88v12.35H27.15Zm0,12.6H40.88v12.35H27.15Zm0,12.6H40.88v12.35H27.15Zm0,12.6H40.88v12.35H27.15Zm0,12.6H40.88v12.35H27.15Zm0,12.6H40.88v12.35H27.15Zm0,12.61H40.88v12.35H27.15Zm0,12.6H40.88v12.35H27.15Zm0,12.6H40.88v12.35H27.15Zm-14-252H26.88V24.29H13.15Zm0,12.6H26.88V36.89H13.15Zm0,12.6H26.88V49.49H13.15Zm0,12.6H26.88V62.09H13.15Zm0,12.6H26.88V74.69H13.15Zm0,12.61H26.88V87.29H13.15Zm0,12.6H26.88V99.9H13.15Zm0,12.6H26.88V112.5H13.15Zm0,12.6H26.88V125.1H13.15Zm0,12.6H26.88V137.7H13.15Zm0,12.6H26.88V150.3H13.15Zm0,12.61H26.88V162.9H13.15Zm0,12.6H26.88v12.35H13.15Zm0,12.6H26.88v12.35H13.15Zm0,12.6H26.88v12.35H13.15Zm0,12.6H26.88v12.35H13.15Zm0,12.6H26.88v12.35H13.15Zm0,12.6H26.88v12.35H13.15Zm0,12.61H26.88v12.35H13.15Zm0,12.6H26.88v12.35H13.15Zm0,12.6H26.88v12.35H13.15Z"/><path class="cls-3" d="M58.05,240.35,60.87,227h3.36v22.76h-3l.32-14.9-2.29,10.78H56.88L54.6,234.83l.31,14.9h-3V227h3.36Z"/><path class="cls-3" d="M68,249.73V227h7.54v2.76h-4.5v6.91h4v2.76h-4V247h4.5v2.76Z"/><path class="cls-3" d="M78.71,249.73V227H84q4.27,0,4.28,4.38v15.08q0,3.3-3.64,3.3Zm3-2.76H84c.81,0,1.21-.34,1.21-1V231.38c0-1.1-.46-1.65-1.36-1.65H81.75Z"/><path class="cls-3" d="M91.92,249.73V227h3v22.76Z"/><path class="cls-3" d="M107.86,244.4v1.46q0,3.87-3.64,3.87h-2q-3.65,0-3.64-3.87v-15q0-3.87,3.64-3.87h2q3.65,0,3.64,3.87v2.57h-3v-2.35a1.19,1.19,0,0,0-1.36-1.33h-.6c-.81,0-1.21.45-1.21,1.33v14.58c0,.89.4,1.33,1.21,1.33h.76c.8,0,1.2-.44,1.2-1.33V244.4Z"/><path class="cls-3" d="M114.07,249.73h-3V230.87c0-2.6,1.22-3.9,3.64-3.9H117q3.65,0,3.64,3.9v18.86h-3v-8.34h-3.49Zm3.49-11.09v-7.58a1.18,1.18,0,0,0-1.33-1.33h-.83a1.18,1.18,0,0,0-1.33,1.33v7.58Z"/><path class="cls-3" d="M131.47,249.73h-7.23V227h3.05v20h4.18Z"/><path class="cls-3" d="M49.82,258.6H47.6v-5.08h2a2.65,2.65,0,0,1,.89.13A1.21,1.21,0,0,1,51,254a1.31,1.31,0,0,1,.34.89,1,1,0,0,1-.38.88l-.18.13-.18.08a1.35,1.35,0,0,1,.75.43,1.2,1.2,0,0,1,.28.8,1.37,1.37,0,0,1-.37.94A1.89,1.89,0,0,1,49.82,258.6Zm-1.09-3h.54a1.79,1.79,0,0,0,.7-.11.42.42,0,0,0,.23-.43.46.46,0,0,0-.22-.45,1.68,1.68,0,0,0-.71-.11h-.54Zm0,2.06h.78a1.75,1.75,0,0,0,.73-.12.48.48,0,0,0,.24-.47.47.47,0,0,0-.26-.47,2.33,2.33,0,0,0-.82-.11h-.67Z"/><path class="cls-3" d="M59.86,258.6l-.47-1.1H57.26l-.47,1.1H55.58l2.2-5.08h1.09l2.19,5.08ZM58.33,255l-.64,1.48H59Z"/><path class="cls-3" d="M67.69,257.6a1.65,1.65,0,0,0,1.36-.67l.73.75a2.72,2.72,0,0,1-4,.23,2.47,2.47,0,0,1-.76-1.86,2.54,2.54,0,0,1,.77-1.89,2.63,2.63,0,0,1,1.9-.75,2.66,2.66,0,0,1,2.09,1l-.71.8a1.63,1.63,0,0,0-1.33-.67,1.58,1.58,0,0,0-1.1.42,1.44,1.44,0,0,0-.45,1.12,1.54,1.54,0,0,0,.43,1.14A1.43,1.43,0,0,0,67.69,257.6Z"/><path class="cls-3" d="M74.37,253.52h1.14v2.09l1.91-2.09h1.4l-2,2.25,1,1.35,1,1.48H77.5l-1.49-2-.5.57v1.44H74.37Z"/><path class="cls-3" d="M86.53,256h1.14v1.8a2.68,2.68,0,0,1-2.09.85,2.57,2.57,0,0,1-1.88-.75,2.47,2.47,0,0,1-.76-1.86,2.54,2.54,0,0,1,.77-1.89,2.6,2.6,0,0,1,1.87-.75,2.8,2.8,0,0,1,1.9.71l-.59.85a2.67,2.67,0,0,0-.63-.41,1.75,1.75,0,0,0-.62-.11,1.51,1.51,0,0,0-1.09.44,1.58,1.58,0,0,0-.44,1.16,1.55,1.55,0,0,0,.43,1.15,1.35,1.35,0,0,0,1,.43,2,2,0,0,0,1-.22Z"/><path class="cls-3" d="M96.5,255.21a1.48,1.48,0,0,1-1,1.57l1.29,1.82h-1.4L94.3,257h-.79v1.62H92.38v-5.08H94.3a2.79,2.79,0,0,1,1.69.4A1.55,1.55,0,0,1,96.5,255.21Zm-1.37.6a.78.78,0,0,0,.21-.6.63.63,0,0,0-.22-.56,1.36,1.36,0,0,0-.76-.16h-.85V256h.83A1.24,1.24,0,0,0,95.13,255.81Z"/><path class="cls-3" d="M105.58,257.9a2.77,2.77,0,0,1-3.79,0,2.66,2.66,0,0,1,0-3.74,2.77,2.77,0,0,1,3.79,0,2.66,2.66,0,0,1,0,3.74ZM105.2,256a1.68,1.68,0,0,0-.44-1.16,1.43,1.43,0,0,0-2.14,0,1.68,1.68,0,0,0-.44,1.16,1.63,1.63,0,0,0,.44,1.15,1.43,1.43,0,0,0,2.14,0A1.63,1.63,0,0,0,105.2,256Z"/><path class="cls-3" d="M112.35,257.29a1,1,0,0,0,.77.35.94.94,0,0,0,.76-.35,1.57,1.57,0,0,0,.28-1v-2.8h1.13v2.84a2.29,2.29,0,0,1-.61,1.7,2.18,2.18,0,0,1-1.56.59,2.15,2.15,0,0,1-1.57-.6,2.23,2.23,0,0,1-.61-1.69v-2.84h1.13v2.8A1.57,1.57,0,0,0,112.35,257.29Z"/><path class="cls-3" d="M123.72,253.52h1.13v5.08h-1.13l-2.42-3.18v3.18h-1.13v-5.08h1.06l2.49,3.27Z"/><path class="cls-3" d="M133.68,254.19a2.39,2.39,0,0,1,.73,1.84,2.52,2.52,0,0,1-.71,1.88,3,3,0,0,1-2.16.69H129.8v-5.08h1.8A2.94,2.94,0,0,1,133.68,254.19Zm-.83,3a1.48,1.48,0,0,0,.42-1.14,1.52,1.52,0,0,0-.42-1.15,1.79,1.79,0,0,0-1.28-.4h-.63v3.09h.71A1.7,1.7,0,0,0,132.85,257.2Z"/></g></g></svg>