<svg xmlns="http://www.w3.org/2000/svg" xmlns:xlink="http://www.w3.org/1999/xlink" viewBox="0 0 1920 1080"><defs><style>.cls-1{isolation:isolate;}.cls-2{fill:#f3f3f3;}.cls-3{fill:#fff;}.cls-4{fill:url(#linear-gradient);}.cls-5{fill:url(#linear-gradient-2);}.cls-6{fill:url(#linear-gradient-3);}.cls-7{fill:#e0e0e0;}.cls-8{fill:url(#linear-gradient-4);}.cls-9{fill:url(#linear-gradient-5);}.cls-10{fill:url(#linear-gradient-6);}.cls-11{fill:url(#linear-gradient-7);}.cls-12{fill:url(#linear-gradient-8);}.cls-13,.cls-19{fill:#f5f5f5;}.cls-14{fill:url(#linear-gradient-9);}.cls-15{fill:url(#linear-gradient-10);}.cls-16{fill:url(#linear-gradient-11);}.cls-17{fill:url(#linear-gradient-12);}.cls-18{fill:#4e7ed6;}.cls-19{mix-blend-mode:hard-light;}.cls-20{fill:#537ffd;}.cls-21{fill:#4ba6f3;}.cls-22{fill:#46bbed;}.cls-23{fill:#b3b7c4;}.cls-24{fill:#eea987;}.cls-25{fill:#fccca2;}.cls-26{fill:#dbdff0;}.cls-27{fill:#1d3b54;}.cls-28{fill:#eea886;}.cls-29{fill:#3b3b40;}.cls-30{fill:#e8734d;}.cls-31{fill:#d6c5be;}.cls-32{fill:#fae6de;}.cls-33{fill:#a77860;}.cls-34{fill:#616161;}.cls-35{fill:#e0cec7;}.cls-36{fill:#db9c7c;}.cls-37{fill:url(#linear-gradient-13);}.cls-38{fill:url(#linear-gradient-14);}.cls-39{fill:#2d2d30;}.cls-40{fill:#2d3133;}.cls-41{fill:#e55353;}.cls-42{fill:#353a3d;}.cls-43{fill:#248c9e;}.cls-44{fill:#2aa3b8;}.cls-45{fill:#196370;}.cls-46{fill:#1d6f7d;}.cls-47{fill:url(#linear-gradient-15);}.cls-48{fill:url(#linear-gradient-16);}.cls-49{fill:#2d5bad;}.cls-50{fill:#5d96ff;}</style><linearGradient id="linear-gradient" x1="2301.09" y1="-9721.89" x2="2573.76" y2="-9721.89" gradientTransform="translate(-8901.08 789.09) rotate(73.11)" gradientUnits="userSpaceOnUse"><stop offset="0" stop-color="#40d5e6"/><stop offset="1" stop-color="#57f"/></linearGradient><linearGradient id="linear-gradient-2" x1="2269.91" y1="-9888.91" x2="2731.5" y2="-9888.91" xlink:href="#linear-gradient"/><linearGradient id="linear-gradient-3" x1="2467.85" y1="-9908.87" x2="2676.76" y2="-9908.87" xlink:href="#linear-gradient"/><linearGradient id="linear-gradient-4" x1="292.1" y1="715.8" x2="292.1" y2="553.5" gradientUnits="userSpaceOnUse"><stop offset="0" stop-color="#ff9f55"/><stop offset="1" stop-color="#ffd255"/></linearGradient><linearGradient id="linear-gradient-5" x1="332.11" y1="715.8" x2="332.11" y2="553.5" xlink:href="#linear-gradient-4"/><linearGradient id="linear-gradient-6" x1="372.11" y1="715.8" x2="372.11" y2="553.5" xlink:href="#linear-gradient-4"/><linearGradient id="linear-gradient-7" x1="412.11" y1="715.8" x2="412.11" y2="553.5" xlink:href="#linear-gradient-4"/><linearGradient id="linear-gradient-8" x1="934.55" y1="1253.09" x2="955.1" y2="85.55" gradientTransform="translate(1892.84 1157.82) rotate(-180)" xlink:href="#linear-gradient"/><linearGradient id="linear-gradient-9" x1="1004.56" y1="268.97" x2="1157.69" y2="268.97" gradientTransform="matrix(1, 0, 0, 1, 0, 0)" xlink:href="#linear-gradient"/><linearGradient id="linear-gradient-10" x1="1004.56" y1="350.16" x2="1145.13" y2="350.16" gradientTransform="matrix(1, 0, 0, 1, 0, 0)" xlink:href="#linear-gradient"/><linearGradient id="linear-gradient-11" x1="1004.56" y1="309.56" x2="1126.18" y2="309.56" gradientTransform="matrix(1, 0, 0, 1, 0, 0)" xlink:href="#linear-gradient"/><linearGradient id="linear-gradient-12" x1="840.27" y1="427.2" x2="840.27" y2="259.05" gradientUnits="userSpaceOnUse"><stop offset="0" stop-color="#7db3e0"/><stop offset="1" stop-color="#fff"/></linearGradient><linearGradient id="linear-gradient-13" x1="371.83" y1="867.71" x2="365.66" y2="619.83" xlink:href="#linear-gradient-4"/><linearGradient id="linear-gradient-14" x1="341.71" y1="868.46" x2="335.54" y2="620.58" xlink:href="#linear-gradient-4"/><linearGradient id="linear-gradient-15" x1="834.69" y1="177.45" x2="848.06" y2="382.13" gradientTransform="matrix(1, 0, 0, 1, 0, 0)" xlink:href="#linear-gradient"/><linearGradient id="linear-gradient-16" x1="834.69" y1="177.45" x2="848.06" y2="382.13" gradientTransform="translate(577.39 1103.15) rotate(-90)" xlink:href="#linear-gradient"/></defs><g class="cls-1"><g id="Layer_1" data-name="Layer 1"><rect class="cls-2" x="924.41" y="402.04" width="4.72" height="494.7"/><rect class="cls-3" x="926.77" y="341.08" width="50.83" height="12.89"/><rect class="cls-3" x="926.77" y="364.91" width="40.67" height="12.89"/><rect class="cls-3" x="929.12" y="926.04" width="53.34" height="17.19"/><path class="cls-4" d="M1121.81,151.14s125.45,148.75,45.87,245.07-101.48,1.87-101.48,1.87-47.62,8.85,34.87-111.63C1140,229.67,1121.81,151.14,1121.81,151.14Z"/><path class="cls-5" d="M1396.78,35.08s93.19,137.55-69.07,296-150.2,253-150.2,253S1011.62,259.3,1396.78,35.08Z"/><path class="cls-6" d="M1147.23,524.28c-68.08,6.14,10.91-177.93,117.26-226s196.33-44,258.51-94.68C1523,203.62,1482.44,494,1147.23,524.28Z"/><rect class="cls-7" x="475.89" y="402.04" width="4.72" height="494.7"/><rect class="cls-2" x="791.15" y="402.04" width="4.72" height="494.7"/><rect class="cls-2" x="1126.41" y="402.04" width="4.72" height="494.7"/><rect class="cls-7" x="478.24" y="341.08" width="80.3" height="12.89"/><rect class="cls-7" x="478.24" y="364.91" width="113.91" height="12.89"/><rect class="cls-3" x="789.89" y="341.08" width="94.28" height="12.89"/><rect class="cls-3" x="789.89" y="364.91" width="60.28" height="12.89"/><rect class="cls-3" x="1131.13" y="341.08" width="58.42" height="12.89"/><rect class="cls-3" x="1131.13" y="364.91" width="68.09" height="12.89"/><rect class="cls-3" x="1466.39" y="341.08" width="85.1" height="12.89"/><rect class="cls-3" x="1466.39" y="364.91" width="68.09" height="12.89"/><rect class="cls-3" x="793.51" y="926.04" width="53.34" height="17.19"/><rect class="cls-3" x="1131.13" y="926.04" width="53.34" height="17.19"/><rect class="cls-7" x="284.05" y="586.07" width="16.11" height="69.56"/><rect class="cls-7" x="324.05" y="557.81" width="16.11" height="97.83"/><rect class="cls-7" x="364.06" y="543.06" width="16.11" height="112.57"/><rect class="cls-7" x="404.06" y="536.92" width="16.11" height="118.71"/><rect class="cls-8" x="284.05" y="611.99" width="16.11" height="43.64"/><rect class="cls-9" x="324.05" y="594.26" width="16.11" height="61.37"/><rect class="cls-10" x="364.06" y="585.01" width="16.11" height="70.62"/><rect class="cls-11" x="404.06" y="581.15" width="16.11" height="74.48"/><rect class="cls-12" x="651.9" y="189.25" width="589.04" height="779.32" rx="59.95" transform="translate(1892.84 1157.82) rotate(180)"/><path class="cls-13" d="M727,97.12h479.07a0,0,0,0,1,0,0V929.27a0,0,0,0,1,0,0H686.75a0,0,0,0,1,0,0V137.37A40.25,40.25,0,0,1,727,97.12Z"/><rect class="cls-14" x="1004.56" y="259.29" width="153.13" height="19.37"/><rect class="cls-15" x="1004.56" y="340.47" width="140.56" height="19.37"/><rect class="cls-16" x="1004.56" y="299.88" width="121.62" height="19.37"/><path class="cls-17" d="M840.27,383.49a119.63,119.63,0,0,1-49.85-10.75,120.61,120.61,0,1,1,99.7,0A119.63,119.63,0,0,1,840.27,383.49Zm0-234.86a114.27,114.27,0,0,0-47.22,218.31,114.58,114.58,0,0,0,94.43,0,114.26,114.26,0,0,0-47.21-218.31Z"/><rect class="cls-18" x="719.66" y="432.04" width="175.95" height="17.27"/><rect class="cls-7" x="719.66" y="478.5" width="175.95" height="17.27"/><rect class="cls-7" x="719.66" y="524.96" width="175.95" height="17.27"/><rect class="cls-18" x="931.51" y="432.04" width="29.37" height="17.27"/><rect class="cls-7" x="931.51" y="478.5" width="29.37" height="17.27"/><rect class="cls-7" x="931.51" y="524.96" width="29.37" height="17.27"/><rect class="cls-19" x="1002.8" y="414.65" width="351.53" height="533.8" rx="74.73"/><path class="cls-7" d="M1313.23,494a57.54,57.54,0,1,0-108.36,38.76c.43,1.21.91,2.41,1.41,3.58a57.55,57.55,0,0,0,107-42.34Zm-39.65,60a43.09,43.09,0,0,1-54.09-23.41c-.38-.87-.74-1.77-1.06-2.68A43.14,43.14,0,1,1,1273.58,554Z"/><path class="cls-20" d="M1217.87,500.56l-13.75-4.29a57.62,57.62,0,0,1,53.21-40.38l.43,14.39a43.23,43.23,0,0,0-39.89,30.28Z"/><path class="cls-21" d="M1219.49,530.63l-13.21,5.75c-.5-1.17-1-2.37-1.41-3.58a57.29,57.29,0,0,1-.75-36.53l13.75,4.29a42.89,42.89,0,0,0,.56,27.39C1218.75,528.86,1219.11,529.76,1219.49,530.63Z"/><path class="cls-22" d="M1215.21,550.71a57.17,57.17,0,0,1-8.93-14.33l13.21-5.75a43.22,43.22,0,0,0,6.69,10.75Z"/><rect class="cls-22" x="1227.52" y="827.94" width="31.02" height="101.7"/><rect class="cls-22" x="1181.41" y="856.46" width="31.02" height="73.18"/><rect class="cls-22" x="1272.26" y="780.8" width="31.02" height="148.84"/><polygon class="cls-22" points="1049.76 817.46 1047.07 815.39 1097.61 749.62 1159.99 753.01 1207.03 678.1 1257.71 672.87 1288.16 612.64 1291.19 614.17 1259.9 676.06 1209.03 681.31 1161.8 756.51 1099.21 753.11 1049.76 817.46"/><path class="cls-18" d="M1145.35,490.43h-88.2a10.08,10.08,0,0,1-10.09-10.08h0a10.09,10.09,0,0,1,10.09-10.09h88.2a10.09,10.09,0,0,1,10.09,10.09h0A10.08,10.08,0,0,1,1145.35,490.43Z"/><path class="cls-7" d="M1145.35,525.61h-88.2a10.08,10.08,0,0,1-10.09-10.08h0a10.09,10.09,0,0,1,10.09-10.09h88.2a10.09,10.09,0,0,1,10.09,10.09h0A10.08,10.08,0,0,1,1145.35,525.61Z"/><path class="cls-7" d="M1145.35,560.79h-88.2a10.08,10.08,0,0,1-10.09-10.08h0a10.09,10.09,0,0,1,10.09-10.09h88.2a10.09,10.09,0,0,1,10.09,10.09h0A10.08,10.08,0,0,1,1145.35,560.79Z"/><path class="cls-23" d="M858.87,828.1s-34.94-9.88-77.61,0l20.47-104.89S852.86,777.41,858.87,828.1Z"/><path class="cls-24" d="M969.59,647.27s7.84,5.62,10.16,4.91,6.21.44,8.42.2,8-3,10.27-2.4c.95.25,6.19,4,8.17,4.27s6,.37,5.76,2-3.92,2.58-3.92,2.58,1.78.37,2,1.93c.44,3-1.15,4.08-1.15,4.08s1.59,1.54,1.45,2.84c-.31,2.87-1.87,3.85-1.87,3.85a4.86,4.86,0,0,1,0,3.35,4.34,4.34,0,0,1-3.31,2.72s-.34,3.21-2.1,3.65-3.3-.2-4.76-.24-14-4.38-21.49-10.9a71.89,71.89,0,0,0-16.11-10.35Z"/><path class="cls-25" d="M808.73,432.67s-11.71-7.52-22.27,5.84-6.76,26.2-4.55,38.19,12.83,39.1,8.31,51.09S791.48,546,791.48,546s36.31,9.29,32.08-45.33S808.73,432.67,808.73,432.67Z"/><path class="cls-26" d="M824.3,535.81s13.82-1.89,23.1,5.07,15.63,20,18.47,24.07,36,40.67,37.62,41.33,22.28,12.05,36.18,21.25,35.78,20.27,35.78,20.27l-11.87,14.56s-58.5-21-70.67-32.27c-13-12.09-73.1-72.11-73.1-72.11S804.7,545.78,824.3,535.81Z"/><path class="cls-27" d="M924.9,1044.58s15,20.14,12.91,23.33-17.78,3.65-27.36,0-9.8-27.25-14.13-37.39c-1.81-4.24,2.07-16.77,7.52-17.68s11.39,1.76,11.39,1.76S909.57,1028.88,924.9,1044.58Z"/><path class="cls-28" d="M915.33,1014.44a94.78,94.78,0,0,1,4.3,16.76c1,6.79,10.66,21.21,10.2,23s-12.77,3.48-17.78-1.22-8.24-18.38-9.35-26.56a66.3,66.3,0,0,0-2.32-11.38S910.55,1009.42,915.33,1014.44Z"/><polygon class="cls-27" points="895.92 1028.75 895.92 1049.83 898.65 1049.83 898.65 1033.54 895.92 1028.75"/><path class="cls-27" d="M794.71,1044.92s14.42,19.8,12.37,23-17.79,3.65-27.36,0-9.8-27.25-14.13-37.39c-1.82-4.24,2.06-16.77,7.52-17.68s11.85,1.95,11.85,1.95S779.38,1029.22,794.71,1044.92Z"/><path class="cls-28" d="M785,1014.79a134.23,134.23,0,0,0,3,16c1.82,6.61,11.62,21.66,11.17,23.48s-12.77,3.48-17.78-1.22-8.89-18.32-9.35-26.56a43.64,43.64,0,0,1,1.14-13.61S780.18,1009.78,785,1014.79Z"/><polygon class="cls-27" points="765.18 1028.75 765.18 1049.83 767.92 1049.83 767.92 1033.54 765.18 1028.75"/><path class="cls-29" d="M857,687s12.84,59.71,15.79,74.75,11.2,87.84,12.08,100.22,13.4,59,12.81,63.45,19.25,92.17,19.25,92.17-20.42,5.55-23.86,1.81c-2.92-3.18-32.26-83.41-32.26-105.52,0-30.56-23.05-69.47-26-76.31-27.09-63.51-21.3-83.91-24.84-88s-3.85,2.55-5.91,11.69-6.48,88.14-9.13,98.16-.6,43.92-2.07,61-3.17,93.7-3.17,93.7-14.79,3.4-21.82.12c-2-.94-7.14-85.33-7.43-105.67s-.61-48.39-1.18-57.19c-5.46-84.29-13.52-96.25,2.25-156C791.82,580.77,857,687,857,687Z"/><path class="cls-30" d="M823.79,527.87s13.4,6.33,18.05,7.26,22.7,24.37,25.86,32.93,0,21.4-6.51,36.47-.37,20.1-3.35,35.17-.15,50.4.41,58.77-68.47,19-95-7.72c0,0,14.39-27,16.63-30.77s.37-24-1.68-29.21-15.67-49.52-15.67-49.52-11.14-34-1.07-41.84c8.74-6.79,32.58-9.22,36.86-10.7S815,526.57,823.79,527.87Z"/><path class="cls-31" d="M828.07,557.74l8.14-9.54-7.07-25.09S826.77,537.08,828.07,557.74Z"/><path class="cls-28" d="M830.18,512.41S827.51,537,828.07,545c0,0-13.92,14-29.75-16.28,0,0,6.66-12.46,1.64-29.45S830.18,512.41,830.18,512.41Z"/><polygon class="cls-28" points="828.07 544.99 828.07 557.74 812.05 545.76 828.07 544.99"/><polygon class="cls-31" points="828.07 557.74 821.42 549.5 799.01 527.17 791.76 534.15 828.07 557.74"/><polygon class="cls-32" points="836.21 548.2 846.47 551.04 829.14 523.11 836.21 548.2"/><polygon class="cls-32" points="821.42 549.5 812.05 561.78 792.91 529.1 799.57 525.69 821.42 549.5"/><path class="cls-33" d="M829.63,517.82l-.46,4.92s-11.06,2.08-25.54-15.58C803.63,507.16,813.89,519.68,829.63,517.82Z"/><path class="cls-24" d="M826.82,518.18c4.36-.16,16.53-1.58,22.53-29.61,7.34-34.25-8.87-52-22.74-55.3s-26.67,1.53-33.78,19.43c0,0-5.19,13.95,3.24,38.81S822.16,518.35,826.82,518.18Z"/><path class="cls-25" d="M815.69,455.48s18.64,1.16,36,27.18c0,0,8.1-31.31-13.09-45.6s-36-2-41.2,4.23c0,0-7.41,1.7-7.65,15.77s-9.69,35.3,11.07,45.37c0,0-2-16.06-.15-19.73S808.8,481.5,815.69,455.48Z"/><path class="cls-24" d="M801.65,476.46c-.94-2.44-3.5-3.42-4.91-.81s.27,12.74,4,13.85S803.55,481.39,801.65,476.46Z"/><path class="cls-26" d="M792.91,529.1s21,25.18,23.25,78.1-16.58,222-15.41,242.59l-54.58-26.41s.32-85.29,18.59-139c21.45-63-2.94-82.17-5.17-120.9,0,0,1-28.35,16.82-30.93C791.25,530.18,792.91,529.1,792.91,529.1Z"/><path class="cls-26" d="M835.2,532.88s8.56,1,11.27,4.19,19.62,22.7,20.85,28.44,5.18,10-2.94,36.76c-7.26,24-5.44,50.77-3.93,61.51s27.63,155.87,26.2,159.6S874.34,836,874.34,836s-23.41-143.2-23.16-167.12S860.79,573.74,835.2,532.88Z"/><polygon class="cls-34" points="1014.23 608.45 995.98 702.41 935.68 690.7 951.57 596.27 1014.23 608.45"/><polygon class="cls-35" points="1009.71 613.02 993.5 696.47 939.94 686.07 954.05 602.21 1009.71 613.02"/><polygon class="cls-34" points="992.73 611.88 993.87 606.02 972.21 601.81 970.23 607.5 992.73 611.88"/><path class="cls-36" d="M1007.45,658.12s-10.8-3.53-14-1.5.63,3.51.63,3.51-3.76-1.53-5.25,1.29,3.08,4.32,3.08,4.32a3.13,3.13,0,0,0-3.55,2.9c-.39,3.3,3.67,3.7,3.67,3.7s-4.71,1.86-1.74,4.87c5,5.09,13.37,4.34,13.37,4.34s2.06-.5,2.21-3.72c0,0,5-.85,3.39-6.2,0,0,4-4.4,0-6.74C1009.3,664.89,1013.54,659.86,1007.45,658.12Z"/><path class="cls-28" d="M746,712.06s-2.18,10.16,2.27,17c1.7,2.63.06,22.5-.09,25-.13,2.08-2,3.86-2.78,3.43s-.93-11.43-2.1-15c-1-3-1.86-4.1-2.4-3.15s1.29,16.92,2.33,22.21-.26,16.43-3,14.63-11.92-26.54-11.24-34.8,3.8-18.57,3.8-18.57Z"/><path class="cls-26" d="M789.69,530.6S767.89,529.25,757,542s-10.34,27.83-13.12,34.39-9.14,34.78-10.53,39.35-2.75,30.27-4.74,50.94S727,725.92,727,725.92l20.85-3.78s.84-36.8,1.37-58.13,17.89-59,24.45-75.53S806.33,541,789.69,530.6Z"/><polygon class="cls-37" points="356.86 772.29 392.37 772.29 381.5 749.75 345.99 749.75 356.86 772.29"/><polygon class="cls-38" points="340.24 772.29 348.7 772.29 337.83 749.75 329.37 749.75 340.24 772.29"/><path class="cls-23" d="M1447.79,846.56s-34.94-9.89-77.62,0l20.48-104.9S1441.77,795.86,1447.79,846.56Z"/><path class="cls-39" d="M1353.61,1026.18s-15.92,27-22.64,31.39c-9.12,6-3.4,12,.93,12s26.46,1.58,31.33-3.95,7.3-22.11,11.83-26.45,8.69-20.34-2.21-25.76C1360.91,1007.5,1353.61,1026.18,1353.61,1026.18Z"/><path class="cls-28" d="M1359.58,1012s-17.31,33.88-20.45,38.55,5.92,4.66,11.53,2.44,20.18-24.69,21.76-29,.43-10.56.43-10.56Z"/><polygon class="cls-39" points="1378.97 1031.31 1374.77 1063.71 1372.54 1063.81 1373.23 1040.5 1378.97 1031.31"/><path class="cls-39" d="M1490.09,999.88s-3.82,31.09-8.22,37.81c-6,9.13,1.68,12.39,5.66,10.67s24.89-9.11,27.15-16.13-2.15-23.19.28-29-.17-22.11-12.32-22.74C1489.31,979.83,1490.09,999.88,1490.09,999.88Z"/><path class="cls-28" d="M1489.91,984.52s-2.34,38-3.35,43.51,7.29,1.91,11.55-2.37,8.63-30.69,8.36-35.28-3.83-9.87-3.83-9.87Z"/><polygon class="cls-39" points="1515.39 994.45 1524.47 1025.83 1522.47 1026.81 1513.79 1005.17 1515.39 994.45"/><path class="cls-28" d="M1339.47,715.27a94,94,0,0,0-.11,12.16c.19,3.06-4.88,21.18-5.71,23.47-.69,1.93-1.63.37-1.89-1.12-.15-.85.61-7.43.48-11.09-.1-3.07-.61-4.36-1.38-3.62s-5.24,12-5.71,17.28-5.12,16.28-7.2,13.83-1.77-24.89,1.15-32.47,8.7-16.43,8.7-16.43Z"/><path class="cls-26" d="M1341.87,719.64c.86-2.42,21.69-35.83,26.67-46.46s9.36-20.41,11.7-24.57c.15-.27.41-.75.74-1.39,1.63-3.11,5.18-10,8.75-16.48l.76-1.34.62-2.57c2.51-4.46,1.06-7.43,1.55-11.19a11.16,11.16,0,0,1,1.12-3.66l.07-.15c3.05-6,5.45-11.32,6.2-14.38,2.51-10.17,14.49-55.29,14.49-55.29s-19.35,6.82-22.37,13.75c-4.57,10.52-9.94,26.37-11.41,31.27s-15.14,45.48-18,53.73-5.7,15.16-8.84,20.44-25.79,53.06-27.39,57.4C1326.57,718.75,1341,722.06,1341.87,719.64Z"/><path class="cls-29" d="M1423.65,763.79c-.8,3.83-5.87,19.86-11.55,37.66h0c-5.18,16.23-10.87,33.94-14.28,45.24-1.27,4.22-2.22,7.54-2.72,9.57-3.27,13.38.41,34.37,1.6,51.91s-5.52,106.47-5.52,106.47c-4.45,2.08-33.07-1.62-33.07-1.62,3.27-6.24,4.28-118.11,2.5-124.95s-3-25.87-1.19-33.3a28.61,28.61,0,0,0,.58-6c.15-9.38-1.78-24.89-3-41.9-1.48-21.41,6.84-74.64,8-79.4.11-.43.28-1,.5-1.81,2.19-7.46,9.25-28.65,9.25-28.65,14.3-4.26,25.07-5,33.11-3.39,10.64,2.17,16.5,8.56,19.42,16.67C1434.35,729.68,1424.67,758.82,1423.65,763.79Z"/><path class="cls-29" d="M1506.48,980.5l-22.93,18.57c-2.46-11.89-55.14-105.93-58.73-115.15s-7.42-27.06-7.42-33.6c0-1.17-.08-3.14-.25-5.7-.63-9.91-2.45-28.61-5.05-43.17-.48-2.71-1-5.28-1.54-7.63-2.88-12.55-3.38-55.44-3.41-80.66,0-11.22.06-18.95.06-18.95l.72-.55c5.42-4.1,40.2-29.12,52.33-5.73a70.22,70.22,0,0,1,6.56,19.72c3.89,21.2.07,45.07-3.06,66.81-2.69,18.61-7.83,44.9-9.31,64.41-.82,10.74-.52,19.42,1.9,23.64,6.85,11.89,13.53,22,27.36,63.93C1488.21,940.09,1506.48,980.5,1506.48,980.5Z"/><path class="cls-40" d="M1398.67,477.72s-7.57-48.93,33-48,40,25.1,39.26,49.11-16.25,22.21,1.26,55.62-15.16,33.4-15.16,33.4L1431.63,533Z"/><path class="cls-28" d="M1427.19,434.39s-27.44,4.33-28.52,43.33,7.4,47.31,31.41,39.18,31.6-48.93,32.14-55.25S1464.21,429.69,1427.19,434.39Z"/><path class="cls-41" d="M1475.39,570c.11,13.43-15.33,45.53-17.71,55.44s-6.15,13.09-3,25.77,13,55.61,12.61,59.38-60,22.7-101.75,15.07c0,0,16.24-60.58,17.43-67.52s-1.45-32.95-2-40.28-8-23.12-7.77-30.48,3.93-13.95,9.08-21.95c1.59-2.48,3.27-5,4.94-7.47,5.45-8,10.9-15.26,13.57-17.76a42.58,42.58,0,0,1,5.47-4.36h0a25.72,25.72,0,0,1,5.63-3l23.59-3.76s14.7,5.32,23.16,7.29C1458.64,536.43,1475.15,538.84,1475.39,570Z"/><path class="cls-41" d="M1406.26,535.87l-13.67,21.55L1380,577.31c0-.11.87-3.12,2.3-11.84.27-1.66.56-3.52.87-5.61a15,15,0,0,1,.4-1.83h0c5.4-12.45,22.1-21.84,22.71-22.15Z"/><path class="cls-28" d="M1445.52,499.34c-2.38,4.49-4.89,32.37-4.89,32.37s-33.57,12.69-30.13,5.52c1.56-3.26,2-7.49,2-11.13a53.16,53.16,0,0,0-.38-6.78c-.08-.73-.15-1.15-.15-1.15S1447.9,494.84,1445.52,499.34Z"/><path class="cls-40" d="M1416,462.37s14.08,22.93,26.9,32,6.32,16.25,6.32,16.25,33.45-70.42,1.65-75.29-51.3-5.24-52.2,42.43C1398.67,477.72,1413.11,462,1416,462.37Z"/><path class="cls-33" d="M1431.31,516.45c-5.15,7.6-18.76,9.65-18.76,9.65h0a53.16,53.16,0,0,0-.38-6.78C1420.92,521,1431.31,516.45,1431.31,516.45Z"/><path class="cls-26" d="M1383.6,557.88h0s-.72,1.51-1.32,7.59l4.94-7.47s8.83-12.66,11.86-16a49.82,49.82,0,0,1,7.18-6.17S1388.88,544.22,1383.6,557.88Z"/><path class="cls-28" d="M1458,638.73a180.29,180.29,0,0,1-19.14,5.43c-9.21,2,.31,13,.31,13s16-1.48,23.64-2.23C1466.53,654.57,1458,638.73,1458,638.73Z"/><path class="cls-41" d="M1450.39,576.76s21.55-8.45,27.92-8.94c0,0-4.33-34.6-25.49-30.93S1450.39,576.76,1450.39,576.76Z"/><path class="cls-28" d="M1411.89,532.9s-15.82,24.33-10.47,26.45,34.34-2.84,46.66-25.94C1448.08,533.41,1429.66,524,1411.89,532.9Z"/><path class="cls-26" d="M1440.72,530.73s-16.77,27.83-19,80.76,16.58,222,15.41,242.58l50.69-21.9s-19.1-138.23-25.44-164.59,13.68-61,15.91-99.76c0,0-1.41-26.57-16.81-30.93S1440.72,530.73,1440.72,530.73Z"/><path class="cls-28" d="M1474.59,558.71s-3.79-25.56-22.52-21.35c-18,4-1.13,37.56.19,41.53s14.65,36.37,15.81,40.62c3.66,13.43.23,13.75-5.27,16.91-16.23,9.35-49.61,8.74-53.46,11.31s-3.62,10.57,2.85,10.84c8.41.37,56.49-4.16,63.2-4.82,6.5-.63,19.45-1.18,16-24.29C1489.15,613.89,1474.59,558.71,1474.59,558.71Z"/><path class="cls-26" d="M1411.89,532.9s-17.84,29.6-18.77,64.66S1359.54,782,1363,858.54l-7.59-7.35a11.74,11.74,0,0,1-3.56-9.12c1.31-22,7.11-105.93,21.46-151.92,16.62-53.23,2.66-88.51-.14-98s6.13-22.15,9.13-26.67S1392.42,540.15,1411.89,532.9Z"/><polygon class="cls-34" points="1450.73 596.17 1465.76 690.7 1405.08 700.34 1387.69 606.18 1450.73 596.17"/><polygon class="cls-35" points="1448.05 602.01 1461.39 685.97 1407.5 694.53 1392.06 610.91 1448.05 602.01"/><polygon class="cls-34" points="1431.7 606.75 1430.77 600.86 1408.98 604.32 1409.07 610.35 1431.7 606.75"/><path class="cls-28" d="M1438.87,644.16s-10,1.68-11,1.53-4.89-6.64-9.48-7.81-10.33-2.06-11.75-2.94-1.8,3.62,2.61,5.46,5.51,4.3-2.74,6c-4.57.91-21.64-1-20.22,1.89.83,1.69,17.28,2.9,17.28,2.9s-17.75-.08-18.36,1c-1.19,2.12,16.62,2.87,17.36,2.8,0,0-15.25.87-15.39,2.24-.16,1.7,15.29,1,15.15,1.26,0,0-12.13.83-12,1.87.16,1.36,10.84,1.52,12.9,1.28s23-2.63,26.49-3.32a94.56,94.56,0,0,1,9.43-1.11Z"/><path class="cls-26" d="M1477.51,561.47s17.21,65.14,15.78,81.18-63.42,19-63.42,19V644.81s32.45-7.21,38.54-14.65c3.16-3.88-18-53.4-18-53.4s-18.94-31-1-38.87S1475.09,552.06,1477.51,561.47Z"/><path class="cls-28" d="M462,738s-10.2,5.07-19.87,6c0,0-9.14-13.4-14.48-23.43-12.76-23.92-16.52-35.12-15.43-44.3,1.95-16.51,34.42-82.56,34.42-82.56l36,13.91-27.59,49c-2.58,5-5.9,13.19-9.33,19.83-4.5,8.71.92,28.63,4.12,37C449.85,713.46,455.73,729.58,462,738Z"/><path class="cls-42" d="M349.34,1010.06s-1.06,6,3.08,14,22.66,28.32,21.39,36.67-22.69,7.37-36.14-7.34-33.42-30-32.68-33.5,20.9-21.88,27.91-24.32S349.34,1010.06,349.34,1010.06Z"/><polygon class="cls-28" points="356.74 1002.19 349.16 1010.35 332.13 995.83 339.96 986.76 356.74 1002.19"/><path class="cls-43" d="M333.35,986.76c8.31-9.42,75.36-78,75.36-78,34.19-39.41,47.57-40.46,47.57-40.46a199.72,199.72,0,0,1,20.37,1.79c1.69.23,7.18.17,8.94.46,21.77,3.53,22.38,1.05,14.42,18.88-13.09,29.33-144.35,114-144.35,114Z"/><path class="cls-42" d="M639.65,1022.51s10.75,4.69,20.23,6,32.3-2.47,38.78,3.76-7.49,24.24-28.52,26.92-47.95,7.14-50.57,4.34-4.8-28-2.63-35.61S639.65,1022.51,639.65,1022.51Z"/><polygon class="cls-28" points="635.13 1011.37 639.65 1022.51 616.94 1027.9 613.51 1015.97 635.13 1011.37"/><path class="cls-43" d="M601.05,870.5s-9.24-35.24,12.46,47.78c0,0,22.88,88.6,25.39,93.64.6,1.19-28.67,6.55-29.21,6.34-5.09-2-50.67-115.55-62-136.51C537.73,863.29,601.05,870.5,601.05,870.5Z"/><path class="cls-43" d="M601.06,870.5l-45.55,26.21s-17.93-22-29.8-31c-1.22-.92-2.44-1.84-3.68-2.81-1.75-1.32-3.5-2.68-5.26-4-1.27-1-2.56-2-3.81-3-8.68-6.92-16.79-13.91-21.26-19.09-12.9-14.89,15.35-109.1,51-67.08C542.72,769.65,590.54,814.55,601.06,870.5Z"/><path class="cls-43" d="M539.87,758.48S517.42,861.63,495.3,896.71c0,0-37.58-12.66-54.84-19.43,0,0-1.67-74.55,0-94C442,765.09,539.87,758.48,539.87,758.48Z"/><path class="cls-44" d="M435.94,794.65s9.47-92.69,1.63-135.81c-5.22-28.67,2.33-75.2,19.52-100.3a61.53,61.53,0,0,1,6.47-8.07s34.7,9.19,38.18,11.61a72,72,0,0,1,9,9.49h0c9.87,12.11,24.45,34,25.87,55.31,1,15.48,1.88,29.7,2.85,44.37.29,4.46.6,9,.92,13.56.77,11,1.66,22.6,2.77,35.33.62,7.09,5.39,29.58,8.54,50.31Z"/><path class="cls-45" d="M522,862.9c-1.75-1.32-3.5-2.68-5.26-4-1.27-1-2.56-2-3.81-3,1.82-5.8,11.72-32.3,15.6-51.22C528.56,804.6,531.43,834.07,522,862.9Z"/><path class="cls-46" d="M540.38,684.81s-20.2,30.69-23.78-45.1l22.86,31.54C539.75,675.71,540.06,680.21,540.38,684.81Z"/><path class="cls-28" d="M463.56,550.47s3.62-20.05-.6-31.71,34.53,19.65,34.53,19.65,0,1.62.07,4c.05,1.9.15,4.28.32,6.78.35,4.77,1,10,2.17,13C502.64,568.75,463.56,550.47,463.56,550.47Z"/><path class="cls-28" d="M519.59,480.22s8.16,15.38,4,17.74c-3.4,1.94,3.85,17,4.8,19.5s-6.16,4.2-7.68,5.77-6.11,21-12,21.55S476.69,536,469.57,528.5s-12.78-41.21-7.9-55.38S505.17,453.35,519.59,480.22Z"/><path class="cls-29" d="M521.21,483.55s8.55-16.5-6.69-28.88-43.66,9-46.85,9.79-22.11,6.83-12.62,35c8.62,25.53,9.73,28.41,9.73,28.41s5.23-17,8.56-19.35c5.2-3.72,16.54-2.75,16.54-2.75s-5.31-14.39,3.15-16.37S512.69,480.32,521.21,483.55Z"/><path class="cls-28" d="M480.93,497.47c-.73-2-3.08-10.45-10.38-5.53s4.39,20.95,5.65,21.17S487.1,514.09,480.93,497.47Z"/><path class="cls-33" d="M497.88,549.23c-12-3.22-22.3-16.26-22.3-16.26,3.28,3.21,22,9.48,22,9.48C497.61,544.35,497.71,546.73,497.88,549.23Z"/><polygon class="cls-34" points="631.94 658.28 612.38 758.94 547.78 746.39 564.81 645.25 631.94 658.28"/><polygon class="cls-35" points="627.09 663.19 609.72 752.58 552.35 741.44 567.47 651.61 627.09 663.19"/><polygon class="cls-34" points="608.9 661.96 610.12 655.68 586.92 651.18 584.79 657.28 608.9 661.96"/><path class="cls-28" d="M624.38,729a13.91,13.91,0,0,1-4.34,1.1s-2.71-.36-4.65-.51a14.15,14.15,0,0,0-1.51,0,25.8,25.8,0,0,1-8.2-.07c-3.56-.77-18.06-8.07-18.06-8.07l1.72-9,.41-8.61s21.14-7.18,24.54-6.85c.33,0,.66.09,1,.15,2.86.57,4.74,2.19,6.2,2.66.54.17,5.75,2.27,6.26,3.87a5.44,5.44,0,0,1-.7,5.29s1.2,4.41,0,7.22c0,0,1.24,4-1.32,7.08C625.64,723.21,626.43,727.44,624.38,729Z"/><path class="cls-28" d="M594.62,701.81s-2,11.22-7,19.55c0,0-16.2-.64-27.44-2.32-26.81-4-38-7.65-44.78-14-12.09-11.4-45.81-76.82-45.81-76.82l32.64-20.67,23,51.38c2.5,5.06,7.08,12.59,10.37,19.31,4.31,8.8,23.55,16.31,32.14,18.69C567.7,696.93,584.15,701.81,594.62,701.81Z"/><path class="cls-44" d="M518.51,635.48l-37.1,19.3s-7.36-14.24-9.51-18.87c-6.18-13.27-15.74-33.32-3.72-41.8,25.93-18.29,37.08,12.06,43.45,28.7C513.6,627.94,518.51,635.48,518.51,635.48Z"/><rect class="cls-47" x="824.55" y="196.79" width="31.43" height="132.18"/><rect class="cls-48" x="824.55" y="196.79" width="31.43" height="132.18" transform="translate(1103.15 -577.39) rotate(90)"/><path class="cls-7" d="M400.16,309.65A75,75,0,1,0,336,445.23c1.53.73,3.07,1.39,4.61,2a75,75,0,0,0,59.54-137.58Zm18.75,91.84a56.19,56.19,0,0,1-71.41,28.28c-1.16-.46-2.32-1-3.46-1.5a56.23,56.23,0,1,1,74.87-26.78Z"/><path class="cls-49" d="M318.28,403.55l-16.62,8.71A75.08,75.08,0,0,1,313.48,326l13.66,12.88a56.32,56.32,0,0,0-8.86,64.67Z"/><path class="cls-50" d="M347.5,429.77l-6.88,17.46c-1.54-.61-3.08-1.27-4.61-2a74.58,74.58,0,0,1-34.35-33l16.62-8.71A56,56,0,0,0,344,428.27C345.18,428.81,346.34,429.31,347.5,429.77Z"/><path class="cls-50" d="M362.05,452.21a74.29,74.29,0,0,1-21.43-5l6.88-17.46a55.92,55.92,0,0,0,16.06,3.73Z"/><polygon class="cls-50" points="345.05 501.65 205 501.65 205 498.86 342.26 498.86 342.26 439.54 345.05 439.54 345.05 501.65"/><rect class="cls-7" x="205" y="469.89" width="73.72" height="16.7"/></g></g></svg>