<svg xmlns="http://www.w3.org/2000/svg" xmlns:xlink="http://www.w3.org/1999/xlink" viewBox="0 0 3229.25 2000"><defs><style>.cls-1{isolation:isolate;}.cls-2{fill:#f3f3f3;}.cls-3{fill:#fff;}.cls-4{fill:url(#linear-gradient);}.cls-5{fill:url(#linear-gradient-2);}.cls-6{fill:url(#linear-gradient-3);}.cls-7{fill:#e0e0e0;}.cls-8{fill:url(#linear-gradient-4);}.cls-9{fill:url(#linear-gradient-5);}.cls-10{fill:url(#linear-gradient-6);}.cls-11{fill:url(#linear-gradient-7);}.cls-12{fill:url(#linear-gradient-8);}.cls-13,.cls-19{fill:#f5f5f5;}.cls-14{fill:url(#linear-gradient-9);}.cls-15{fill:url(#linear-gradient-10);}.cls-16{fill:url(#linear-gradient-11);}.cls-17{fill:url(#linear-gradient-12);}.cls-18{fill:#4e7ed6;}.cls-19{mix-blend-mode:hard-light;}.cls-20{fill:#537ffd;}.cls-21{fill:#4ba6f3;}.cls-22{fill:#46bbed;}.cls-23{fill:#b3b7c4;}.cls-24{fill:#eea987;}.cls-25{fill:#fccca2;}.cls-26{fill:#dbdff0;}.cls-27{fill:#1d3b54;}.cls-28{fill:#eea886;}.cls-29{fill:#3b3b40;}.cls-30{fill:#e8734d;}.cls-31{fill:#d6c5be;}.cls-32{fill:#fae6de;}.cls-33{fill:#a77860;}.cls-34{fill:#616161;}.cls-35{fill:#e0cec7;}.cls-36{fill:#db9c7c;}.cls-37{fill:url(#linear-gradient-13);}.cls-38{fill:url(#linear-gradient-14);}.cls-39{fill:#2d2d30;}.cls-40{fill:#2d3133;}.cls-41{fill:#e55353;}.cls-42{fill:#353a3d;}.cls-43{fill:#248c9e;}.cls-44{fill:#2aa3b8;}.cls-45{fill:#196370;}.cls-46{fill:#1d6f7d;}.cls-47{fill:url(#linear-gradient-15);}.cls-48{fill:url(#linear-gradient-16);}.cls-49{fill:#2d5bad;}.cls-50{fill:#5d96ff;}</style><linearGradient id="linear-gradient" x1="2727.73" y1="-9791.54" x2="3254.4" y2="-9791.54" gradientTransform="translate(-7996.18 488.69) rotate(73.11)" gradientUnits="userSpaceOnUse"><stop offset="0" stop-color="#40d5e6"/><stop offset="1" stop-color="#57f"/></linearGradient><linearGradient id="linear-gradient-2" x1="2667.5" y1="-10114.15" x2="3559.09" y2="-10114.15" xlink:href="#linear-gradient"/><linearGradient id="linear-gradient-3" x1="3049.83" y1="-10152.7" x2="3453.35" y2="-10152.7" xlink:href="#linear-gradient"/><linearGradient id="linear-gradient-4" x1="647.07" y1="1314.85" x2="647.07" y2="1001.36" gradientUnits="userSpaceOnUse"><stop offset="0" stop-color="#ff9f55"/><stop offset="1" stop-color="#ffd255"/></linearGradient><linearGradient id="linear-gradient-5" x1="724.34" y1="1314.85" x2="724.34" y2="1001.36" xlink:href="#linear-gradient-4"/><linearGradient id="linear-gradient-6" x1="801.61" y1="1314.85" x2="801.61" y2="1001.36" xlink:href="#linear-gradient-4"/><linearGradient id="linear-gradient-7" x1="878.88" y1="1314.84" x2="878.88" y2="1001.37" xlink:href="#linear-gradient-4"/><linearGradient id="linear-gradient-8" x1="1903.59" y1="2354.31" x2="1943.34" y2="96.27" gradientTransform="translate(3853.09 2100.88) rotate(-180)" xlink:href="#linear-gradient"/><linearGradient id="linear-gradient-9" x1="2038.85" y1="451.77" x2="2334.63" y2="451.77" gradientTransform="matrix(1, 0, 0, 1, 0, 0)" xlink:href="#linear-gradient"/><linearGradient id="linear-gradient-10" x1="2038.85" y1="608.59" x2="2310.36" y2="608.59" gradientTransform="matrix(1, 0, 0, 1, 0, 0)" xlink:href="#linear-gradient"/><linearGradient id="linear-gradient-11" x1="2038.85" y1="530.18" x2="2273.77" y2="530.18" gradientTransform="matrix(1, 0, 0, 1, 0, 0)" xlink:href="#linear-gradient"/><linearGradient id="linear-gradient-12" x1="1721.51" y1="757.41" x2="1721.51" y2="432.61" gradientUnits="userSpaceOnUse"><stop offset="0" stop-color="#7db3e0"/><stop offset="1" stop-color="#fff"/></linearGradient><linearGradient id="linear-gradient-13" x1="801.07" y1="1608.27" x2="789.15" y2="1129.47" xlink:href="#linear-gradient-4"/><linearGradient id="linear-gradient-14" x1="742.89" y1="1609.72" x2="730.97" y2="1130.92" xlink:href="#linear-gradient-4"/><linearGradient id="linear-gradient-15" x1="1710.73" y1="274.99" x2="1736.56" y2="670.35" gradientTransform="matrix(1, 0, 0, 1, 0, 0)" xlink:href="#linear-gradient"/><linearGradient id="linear-gradient-16" x1="1710.73" y1="274.99" x2="1736.56" y2="670.34" gradientTransform="translate(1281.51 2161.51) rotate(-90)" xlink:href="#linear-gradient"/></defs><g class="cls-1"><g id="Слой_1" data-name="Слой 1"><rect class="cls-2" x="1884.03" y="708.8" width="9.11" height="955.53"/><rect class="cls-3" x="1888.58" y="591.06" width="98.18" height="24.91"/><rect class="cls-3" x="1888.58" y="637.1" width="78.56" height="24.91"/><rect class="cls-3" x="1893.14" y="1720.94" width="103.03" height="33.21"/><path class="cls-4" d="M2265.32,224.18s242.31,287.31,88.59,473.36-196,3.62-196,3.62-92,17.08,67.35-215.62C2300.37,375.86,2265.32,224.18,2265.32,224.18Z"/><path class="cls-5" d="M2796.43,0s180,265.7-133.4,571.76-290.11,488.6-290.11,488.6S2052.48,433.09,2796.43,0Z"/><path class="cls-6" d="M2314.41,944.91c-131.48,11.86,21.08-343.67,226.5-436.48s379.22-84.95,499.34-182.88C3040.25,325.55,2961.91,886.48,2314.41,944.91Z"/><rect class="cls-7" x="1002.06" y="708.8" width="9.11" height="955.53"/><rect class="cls-2" x="1626.63" y="708.8" width="9.11" height="955.53"/><rect class="cls-2" x="2274.21" y="708.8" width="9.11" height="955.53"/><rect class="cls-7" x="1006.61" y="591.06" width="155.11" height="24.91"/><rect class="cls-7" x="1006.61" y="637.1" width="220.02" height="24.91"/><rect class="cls-3" x="1624.21" y="591.06" width="182.1" height="24.91"/><rect class="cls-3" x="1624.21" y="637.1" width="116.44" height="24.91"/><rect class="cls-3" x="2283.31" y="591.06" width="112.84" height="24.91"/><rect class="cls-3" x="2283.31" y="637.1" width="131.52" height="24.91"/><rect class="cls-3" x="2930.89" y="591.06" width="164.37" height="24.91"/><rect class="cls-3" x="2930.89" y="637.1" width="131.52" height="24.91"/><rect class="cls-3" x="1631.19" y="1720.94" width="103.03" height="33.21"/><rect class="cls-3" x="2283.31" y="1720.94" width="103.03" height="33.21"/><rect class="cls-7" x="631.51" y="1064.26" width="31.12" height="134.37"/><rect class="cls-7" x="708.78" y="1009.67" width="31.12" height="188.95"/><rect class="cls-7" x="786.05" y="981.19" width="31.12" height="217.44"/><rect class="cls-7" x="863.32" y="969.33" width="31.12" height="229.3"/><rect class="cls-8" x="631.51" y="1114.33" width="31.12" height="84.3"/><rect class="cls-9" x="708.78" y="1080.08" width="31.12" height="118.55"/><rect class="cls-10" x="786.05" y="1062.21" width="31.12" height="136.41"/><rect class="cls-11" x="863.32" y="1054.77" width="31.12" height="143.86"/><rect class="cls-12" x="1357.67" y="297.79" width="1137.76" height="1505.31" rx="59.95" transform="translate(3853.09 2100.88) rotate(180)"/><path class="cls-13" d="M1465.24,119.83H2428.1a0,0,0,0,1,0,0V1727.18a0,0,0,0,1,0,0H1425a0,0,0,0,1,0,0V160.09A40.25,40.25,0,0,1,1465.24,119.83Z"/><rect class="cls-14" x="2038.85" y="433.07" width="295.77" height="37.41"/><rect class="cls-15" x="2038.85" y="589.88" width="271.5" height="37.41"/><rect class="cls-16" x="2038.85" y="511.47" width="234.91" height="37.41"/><path class="cls-17" d="M1721.51,673a231,231,0,0,1-96.29-20.76A233.6,233.6,0,0,1,1488.54,440c0-128.46,104.51-233,233-233s233,104.51,233,233a233.6,233.6,0,0,1-136.69,212.21A230.89,230.89,0,0,1,1721.51,673Zm0-453.64c-121.68,0-220.67,99-220.67,220.67a221.26,221.26,0,0,0,129.47,201,221.34,221.34,0,0,0,182.39,0,221.26,221.26,0,0,0,129.48-201C1942.18,318.32,1843.19,219.33,1721.51,219.33Z"/><rect class="cls-18" x="1488.54" y="766.75" width="339.85" height="33.36"/><rect class="cls-7" x="1488.54" y="856.5" width="339.85" height="33.36"/><rect class="cls-7" x="1488.54" y="946.24" width="339.85" height="33.36"/><rect class="cls-18" x="1897.75" y="766.75" width="56.73" height="33.36"/><rect class="cls-7" x="1897.75" y="856.5" width="56.73" height="33.36"/><rect class="cls-7" x="1897.75" y="946.24" width="56.73" height="33.36"/><rect class="cls-19" x="2035.44" y="733.16" width="679" height="1031.06" rx="74.73"/><path class="cls-7" d="M2635.06,886.51a111.15,111.15,0,1,0-209.31,74.86c.84,2.35,1.76,4.66,2.74,6.92a111.15,111.15,0,0,0,206.57-81.78Zm-76.59,115.89A83.22,83.22,0,0,1,2454,957.19c-.74-1.69-1.43-3.43-2.06-5.19a83.33,83.33,0,1,1,106.53,50.4Z"/><path class="cls-20" d="M2450.86,899.1l-26.56-8.29a111.31,111.31,0,0,1,102.78-78l.83,27.81a83.43,83.43,0,0,0-77,58.48Z"/><path class="cls-21" d="M2454,957.19l-25.51,11.1c-1-2.26-1.9-4.57-2.74-6.92a110.68,110.68,0,0,1-1.45-70.56l26.56,8.29a83,83,0,0,0,1.08,52.9C2452.57,953.76,2453.26,955.5,2454,957.19Z"/><path class="cls-22" d="M2445.72,996a110.45,110.45,0,0,1-17.23-27.67l25.51-11.1a82.62,82.62,0,0,0,12.91,20.75Z"/><rect class="cls-22" x="2469.51" y="1531.45" width="59.91" height="196.44"/><rect class="cls-22" x="2380.44" y="1586.55" width="59.91" height="141.35"/><rect class="cls-22" x="2555.92" y="1440.41" width="59.91" height="287.49"/><polygon class="cls-22" points="2126.15 1511.21 2120.95 1507.21 2218.57 1380.18 2339.07 1386.72 2429.93 1242.02 2527.81 1231.92 2586.63 1115.58 2592.49 1118.55 2532.05 1238.08 2433.79 1248.22 2342.57 1393.48 2221.67 1386.92 2126.15 1511.21"/><path class="cls-18" d="M2310.8,879.53H2140.42A19.47,19.47,0,0,1,2121,860.06h0a19.48,19.48,0,0,1,19.47-19.48H2310.8a19.47,19.47,0,0,1,19.47,19.48h0A19.47,19.47,0,0,1,2310.8,879.53Z"/><path class="cls-7" d="M2310.8,947.49H2140.42A19.48,19.48,0,0,1,2121,928h0a19.48,19.48,0,0,1,19.47-19.48H2310.8A19.47,19.47,0,0,1,2330.27,928h0A19.47,19.47,0,0,1,2310.8,947.49Z"/><path class="cls-7" d="M2310.8,1015.44H2140.42A19.48,19.48,0,0,1,2121,996h0a19.47,19.47,0,0,1,19.47-19.47H2310.8A19.47,19.47,0,0,1,2330.27,996h0A19.47,19.47,0,0,1,2310.8,1015.44Z"/><path class="cls-23" d="M1757.44,1531.76s-67.49-19.08-149.91,0l39.55-202.6S1745.82,1433.85,1757.44,1531.76Z"/><path class="cls-24" d="M1971.29,1182.48s15.15,10.85,19.63,9.49,12,.83,16.26.38,15.38-5.76,19.85-4.63c1.83.47,12,7.69,15.77,8.23s11.65.73,11.13,4-7.57,5-7.57,5,3.44.71,3.87,3.71c.83,5.85-2.23,7.89-2.23,7.89s3.07,3,2.8,5.49c-.59,5.53-3.61,7.43-3.61,7.43a9.39,9.39,0,0,1,.08,6.48,8.4,8.4,0,0,1-6.4,5.26s-.65,6.2-4.06,7-6.37-.37-9.19-.45-27.08-8.46-41.51-21.06a139,139,0,0,0-31.11-20Z"/><path class="cls-25" d="M1660.6,768s-22.62-14.51-43,11.28-13.06,50.61-8.8,73.77c4.23,23,24.8,75.53,16.06,98.68s2.43,35.21,2.43,35.21,70.14,18,62-87.55S1660.6,768,1660.6,768Z"/><path class="cls-26" d="M1690.65,967.2s26.71-3.66,44.64,9.77,30.19,38.61,35.67,46.51,69.49,78.55,72.67,79.83,43,23.27,69.87,41,69.12,39.15,69.12,39.15l-22.93,28.13s-113-40.45-136.5-62.32C1798.08,1125.94,1682,1010,1682,1010S1652.81,986.44,1690.65,967.2Z"/><path class="cls-27" d="M1885,1949.9s28.89,38.9,24.92,45.07-34.34,7-52.84,0-18.93-52.63-27.3-72.22c-3.5-8.2,4-32.4,14.53-34.16s22,3.4,22,3.4S1855.37,1919.58,1885,1949.9Z"/><path class="cls-28" d="M1866.5,1891.68s6.08,16.56,8.3,32.38c1.84,13.11,20.58,41,19.7,44.48s-24.66,6.72-34.34-2.36-15.93-35.49-18.06-51.29c-2-14.72-4.49-22-4.49-22S1857.25,1882,1866.5,1891.68Z"/><polygon class="cls-27" points="1829 1919.33 1829 1960.05 1834.28 1960.05 1834.28 1928.58 1829 1919.33"/><path class="cls-27" d="M1633.51,1950.55s27.85,38.25,23.89,44.42-34.35,7-52.84,0-18.94-52.63-27.3-72.22c-3.51-8.2,4-32.4,14.53-34.16s22.89,3.78,22.89,3.78S1603.9,1920.23,1633.51,1950.55Z"/><path class="cls-28" d="M1614.68,1892.37s2.21,18.05,5.73,30.82,22.46,41.83,21.57,45.35-24.65,6.72-34.34-2.36-17.17-35.38-18.05-51.29,2.2-26.3,2.2-26.3S1605.44,1882.68,1614.68,1892.37Z"/><polygon class="cls-27" points="1576.48 1919.33 1576.48 1960.05 1581.77 1960.05 1581.77 1928.58 1576.48 1919.33"/><path class="cls-29" d="M1753.85,1259.15s24.8,115.33,30.49,144.37,21.63,169.68,23.34,193.59,25.87,114,24.74,122.56,37.17,178,37.17,178-39.44,10.73-46.08,3.5c-5.63-6.14-62.3-161.11-62.3-203.82,0-59-44.52-134.18-50.15-147.38-52.33-122.69-41.15-162.1-48-170.07s-7.43,4.93-11.41,22.58-12.52,170.24-17.65,189.6-1.14,84.84-4,117.86-6.12,181-6.12,181-28.57,6.57-42.14.24c-3.92-1.83-13.8-164.83-14.37-204.12s-1.17-93.47-2.27-110.46c-10.55-162.8-26.11-185.91,4.36-301.27C1627.93,1054,1753.85,1259.15,1753.85,1259.15Z"/><path class="cls-30" d="M1689.68,951.85s25.88,12.22,34.86,14,43.85,47.08,50,63.62,0,41.33-12.58,70.44-.72,38.81-6.47,67.93-.3,97.34.78,113.52-132.25,36.71-183.49-14.92c0,0,27.81-52.24,32.12-59.43s.72-46.36-3.24-56.43-30.26-95.64-30.26-95.64-21.53-65.72-2.08-80.82c16.89-13.12,62.93-17.8,71.19-20.67S1672.79,949.34,1689.68,951.85Z"/><path class="cls-31" d="M1698,1009.54l15.72-18.41L1700,942.65S1695.43,969.65,1698,1009.54Z"/><path class="cls-28" d="M1702,922s-5.16,47.48-4.08,62.93c0,0-26.89,26.94-57.48-31.45,0,0,12.87-24.07,3.19-56.87S1702,922,1702,922Z"/><polygon class="cls-28" points="1697.94 984.92 1697.94 1009.54 1667 986.42 1697.94 984.92"/><polygon class="cls-31" points="1697.94 1009.54 1685.1 993.63 1641.82 950.5 1627.82 963.99 1697.94 1009.54"/><polygon class="cls-32" points="1713.67 991.13 1733.48 996.6 1700.02 942.65 1713.67 991.13"/><polygon class="cls-32" points="1685.1 993.63 1667 1017.36 1630.03 954.23 1642.9 947.64 1685.1 993.63"/><path class="cls-33" d="M1701,932.44l-.89,9.51s-21.38,4-49.34-30.1C1650.74,911.85,1670.56,936,1701,932.44Z"/><path class="cls-24" d="M1695.54,933.13c8.42-.31,31.92-3,43.52-57.2,14.16-66.14-17.14-100.45-43.94-106.81s-51.52,3-65.24,37.54c0,0-10,27,6.25,75S1686.53,933.46,1695.54,933.13Z"/><path class="cls-25" d="M1674,812s36,2.24,69.44,52.5c0,0,15.66-60.47-25.27-88.07s-69.59-3.87-79.58,8.16c0,0-14.32,3.3-14.77,30.47s-18.72,68.18,21.37,87.63c0,0-3.82-31-.29-38.11S1660.73,862.29,1674,812Z"/><path class="cls-24" d="M1646.91,852.55c-1.81-4.71-6.76-6.6-9.48-1.56s.52,24.6,7.78,26.74S1650.59,862.08,1646.91,852.55Z"/><path class="cls-26" d="M1630,954.23s40.65,48.63,44.91,150.86-32,428.73-29.76,468.56l-105.42-51s.61-164.74,35.91-268.39c41.41-121.61-5.69-158.71-10-233.51,0,0,2-54.77,32.48-59.75C1626.82,956.32,1630,954.23,1630,954.23Z"/><path class="cls-26" d="M1711.72,961.52s16.54,1.93,21.76,8.11,37.9,43.84,40.28,54.93,10,19.36-5.67,71c-14,46.26-10.51,98.07-7.61,118.81s53.39,301.08,50.62,308.27-23.78,24.34-23.78,24.34-45.21-276.6-44.74-322.79S1761.15,1040.45,1711.72,961.52Z"/><polygon class="cls-34" points="2057.53 1107.49 2022.28 1288.98 1905.79 1266.36 1936.49 1083.98 2057.53 1107.49"/><polygon class="cls-35" points="2048.79 1116.32 2017.48 1277.51 1914.03 1257.42 1941.29 1095.44 2048.79 1116.32"/><polygon class="cls-34" points="2015.99 1114.11 2018.19 1102.8 1976.36 1094.67 1972.53 1105.67 2015.99 1114.11"/><path class="cls-36" d="M2044.43,1203.43s-20.87-6.8-27-2.89,1.22,6.78,1.22,6.78-7.27-3-10.14,2.48,6,8.35,6,8.35-6.09-.79-6.86,5.6,7.08,7.15,7.08,7.15-9.1,3.6-3.36,9.42c9.7,9.81,25.82,8.37,25.82,8.37s4-1,4.29-7.17c0,0,9.6-1.65,6.53-12,0,0,7.77-8.49.08-13C2048,1216.51,2056.2,1206.8,2044.43,1203.43Z"/><path class="cls-28" d="M1539.44,1307.63s-4.2,19.63,4.38,32.91c3.28,5.07.13,43.46-.17,48.25-.25,4-3.86,7.45-5.36,6.61s-1.81-22.07-4.07-28.92c-1.9-5.75-3.58-7.92-4.62-6.08s2.49,32.68,4.5,42.89-.51,31.73-5.81,28.25-23-51.25-21.7-67.2,7.34-35.88,7.34-35.88Z"/><path class="cls-26" d="M1623.81,957.12s-42.1-2.6-63.22,22-20,53.75-25.33,66.42-17.66,67.18-20.35,76-5.31,58.46-9.15,98.39-3.06,114.48-3.06,114.48l40.28-7.3s1.62-71.07,2.64-112.28,34.55-114,47.22-145.88S1656,977.11,1623.81,957.12Z"/><polygon class="cls-37" points="772.14 1423.97 840.73 1423.97 819.74 1380.42 751.15 1380.42 772.14 1423.97"/><polygon class="cls-38" points="740.05 1423.97 756.39 1423.97 735.4 1380.42 719.05 1380.42 740.05 1423.97"/><path class="cls-23" d="M2895,1567.41s-67.48-19.09-149.91,0l39.55-202.6S2883.35,1469.49,2895,1567.41Z"/><path class="cls-39" d="M2713.06,1914.37s-30.75,52.11-43.73,60.62c-17.62,11.56-6.58,23.24,1.79,23.25s51.1,3.07,60.52-7.61,14.09-42.72,22.85-51.1,16.77-39.28-4.27-49.76C2727.15,1878.27,2713.06,1914.37,2713.06,1914.37Z"/><path class="cls-28" d="M2724.59,1887s-33.43,65.44-39.5,74.45,11.43,9,22.27,4.72,39-47.69,42-56,.83-20.41.83-20.41Z"/><polygon class="cls-39" points="2762.04 1924.28 2753.92 1986.85 2749.61 1987.04 2750.95 1942.03 2762.04 1924.28"/><path class="cls-39" d="M2976.67,1863.55s-7.37,60.06-15.87,73c-11.54,17.63,3.25,23.94,10.93,20.6s48.07-17.6,52.44-31.16-4.15-44.79.53-56-.31-42.72-23.79-43.92C2975.17,1824.84,2976.67,1863.55,2976.67,1863.55Z"/><path class="cls-28" d="M2976.32,1833.9s-4.51,73.34-6.47,84,14.08,3.69,22.31-4.57,16.67-59.29,16.14-68.16-7.39-19-7.39-19Z"/><polygon class="cls-39" points="3025.53 1853.08 3043.08 1913.68 3039.21 1915.58 3022.45 1873.78 3025.53 1853.08"/><path class="cls-28" d="M2685.74,1313.83a182.4,182.4,0,0,0-.21,23.49c.37,5.91-9.42,40.91-11,45.33-1.34,3.71-3.15.71-3.65-2.16-.29-1.66,1.16-14.35.93-21.42-.2-5.93-1.19-8.44-2.67-7s-10.13,23.2-11,33.36-9.87,31.44-13.9,26.71-3.41-48.07,2.22-62.71,16.81-31.72,16.81-31.72Z"/><path class="cls-26" d="M2690.38,1322.26c1.66-4.67,41.88-69.19,51.51-89.74s18.08-39.41,22.6-47.45c.29-.52.79-1.45,1.44-2.69,3.14-6,10-19.39,16.9-31.83l1.45-2.6,1.22-5c4.83-8.61,2-14.35,3-21.62a22.26,22.26,0,0,1,2.18-7.07c0-.1.09-.19.13-.28,5.9-11.64,10.53-21.88,12-27.79,4.84-19.64,28-106.79,28-106.79s-37.37,13.18-43.2,26.57c-8.83,20.32-19.21,50.92-22.05,60.38s-29.24,87.85-34.68,103.79-11,29.29-17.07,39.48-49.83,102.49-52.91,110.87C2660.83,1320.54,2688.73,1326.93,2690.38,1322.26Z"/><path class="cls-29" d="M2848.33,1407.55c-1.53,7.39-11.33,38.35-22.3,72.74h0c-10,31.35-21,65.56-27.57,87.39-2.46,8.15-4.31,14.57-5.26,18.48-6.32,25.84.79,66.39,3.08,100.27s-10.65,205.65-10.65,205.65c-8.61,4-63.89-3.12-63.89-3.12,6.32-12.06,8.28-228.14,4.83-241.35s-5.74-50-2.29-64.33a56.32,56.32,0,0,0,1.13-11.52c.29-18.12-3.45-48.09-5.73-80.94-2.87-41.36,13.21-144.16,15.51-153.35.21-.85.54-2,1-3.5,4.23-14.42,17.85-55.35,17.85-55.35,27.63-8.22,48.43-9.71,64-6.54,20.56,4.18,31.87,16.52,37.52,32.19C2869,1341.65,2850.32,1398,2848.33,1407.55Z"/><path class="cls-29" d="M3008.33,1826.12,2964,1862c-4.75-23-106.52-204.62-113.45-222.42s-14.32-52.26-14.32-64.9c0-2.26-.16-6.06-.48-11-1.22-19.15-4.73-55.27-9.76-83.39-.94-5.24-1.93-10.21-3-14.73-5.56-24.25-6.53-107.09-6.59-155.81,0-21.67.12-36.6.12-36.6s.48-.38,1.38-1.06c10.48-7.93,77.66-56.25,101.08-11.08a135.53,135.53,0,0,1,12.68,38.1c7.51,40.94.14,87-5.92,129.05-5.19,35.94-15.13,86.72-18,124.41-1.58,20.73-1,37.51,3.68,45.66,13.21,23,26.13,42.42,52.84,123.48C2973,1748.08,3008.33,1826.12,3008.33,1826.12Z"/><path class="cls-40" d="M2800.08,855s-14.61-94.52,63.67-92.77,77.23,48.47,75.84,94.86S2908.2,900,2942,964.5s-29.3,64.52-29.3,64.52l-49-67.31Z"/><path class="cls-28" d="M2855.19,771.28s-53,8.37-55.11,83.71,14.3,91.37,60.69,75.68,61-94.52,62.08-106.72S2926.68,762.22,2855.19,771.28Z"/><path class="cls-41" d="M2948.28,1033.31c.2,25.94-29.61,87.94-34.21,107.08s-11.87,25.28-5.74,49.78,25.12,107.41,24.35,114.69-116,43.84-196.52,29.12c0,0,31.36-117,33.66-130.42s-2.79-63.65-3.94-77.82-15.49-44.66-15-58.86c.49-14.46,7.6-27,17.54-42.41,3.08-4.79,6.31-9.67,9.55-14.41,10.53-15.46,21.05-29.49,26.21-34.32a84.07,84.07,0,0,1,10.56-8.42l0,0a48.88,48.88,0,0,1,10.86-5.73l45.57-7.27s28.39,10.27,44.73,14.1C2915.92,968.4,2947.81,973.05,2948.28,1033.31Z"/><path class="cls-41" d="M2814.76,967.3l-26.41,41.62L2764,1047.34c.06-.21,1.69-6,4.44-22.87.52-3.2,1.08-6.79,1.69-10.82a27.23,27.23,0,0,1,.76-3.54h0c10.43-24.06,42.69-42.19,43.87-42.79Z"/><path class="cls-28" d="M2890.59,896.74c-4.6,8.67-9.45,62.54-9.45,62.54s-64.84,24.5-58.2,10.64c3-6.29,3.89-14.45,3.95-21.49a102.18,102.18,0,0,0-.72-13.09c-.16-1.41-.3-2.23-.3-2.23S2895.18,888.05,2890.59,896.74Z"/><path class="cls-40" d="M2833.56,825.34s27.21,44.29,52,61.73,12.2,31.39,12.2,31.39,64.61-136,3.19-145.43-99.09-10.12-100.84,82C2800.08,855,2828,824.64,2833.56,825.34Z"/><path class="cls-33" d="M2863.14,929.8c-9.95,14.68-36.24,18.63-36.24,18.63h0a102.18,102.18,0,0,0-.72-13.09C2843.07,938.6,2863.14,929.8,2863.14,929.8Z"/><path class="cls-26" d="M2771,1009.82h0s-1.41,2.92-2.56,14.65l9.55-14.41s17.05-24.46,22.9-30.81a96.72,96.72,0,0,1,13.87-11.93S2781.17,983.44,2771,1009.82Z"/><path class="cls-28" d="M2914.71,1166a348.49,348.49,0,0,1-37,10.5c-17.8,3.77.6,25.09.6,25.09s30.83-2.85,45.66-4.29C2931.17,1196.58,2914.71,1166,2914.71,1166Z"/><path class="cls-41" d="M2900,1046.29s41.61-16.32,53.92-17.27c0,0-8.37-66.83-49.24-59.75S2900,1046.29,2900,1046.29Z"/><path class="cls-28" d="M2825.62,961.57s-30.55,47-20.21,51.09,66.32-5.48,90.13-50.1C2895.54,962.56,2860,944.31,2825.62,961.57Z"/><path class="cls-26" d="M2881.32,957.38s-32.4,53.76-36.66,156,32,428.73,29.76,468.56l97.91-42.3s-36.9-267-49.15-317.92,26.44-117.89,30.74-192.69c0,0-2.72-51.32-32.48-59.75S2881.32,957.38,2881.32,957.38Z"/><path class="cls-28" d="M2946.74,1011.41s-7.32-49.37-43.5-41.23c-34.76,7.82-2.18,72.55.37,80.21s28.3,70.27,30.53,78.47c7.06,25.94.45,26.55-10.18,32.67-31.35,18.06-95.82,16.87-103.25,21.83s-7,20.42,5.49,21c16.25.69,109.12-8,122.08-9.32,12.56-1.23,37.57-2.28,31-46.93C2974.86,1118,2946.74,1011.41,2946.74,1011.41Z"/><path class="cls-26" d="M2825.62,961.57s-34.46,57.17-36.25,124.9-64.87,356.3-58.23,504.1l-14.67-14.21a22.62,22.62,0,0,1-6.87-17.62c2.53-42.46,13.74-204.6,41.46-293.43,32.08-102.82,5.12-171-.28-189.33s11.84-42.78,17.63-51.51S2788,975.57,2825.62,961.57Z"/><polygon class="cls-34" points="2900.66 1083.77 2929.67 1266.36 2812.48 1284.99 2778.88 1103.12 2900.66 1083.77"/><polygon class="cls-35" points="2895.47 1095.07 2921.24 1257.23 2817.15 1273.77 2787.32 1112.25 2895.47 1095.07"/><polygon class="cls-34" points="2863.89 1104.21 2862.09 1092.83 2820.01 1099.52 2820.17 1111.16 2863.89 1104.21"/><path class="cls-28" d="M2877.74,1176.48s-19.36,3.24-21.17,2.94-9.45-12.83-18.32-15.07-19.95-4-22.68-5.69-3.48,7,5,10.54,10.65,8.31-5.29,11.51c-8.83,1.77-41.8-1.91-39.06,3.66,1.6,3.27,33.38,5.61,33.38,5.61s-34.29-.16-35.45,1.92c-2.3,4.08,32.09,5.52,33.53,5.39,0,0-29.47,1.69-29.73,4.33-.32,3.29,29.53,1.89,29.26,2.43,0,0-23.43,1.62-23.2,3.61.31,2.62,20.93,2.94,24.92,2.47s44.39-5.06,51.16-6.41,18.22-2.15,18.22-2.15Z"/><path class="cls-26" d="M2952.37,1016.76s33.24,125.81,30.48,156.79-122.49,36.76-122.49,36.76v-32.59s62.67-13.91,74.43-28.3c6.12-7.49-34.79-103.13-34.79-103.13s-36.6-59.84-1.91-75.07S2947.71,998.58,2952.37,1016.76Z"/><path class="cls-28" d="M975.18,1357.72s-19.71,9.79-38.39,11.63c0,0-17.65-25.88-28-45.25-24.63-46.2-31.91-67.83-29.8-85.57,3.77-31.89,66.49-159.46,66.49-159.46l69.61,26.86-53.29,94.72c-5,9.7-11.4,25.48-18,38.31-8.69,16.82,1.77,55.3,8,71.37C951.77,1310.33,963.13,1341.46,975.18,1357.72Z"/><path class="cls-42" d="M757.63,1883.23s-2,11.54,5.94,27,43.78,54.7,41.31,70.84-43.82,14.23-69.8-14.18S670.54,1909,672,1902.13s40.37-42.26,53.91-47S757.63,1883.23,757.63,1883.23Z"/><polygon class="cls-28" points="771.91 1868.03 757.28 1883.79 724.39 1855.75 739.51 1838.21 771.91 1868.03"/><path class="cls-43" d="M726.74,1838.21c16-18.19,145.55-150.71,145.55-150.71,66.05-76.13,91.9-78.14,91.9-78.14a384.21,384.21,0,0,1,39.34,3.45c3.26.45,13.86.33,17.27.89,42,6.82,43.22,2,27.85,36.47-25.28,56.65-278.83,220.11-278.83,220.11Z"/><path class="cls-42" d="M1318.37,1907.27s20.77,9.06,39.07,11.56,62.39-4.77,74.91,7.25-14.47,46.83-55.08,52-92.62,13.78-97.68,8.37-9.28-54.11-5.08-68.77S1318.37,1907.27,1318.37,1907.27Z"/><polygon class="cls-28" points="1309.64 1885.75 1318.37 1907.27 1274.51 1917.69 1267.89 1894.65 1309.64 1885.75"/><path class="cls-43" d="M1243.82,1613.66s-17.85-68.08,24.07,92.3c0,0,44.18,171.12,49,180.86,1.15,2.31-55.39,12.65-56.43,12.24-9.84-3.94-97.86-223.19-119.74-263.67C1121.5,1599.74,1243.82,1613.66,1243.82,1613.66Z"/><path class="cls-43" d="M1243.83,1613.66l-88,50.62s-34.62-42.52-57.55-59.88c-2.36-1.76-4.72-3.55-7.11-5.41q-5.07-3.84-10.15-7.84c-2.46-1.92-5-3.88-7.37-5.84-16.76-13.37-32.43-26.88-41.06-36.87-24.93-28.78,29.64-210.74,98.55-129.58C1131.15,1418.86,1223.52,1505.59,1243.83,1613.66Z"/><path class="cls-43" d="M1125.65,1397.28s-43.36,199.24-86.1,267c0,0-72.58-24.47-105.92-37.54,0,0-3.24-144,0-181.61C936.61,1410.05,1125.65,1397.28,1125.65,1397.28Z"/><path class="cls-44" d="M924.9,1467.15s18.28-179,3.14-262.33c-10.07-55.38,4.5-145.25,37.7-193.73a118.07,118.07,0,0,1,12.51-15.58s67,17.75,73.73,22.43c1,.66,8.21,7.08,17.38,18.32h0c19.07,23.39,47.23,65.73,50,106.83,2,29.91,3.63,57.37,5.5,85.7.56,8.62,1.15,17.32,1.77,26.2,1.5,21.32,3.22,43.64,5.36,68.25,1.19,13.69,10.42,57.12,16.49,97.17Z"/><path class="cls-45" d="M1091.18,1599q-5.07-3.84-10.15-7.84c-2.46-1.92-5-3.88-7.37-5.84,3.52-11.22,22.64-62.4,30.14-98.94C1103.8,1486.37,1109.34,1543.29,1091.18,1599Z"/><path class="cls-46" d="M1126.62,1255s-39,59.29-45.92-87.12l44.15,60.92C1125.41,1237.41,1126,1246.11,1126.62,1255Z"/><path class="cls-28" d="M978.25,995.5s7-38.72-1.16-61.24,66.7,37.94,66.7,37.94,0,3.14.12,7.82c.1,3.66.3,8.26.63,13.1.67,9.21,1.9,19.26,4.18,25C1053.73,1030.81,978.25,995.5,978.25,995.5Z"/><path class="cls-28" d="M1086.46,859.81s15.77,29.71,7.83,34.26c-6.57,3.76,7.44,32.91,9.27,37.67s-11.9,8.12-14.83,11.15-11.81,40.57-23.1,41.63-62-17-75.78-31.45-24.68-79.6-15.26-107S1058.62,807.91,1086.46,859.81Z"/><path class="cls-29" d="M1089.61,866.25s16.51-31.87-12.94-55.78-84.32,17.35-90.49,18.89-42.71,13.21-24.37,67.58c16.64,49.32,18.78,54.88,18.78,54.88S990.7,919,997.13,914.44c10-7.2,32-5.31,32-5.31s-10.26-27.8,6.09-31.61S1073.13,860,1089.61,866.25Z"/><path class="cls-28" d="M1011.8,893.14c-1.41-3.81-6-20.19-20-10.69s8.48,40.47,10.92,40.89S1023.71,925.23,1011.8,893.14Z"/><path class="cls-33" d="M1044.54,993.12c-23.19-6.24-43.08-31.41-43.08-31.41,6.34,6.19,42.45,18.31,42.45,18.31C1044,983.68,1044.21,988.28,1044.54,993.12Z"/><polygon class="cls-34" points="1303.47 1203.75 1265.71 1398.18 1140.92 1373.94 1173.81 1178.57 1303.47 1203.75"/><polygon class="cls-35" points="1294.11 1213.22 1260.57 1385.9 1149.74 1364.37 1178.95 1190.85 1294.11 1213.22"/><polygon class="cls-34" points="1258.97 1210.85 1261.33 1198.73 1216.52 1190.03 1212.41 1201.81 1258.97 1210.85"/><path class="cls-28" d="M1288.88,1340.24s-5.49,2.3-8.38,2.14c0,0-5.24-.71-9-1a26.32,26.32,0,0,0-2.91-.08c-2.82.16-9,1.37-15.84-.13s-34.88-15.59-34.88-15.59l3.32-17.3.8-16.64s40.82-13.88,47.39-13.22a17.64,17.64,0,0,1,1.86.29c5.51,1.09,9.15,4.22,12,5.12,1,.34,11.1,4.39,12.09,7.48,1.37,4.29.58,7.82-1.35,10.22,0,0,2.31,8.52-.11,13.94,0,0,2.39,7.79-2.55,13.67C1291.31,1329.15,1292.85,1337.33,1288.88,1340.24Z"/><path class="cls-28" d="M1231.4,1287.82s-3.88,21.67-13.52,37.77c0,0-31.3-1.24-53-4.48-51.78-7.74-73.49-14.78-86.49-27-23.36-22-88.48-148.39-88.48-148.39l63-39.91,44.34,99.22c4.83,9.78,13.68,24.33,20,37.3,8.33,17,45.48,31.52,62.07,36.12C1179.39,1278.41,1211.16,1287.82,1231.4,1287.82Z"/><path class="cls-44" d="M1084.38,1159.71,1012.72,1197s-14.21-27.5-18.37-36.44c-11.94-25.63-30.4-64.37-7.18-80.74,50.09-35.32,71.63,23.29,83.93,55.43C1074.9,1145.15,1084.38,1159.71,1084.38,1159.71Z"/><rect class="cls-47" x="1691.15" y="312.35" width="60.71" height="255.3"/><rect class="cls-48" x="1691.15" y="312.35" width="60.71" height="255.31" transform="translate(2161.51 -1281.51) rotate(90)"/><path class="cls-7" d="M855.79,530.35A144.86,144.86,0,1,0,731.88,792.24c2.94,1.39,5.92,2.68,8.91,3.86a144.86,144.86,0,0,0,115-265.75ZM892,707.74a108.49,108.49,0,0,1-138,54.62q-3.36-1.33-6.68-2.89A108.61,108.61,0,1,1,892,707.74Z"/><path class="cls-49" d="M697.63,711.72l-32.11,16.83a145.05,145.05,0,0,1,22.84-166.61l26.39,24.86a108.8,108.8,0,0,0-17.12,124.92Z"/><path class="cls-50" d="M754.06,762.36,740.79,796.1c-3-1.18-6-2.47-8.91-3.86a144.19,144.19,0,0,1-66.36-63.69l32.11-16.83a108.24,108.24,0,0,0,49.75,47.75Q750.7,761,754.06,762.36Z"/><path class="cls-50" d="M782.17,805.72a144.29,144.29,0,0,1-41.38-9.62l13.27-33.74a108.1,108.1,0,0,0,31,7.22Z"/><polygon class="cls-50" points="749.33 901.2 478.82 901.2 478.82 895.82 743.95 895.82 743.95 781.23 749.33 781.23 749.33 901.2"/><rect class="cls-7" x="478.82" y="839.87" width="142.39" height="32.26"/></g></g></svg>