<svg height="512" viewBox="0 0 64 64" width="512" xmlns="http://www.w3.org/2000/svg"><g id="Icons"><g><g><path d="m56 60h-32c-2.209 0-4-1.791-4-4v-44c0-2.209 1.791-4 4-4h32c2.209 0 4 1.791 4 4v44c0 2.209-1.791 4-4 4z" fill="#0a5078"/></g><g><path d="m56 59h-32c-1.105 0-2-.895-2-2v-44c0-1.105.895-2 2-2h32c1.105 0 2 .895 2 2v44c0 1.105-.895 2-2 2z" fill="#00325a"/></g><g><path d="m56 58h-32c-1.105 0-2-.895-2-2v-44c0-1.105.895-2 2-2h32c1.105 0 2 .895 2 2v44c0 1.105-.895 2-2 2z" fill="#f0f0f0"/></g><g><path d="m46 9v-1c0-1.657-1.343-3-3-3h-6c-1.657 0-3 1.343-3 3v1h-2c-1.105 0-2 .895-2 2v2c0 1.105.895 2 2 2h16c1.105 0 2-.895 2-2v-2c0-1.105-.895-2-2-2z" fill="#d2d2d2"/></g><g><path d="m46 8v-1c0-1.657-1.343-3-3-3h-6c-1.657 0-3 1.343-3 3v1h-2c-1.105 0-2 .895-2 2v2c0 1.105.895 2 2 2h16c1.105 0 2-.895 2-2v-2c0-1.105-.895-2-2-2z" fill="#fab400"/></g><g><circle cx="33" cy="11" fill="#be7800" r="1"/></g><g><circle cx="47" cy="11" fill="#be7800" r="1"/></g><g><g><path d="m44 18c-2.209 0-4 1.791-4 4 0-2.209-1.791-4-4-4s-4 1.791-4 4c0 8 8 10 8 10s8-2 8-10c0-2.209-1.791-4-4-4z" fill="#c80a50"/></g><g><path d="m42 28.5c-.018 0-.036-.001-.055-.003-.208-.023-.38-.173-.431-.376l-1.514-6.059-1.515 6.06c-.051.203-.223.353-.431.376-.218.021-.409-.087-.502-.273l-1.689-3.379-1.51 1.509c-.093.092-.22.145-.353.145h-6v-1h5.793l1.854-1.854c.113-.114.276-.167.434-.14.158.026.295.126.367.27l1.396 2.791 1.672-6.688c.111-.445.859-.445.971 0l1.672 6.688 1.396-2.791c.072-.144.209-.244.367-.27.16-.026.319.026.434.14l1.854 1.854h5.79v1h-6c-.133 0-.26-.053-.354-.146l-1.51-1.509-1.689 3.379c-.085.17-.26.276-.447.276z" fill="#00a0c8"/></g></g><g><path d="m31 38h-4c-.552 0-1-.448-1-1 0-.552.448-1 1-1h4c.552 0 1 .448 1 1 0 .552-.448 1-1 1z" fill="#d2d2d2"/></g><g><path d="m53 38h-18c-.552 0-1-.448-1-1 0-.552.448-1 1-1h18c.552 0 1 .448 1 1 0 .552-.448 1-1 1z" fill="#d2d2d2"/></g><g><path d="m31 42h-4c-.552 0-1-.448-1-1 0-.552.448-1 1-1h4c.552 0 1 .448 1 1 0 .552-.448 1-1 1z" fill="#d2d2d2"/></g><g><path d="m53 42h-18c-.552 0-1-.448-1-1 0-.552.448-1 1-1h18c.552 0 1 .448 1 1 0 .552-.448 1-1 1z" fill="#d2d2d2"/></g><g><path d="m31 46h-4c-.552 0-1-.448-1-1 0-.552.448-1 1-1h4c.552 0 1 .448 1 1 0 .552-.448 1-1 1z" fill="#d2d2d2"/></g><g><path d="m53 46h-18c-.552 0-1-.448-1-1 0-.552.448-1 1-1h18c.552 0 1 .448 1 1 0 .552-.448 1-1 1z" fill="#d2d2d2"/></g><g><path d="m31 50h-4c-.552 0-1-.448-1-1 0-.552.448-1 1-1h4c.552 0 1 .448 1 1 0 .552-.448 1-1 1z" fill="#d2d2d2"/></g><g><path d="m53 50h-18c-.552 0-1-.448-1-1 0-.552.448-1 1-1h18c.552 0 1 .448 1 1 0 .552-.448 1-1 1z" fill="#d2d2d2"/></g><g><path d="m31 54h-4c-.552 0-1-.448-1-1 0-.552.448-1 1-1h4c.552 0 1 .448 1 1 0 .552-.448 1-1 1z" fill="#d2d2d2"/></g><g><path d="m53 54h-18c-.552 0-1-.448-1-1 0-.552.448-1 1-1h18c.552 0 1 .448 1 1 0 .552-.448 1-1 1z" fill="#d2d2d2"/></g><g><path d="m15 44h2v4h-2z" fill="#c80a50"/></g><g><path d="m15 48h2c.552 0 1 .448 1 1v10c0 .552-.448 1-1 1h-2c-.552 0-1-.448-1-1v-10c0-.552.448-1 1-1z" fill="#fab400"/></g><g><circle cx="16" cy="34" fill="#c80a50" r="12"/></g><g><circle cx="16" cy="34" fill="#00a0c8" r="10"/></g><g><path d="m14 39c-.256 0-.512-.098-.707-.293l-3-3c-.391-.391-.391-1.023 0-1.414s1.023-.391 1.414 0l2.293 2.293 6.293-6.293c.391-.391 1.023-.391 1.414 0s.391 1.023 0 1.414l-7 7c-.195.195-.451.293-.707.293z" fill="#00648c"/></g></g></g></svg>